M48
;Layer_Color=9474304
;FILE_FORMAT=4:4
METRIC,LZ
;TYPE=PLATED
T1F00S00C0.2500
T3F00S00C0.9400
T4F00S00C1.0200
;TYPE=NON_PLATED
T5F00S00C0.6500
%
T01
X0035043Y0024923
X0036825Y0026
X0038943Y0025023
X0038866Y0021125
X00392Y00298
X00366
X003445Y002785
X0035725Y00358
X00361Y0037825
X00392Y003825
X0040075Y0036725
X00426Y0036625
X004136Y00351
X00407997Y0033348
X0042925Y0025975
X004405Y002175
X0040675
X004045Y002095
X00399Y001865
X00407Y00428
X0041883Y00444272
X004175Y004555
X004055Y004585
X0043175Y0045125
X00464Y0044875
X00465Y0045862
X004575Y0046575
X004975Y00457
X0042325Y0050625
X00419618Y0052733
X0040625Y005685
X0045175Y00575
X004515Y005915
X004535Y0062925
X00385615Y006605
X003505
X00350443Y00629725
X0035048Y0057707
X003725Y005825
X0037775Y005085
X003635Y004885
X003945Y004765
X003955Y004685
X00395989Y00461102
X003805Y004615
X0038827Y0042343
X0036107Y0039952
X003055Y0045684
T03
X003253Y001395
Y001649
Y001903
Y002157
Y002411
Y002665
Y002919
Y003173
Y003427
Y003681
Y003935
X004777Y003935
Y003681
Y003427
Y003173
Y002919
Y002665
Y002411
Y002157
Y001903
Y001649
Y001395
Y004189
Y004443
Y004697
Y004951
Y005205
Y005459
Y005713
Y005967
Y006221
Y006475
Y006729
Y006983
Y007237
X003253Y007237
Y006983
Y006729
Y006475
Y006221
Y005967
Y005713
Y005459
Y005205
Y004951
Y004697
Y004443
Y004189
T04
X0041425Y0068725
X0043965
X0038885
X0036345
T05
X0037242Y0018736
X0043022
M30
