%TF.GenerationSoftware,Altium Limited,Altium Designer,22.10.1 (41)*%
G04 Layer_Physical_Order=1*
G04 Layer_Color=255*
%FSLAX45Y45*%
%MOMM*%
%TF.SameCoordinates,F1D13F34-3715-448E-B12D-83C564530F5A*%
%TF.FilePolarity,Positive*%
%TF.FileFunction,Copper,L1,Top,Signal*%
%TF.Part,Single*%
G01*
G75*
%TA.AperFunction,Conductor*%
%ADD10C,0.20000*%
%TA.AperFunction,SMDPad,CuDef*%
%ADD11R,2.20000X2.40000*%
G04:AMPARAMS|DCode=12|XSize=0.67mm|YSize=1.17mm|CornerRadius=0.0402mm|HoleSize=0mm|Usage=FLASHONLY|Rotation=90.000|XOffset=0mm|YOffset=0mm|HoleType=Round|Shape=RoundedRectangle|*
%AMROUNDEDRECTD12*
21,1,0.67000,1.08960,0,0,90.0*
21,1,0.58960,1.17000,0,0,90.0*
1,1,0.08040,0.54480,0.29480*
1,1,0.08040,0.54480,-0.29480*
1,1,0.08040,-0.54480,-0.29480*
1,1,0.08040,-0.54480,0.29480*
%
%ADD12ROUNDEDRECTD12*%
%TA.AperFunction,ConnectorPad*%
%ADD13R,0.30000X1.14000*%
%TA.AperFunction,SMDPad,CuDef*%
%ADD14R,0.70000X0.50000*%
%ADD15R,0.80000X0.80000*%
G04:AMPARAMS|DCode=16|XSize=1.49mm|YSize=0.28mm|CornerRadius=0.035mm|HoleSize=0mm|Usage=FLASHONLY|Rotation=315.000|XOffset=0mm|YOffset=0mm|HoleType=Round|Shape=RoundedRectangle|*
%AMROUNDEDRECTD16*
21,1,1.49000,0.21000,0,0,315.0*
21,1,1.42000,0.28000,0,0,315.0*
1,1,0.07000,0.42780,-0.57629*
1,1,0.07000,-0.57629,0.42780*
1,1,0.07000,-0.42780,0.57629*
1,1,0.07000,0.57629,-0.42780*
%
%ADD16ROUNDEDRECTD16*%
G04:AMPARAMS|DCode=17|XSize=1.49mm|YSize=0.28mm|CornerRadius=0.035mm|HoleSize=0mm|Usage=FLASHONLY|Rotation=45.000|XOffset=0mm|YOffset=0mm|HoleType=Round|Shape=RoundedRectangle|*
%AMROUNDEDRECTD17*
21,1,1.49000,0.21000,0,0,45.0*
21,1,1.42000,0.28000,0,0,45.0*
1,1,0.07000,0.57629,0.42780*
1,1,0.07000,-0.42780,-0.57629*
1,1,0.07000,-0.57629,-0.42780*
1,1,0.07000,0.42780,0.57629*
%
%ADD17ROUNDEDRECTD17*%
G04:AMPARAMS|DCode=18|XSize=0.94mm|YSize=1.02mm|CornerRadius=0.094mm|HoleSize=0mm|Usage=FLASHONLY|Rotation=0.000|XOffset=0mm|YOffset=0mm|HoleType=Round|Shape=RoundedRectangle|*
%AMROUNDEDRECTD18*
21,1,0.94000,0.83200,0,0,0.0*
21,1,0.75200,1.02000,0,0,0.0*
1,1,0.18800,0.37600,-0.41600*
1,1,0.18800,-0.37600,-0.41600*
1,1,0.18800,-0.37600,0.41600*
1,1,0.18800,0.37600,0.41600*
%
%ADD18ROUNDEDRECTD18*%
G04:AMPARAMS|DCode=19|XSize=0.94mm|YSize=1.02mm|CornerRadius=0.094mm|HoleSize=0mm|Usage=FLASHONLY|Rotation=90.000|XOffset=0mm|YOffset=0mm|HoleType=Round|Shape=RoundedRectangle|*
%AMROUNDEDRECTD19*
21,1,0.94000,0.83200,0,0,90.0*
21,1,0.75200,1.02000,0,0,90.0*
1,1,0.18800,0.41600,0.37600*
1,1,0.18800,0.41600,-0.37600*
1,1,0.18800,-0.41600,-0.37600*
1,1,0.18800,-0.41600,0.37600*
%
%ADD19ROUNDEDRECTD19*%
%ADD20R,1.00000X1.10000*%
%ADD21R,0.65000X2.00000*%
%TA.AperFunction,Conductor*%
%ADD22C,0.40000*%
%ADD23C,0.18000*%
%ADD24C,0.25400*%
%TA.AperFunction,ComponentPad*%
%ADD25R,1.44800X1.44800*%
%ADD26C,1.44800*%
%ADD27O,1.00000X2.00000*%
%ADD28O,0.90000X1.80000*%
%ADD29C,0.65000*%
%ADD30C,1.37000*%
%ADD31R,1.37000X1.37000*%
%TA.AperFunction,ViaPad*%
%ADD32C,0.45000*%
G36*
X5115000Y1245000D02*
X2915000D01*
Y7645000D01*
X5115000D01*
Y1245000D01*
D02*
G37*
%LPC*%
G36*
X3265164Y7329400D02*
X3240835D01*
X3217335Y7323103D01*
X3196265Y7310939D01*
X3179061Y7293735D01*
X3166897Y7272665D01*
X3160600Y7249165D01*
Y7224836D01*
X3166897Y7201335D01*
X3179061Y7180265D01*
X3196265Y7163062D01*
X3217335Y7150897D01*
X3240835Y7144600D01*
X3265164D01*
X3288664Y7150897D01*
X3309735Y7163062D01*
X3326938Y7180265D01*
X3339103Y7201335D01*
X3345399Y7224836D01*
Y7249165D01*
X3339103Y7272665D01*
X3326938Y7293735D01*
X3309735Y7310939D01*
X3288664Y7323103D01*
X3265164Y7329400D01*
D02*
G37*
G36*
X4789876Y7080800D02*
X4789700D01*
Y6995699D01*
X4874800D01*
Y6995875D01*
X4868135Y7020749D01*
X4855260Y7043050D01*
X4837051Y7061259D01*
X4814750Y7074135D01*
X4789876Y7080800D01*
D02*
G37*
G36*
X4764300D02*
X4764125D01*
X4739251Y7074135D01*
X4716950Y7061259D01*
X4698741Y7043050D01*
X4685865Y7020749D01*
X4679200Y6995875D01*
Y6995699D01*
X4764300D01*
Y7080800D01*
D02*
G37*
G36*
X4874800Y6970299D02*
X4789700D01*
Y6885200D01*
X4789876D01*
X4814750Y6891865D01*
X4837051Y6904741D01*
X4855260Y6922949D01*
X4868135Y6945251D01*
X4874800Y6970124D01*
Y6970299D01*
D02*
G37*
G36*
X4764300D02*
X4679200D01*
Y6970124D01*
X4685865Y6945251D01*
X4698741Y6922949D01*
X4716950Y6904741D01*
X4739251Y6891865D01*
X4764125Y6885200D01*
X4764300D01*
Y6970299D01*
D02*
G37*
G36*
X4490401Y6966400D02*
X4409201D01*
Y6885199D01*
X4490401D01*
Y6966400D01*
D02*
G37*
G36*
X4383801D02*
X4302601D01*
Y6885199D01*
X4383801D01*
Y6966400D01*
D02*
G37*
G36*
X3900152Y6961000D02*
X3876849D01*
X3854341Y6954969D01*
X3834160Y6943317D01*
X3817683Y6926840D01*
X3806032Y6906659D01*
X3800001Y6884151D01*
Y6860848D01*
X3806032Y6838340D01*
X3817683Y6818159D01*
X3834160Y6801682D01*
X3854341Y6790031D01*
X3876849Y6784000D01*
X3900152D01*
X3922660Y6790031D01*
X3942841Y6801682D01*
X3959318Y6818159D01*
X3970970Y6838340D01*
X3977001Y6860848D01*
Y6884151D01*
X3970970Y6906659D01*
X3959318Y6926840D01*
X3942841Y6943317D01*
X3922660Y6954969D01*
X3900152Y6961000D01*
D02*
G37*
G36*
X3646152D02*
X3622849D01*
X3600341Y6954969D01*
X3580160Y6943317D01*
X3563683Y6926840D01*
X3552032Y6906659D01*
X3546001Y6884151D01*
Y6860848D01*
X3552032Y6838340D01*
X3563683Y6818159D01*
X3580160Y6801682D01*
X3600341Y6790031D01*
X3622849Y6784000D01*
X3646152D01*
X3668660Y6790031D01*
X3688841Y6801682D01*
X3705318Y6818159D01*
X3716970Y6838340D01*
X3723001Y6860848D01*
Y6884151D01*
X3716970Y6906659D01*
X3705318Y6926840D01*
X3688841Y6943317D01*
X3668660Y6954969D01*
X3646152Y6961000D01*
D02*
G37*
G36*
X3557500Y7498284D02*
X3557499Y7498283D01*
X3118431D01*
X3102824Y7495179D01*
X3089593Y7486338D01*
X3089592Y7486338D01*
X3018661Y7415407D01*
X3009821Y7402176D01*
X3006716Y7386568D01*
X3006716Y7386567D01*
Y4567500D01*
X3007507Y4563524D01*
X3006716Y4559547D01*
X3006716Y4559545D01*
Y1562501D01*
X3006716Y1562499D01*
X3009821Y1546892D01*
X3018661Y1533661D01*
X3160600Y1391723D01*
Y1302600D01*
X3345399D01*
Y1487400D01*
X3180276D01*
X3088283Y1579393D01*
Y4541579D01*
X3091030Y4544326D01*
X3097500Y4559946D01*
Y4576853D01*
X3091030Y4592474D01*
X3088283Y4595220D01*
Y7369675D01*
X3135324Y7416716D01*
X3540607D01*
X4058052Y6899271D01*
X4054001Y6884151D01*
Y6860848D01*
X4060032Y6838340D01*
X4071683Y6818159D01*
X4088160Y6801682D01*
X4101717Y6793855D01*
Y6729000D01*
Y6645784D01*
X3868744D01*
X3864601Y6647500D01*
X3847693D01*
X3843550Y6645784D01*
X3517597D01*
X3513454Y6647500D01*
X3496546D01*
X3493648Y6646299D01*
X3483088Y6653355D01*
Y6745498D01*
X3483088Y6745499D01*
X3480759Y6757204D01*
X3474129Y6767128D01*
X3320965Y6920292D01*
X3326938Y6926265D01*
X3339103Y6947335D01*
X3345399Y6970836D01*
Y6995165D01*
X3339103Y7018665D01*
X3326938Y7039735D01*
X3309735Y7056939D01*
X3288664Y7069103D01*
X3265164Y7075400D01*
X3240835D01*
X3217335Y7069103D01*
X3196265Y7056939D01*
X3179061Y7039735D01*
X3166897Y7018665D01*
X3160600Y6995165D01*
Y6970836D01*
X3166897Y6947335D01*
X3179061Y6926265D01*
X3196265Y6909062D01*
X3217335Y6896897D01*
X3240835Y6890600D01*
X3264141D01*
X3421912Y6732829D01*
Y6583255D01*
X3421912Y6583254D01*
X3424241Y6571548D01*
X3430871Y6561625D01*
X3599412Y6393084D01*
Y6162837D01*
X3564424D01*
Y6192249D01*
X3445588D01*
Y6237249D01*
X3564424D01*
Y6357249D01*
X3445588D01*
Y6487499D01*
X3445588Y6487500D01*
X3443259Y6499205D01*
X3436629Y6509129D01*
X3436628Y6509129D01*
X3305040Y6640717D01*
X3306698Y6653309D01*
X3309735Y6655062D01*
X3326938Y6672265D01*
X3339103Y6693335D01*
X3345399Y6716836D01*
Y6741165D01*
X3339103Y6764665D01*
X3326938Y6785735D01*
X3309735Y6802939D01*
X3288664Y6815103D01*
X3265164Y6821400D01*
X3240835D01*
X3217335Y6815103D01*
X3196265Y6802939D01*
X3179061Y6785735D01*
X3166897Y6764665D01*
X3160600Y6741165D01*
Y6716836D01*
X3166897Y6693335D01*
X3179061Y6672265D01*
X3196265Y6655062D01*
X3217335Y6642897D01*
X3233597Y6638540D01*
Y6638317D01*
X3233596Y6638316D01*
X3235925Y6626611D01*
X3242555Y6616687D01*
X3283647Y6575596D01*
X3277073Y6564209D01*
X3265164Y6567400D01*
X3240835D01*
X3217335Y6561103D01*
X3196265Y6548939D01*
X3179061Y6531735D01*
X3166897Y6510665D01*
X3160600Y6487165D01*
Y6462836D01*
X3166897Y6439335D01*
X3179061Y6418265D01*
X3196265Y6401062D01*
X3217335Y6388897D01*
X3240835Y6382600D01*
X3265164D01*
X3288664Y6388897D01*
X3293217Y6391525D01*
X3339412Y6345330D01*
Y6281529D01*
X3327767Y6277987D01*
X3326712Y6277961D01*
X3309735Y6294939D01*
X3288664Y6307103D01*
X3265164Y6313400D01*
X3240835D01*
X3217335Y6307103D01*
X3196265Y6294939D01*
X3179061Y6277735D01*
X3166897Y6256665D01*
X3160600Y6233165D01*
Y6208836D01*
X3166897Y6185335D01*
X3179061Y6164265D01*
X3196265Y6147062D01*
X3217335Y6134897D01*
X3238375Y6129260D01*
Y6126039D01*
X3238375Y6126038D01*
X3240703Y6114332D01*
X3247334Y6104409D01*
X3284330Y6067413D01*
X3277756Y6056026D01*
X3265164Y6059400D01*
X3240835D01*
X3217335Y6053103D01*
X3196265Y6040939D01*
X3179061Y6023735D01*
X3166897Y6002665D01*
X3160600Y5979165D01*
Y5954836D01*
X3166897Y5931335D01*
X3179061Y5910265D01*
X3196265Y5893062D01*
X3217335Y5880897D01*
X3240835Y5874600D01*
X3265164D01*
X3288664Y5880897D01*
X3309735Y5893062D01*
X3326938Y5910265D01*
X3329013Y5913860D01*
X3341713Y5910457D01*
Y5769544D01*
X3329013Y5766141D01*
X3326938Y5769735D01*
X3309735Y5786939D01*
X3288664Y5799103D01*
X3265164Y5805400D01*
X3240835D01*
X3217335Y5799103D01*
X3196265Y5786939D01*
X3179061Y5769735D01*
X3166897Y5748665D01*
X3160600Y5725165D01*
Y5700836D01*
X3166897Y5677335D01*
X3179061Y5656265D01*
X3196265Y5639062D01*
X3217335Y5626897D01*
X3240835Y5620600D01*
X3265164D01*
X3288664Y5626897D01*
X3309735Y5639062D01*
X3326938Y5656265D01*
X3337085Y5673841D01*
X3348140Y5675895D01*
X3351712Y5675325D01*
X3437052Y5589986D01*
X3439895Y5331993D01*
X3428189Y5327069D01*
X3336474Y5418783D01*
X3339103Y5423335D01*
X3345399Y5446836D01*
Y5471165D01*
X3339103Y5494665D01*
X3326938Y5515735D01*
X3309735Y5532939D01*
X3288664Y5545103D01*
X3265164Y5551400D01*
X3240835D01*
X3217335Y5545103D01*
X3196265Y5532939D01*
X3179061Y5515735D01*
X3166897Y5494665D01*
X3160600Y5471165D01*
Y5446836D01*
X3166897Y5423335D01*
X3179061Y5402265D01*
X3196265Y5385062D01*
X3217335Y5372897D01*
X3240835Y5366600D01*
X3265164D01*
X3288664Y5372897D01*
X3293217Y5375525D01*
X3389412Y5279330D01*
Y5106806D01*
X3376712Y5101546D01*
X3328056Y5150202D01*
X3339103Y5169335D01*
X3345399Y5192836D01*
Y5217165D01*
X3339103Y5240665D01*
X3326938Y5261735D01*
X3309735Y5278939D01*
X3288664Y5291103D01*
X3265164Y5297400D01*
X3240835D01*
X3217335Y5291103D01*
X3196265Y5278939D01*
X3179061Y5261735D01*
X3166897Y5240665D01*
X3160600Y5217165D01*
Y5192836D01*
X3166897Y5169335D01*
X3179061Y5148265D01*
X3196265Y5131062D01*
X3217335Y5118897D01*
X3240835Y5112600D01*
X3265164D01*
X3276188Y5115554D01*
X3449412Y4942330D01*
Y4820726D01*
X3437679Y4815866D01*
X3338776Y4914769D01*
X3339103Y4915335D01*
X3345399Y4938836D01*
Y4963165D01*
X3339103Y4986665D01*
X3326938Y5007735D01*
X3309735Y5024939D01*
X3288664Y5037103D01*
X3265164Y5043400D01*
X3240835D01*
X3217335Y5037103D01*
X3196265Y5024939D01*
X3179061Y5007735D01*
X3166897Y4986665D01*
X3160600Y4963165D01*
Y4938836D01*
X3166897Y4915335D01*
X3179061Y4894265D01*
X3196265Y4877062D01*
X3217335Y4864897D01*
X3240835Y4858600D01*
X3265164D01*
X3288664Y4864897D01*
X3297202Y4869827D01*
X3427708Y4739321D01*
X3422848Y4727587D01*
X3340463D01*
X3339103Y4732665D01*
X3326938Y4753735D01*
X3309735Y4770939D01*
X3288664Y4783103D01*
X3265164Y4789400D01*
X3240835D01*
X3217335Y4783103D01*
X3196265Y4770939D01*
X3179061Y4753735D01*
X3166897Y4732665D01*
X3160600Y4709165D01*
Y4684836D01*
X3166897Y4661335D01*
X3179061Y4640265D01*
X3196265Y4623062D01*
X3217335Y4610897D01*
X3240835Y4604600D01*
X3265164D01*
X3288664Y4610897D01*
X3309735Y4623062D01*
X3326938Y4640265D01*
X3339103Y4661335D01*
X3340463Y4666412D01*
X3429903D01*
X3460038Y4636277D01*
X3454777Y4623577D01*
X3402989D01*
X3391284Y4621249D01*
X3381360Y4614619D01*
X3381360Y4614618D01*
X3293217Y4526475D01*
X3288664Y4529103D01*
X3265164Y4535400D01*
X3240835D01*
X3217335Y4529103D01*
X3196265Y4516939D01*
X3179061Y4499735D01*
X3166897Y4478665D01*
X3160600Y4455165D01*
Y4430836D01*
X3166897Y4407335D01*
X3179061Y4386265D01*
X3196265Y4369062D01*
X3217335Y4356897D01*
X3240835Y4350600D01*
X3265164D01*
X3288664Y4356897D01*
X3309735Y4369062D01*
X3326938Y4386265D01*
X3339103Y4407335D01*
X3345399Y4430836D01*
Y4455165D01*
X3339103Y4478665D01*
X3336474Y4483217D01*
X3415659Y4562402D01*
X3457545D01*
X3496920Y4523028D01*
X3496920Y4523027D01*
X3497463Y4522664D01*
X3550042Y4470085D01*
X3557816Y4464891D01*
X3561437Y4464170D01*
X3582235Y4443372D01*
X3582236Y4443371D01*
X3592159Y4436741D01*
X3603865Y4434412D01*
X3711779D01*
X3713030Y4421712D01*
X3708239Y4420759D01*
X3698316Y4414129D01*
X3698315Y4414128D01*
X3650182Y4365995D01*
X3634252Y4368026D01*
X3634132Y4368206D01*
X3619283Y4383054D01*
X3611509Y4388249D01*
X3605221Y4389499D01*
X3603970Y4395787D01*
X3598776Y4403561D01*
X3583928Y4418410D01*
X3576154Y4423604D01*
X3566985Y4425428D01*
X3557816Y4423604D01*
X3550042Y4418410D01*
X3449633Y4318001D01*
X3444439Y4310227D01*
X3443719Y4306605D01*
X3356701Y4219588D01*
X3340463D01*
X3339103Y4224665D01*
X3326938Y4245735D01*
X3309735Y4262939D01*
X3288664Y4275103D01*
X3265164Y4281400D01*
X3240835D01*
X3217335Y4275103D01*
X3196265Y4262939D01*
X3179061Y4245735D01*
X3166897Y4224665D01*
X3160600Y4201165D01*
Y4176836D01*
X3166897Y4153335D01*
X3179061Y4132265D01*
X3196265Y4115062D01*
X3217335Y4102897D01*
X3240835Y4096600D01*
X3265164D01*
X3288664Y4102897D01*
X3298351Y4108490D01*
X3306149Y4098327D01*
X3250319Y4042497D01*
X3243688Y4032573D01*
X3242659Y4027400D01*
X3240835D01*
X3217335Y4021103D01*
X3196265Y4008939D01*
X3179061Y3991735D01*
X3166897Y3970665D01*
X3160600Y3947165D01*
Y3922836D01*
X3166897Y3899335D01*
X3179061Y3878265D01*
X3196265Y3861062D01*
X3217335Y3848897D01*
X3240835Y3842600D01*
X3265164D01*
X3288664Y3848897D01*
X3309735Y3861062D01*
X3326938Y3878265D01*
X3339103Y3899335D01*
X3345399Y3922836D01*
Y3947165D01*
X3339103Y3970665D01*
X3326938Y3991735D01*
X3309735Y4008938D01*
X3308983Y4014646D01*
X3350179Y4055842D01*
X3361912Y4050981D01*
Y3833171D01*
X3293217Y3764475D01*
X3288664Y3767103D01*
X3265164Y3773400D01*
X3240835D01*
X3217335Y3767103D01*
X3196265Y3754939D01*
X3179061Y3737735D01*
X3166897Y3716665D01*
X3160600Y3693165D01*
Y3668836D01*
X3166897Y3645335D01*
X3179061Y3624265D01*
X3196265Y3607062D01*
X3217335Y3594897D01*
X3240835Y3588600D01*
X3265164D01*
X3288664Y3594897D01*
X3309735Y3607062D01*
X3326938Y3624265D01*
X3339103Y3645335D01*
X3345399Y3668836D01*
Y3693165D01*
X3339103Y3716665D01*
X3336474Y3721217D01*
X3397679Y3782422D01*
X3409412Y3777562D01*
Y3762670D01*
X3370871Y3724129D01*
X3364241Y3714205D01*
X3361912Y3702500D01*
X3361912Y3702499D01*
Y3579171D01*
X3293217Y3510475D01*
X3288664Y3513103D01*
X3265164Y3519400D01*
X3240835D01*
X3217335Y3513103D01*
X3196265Y3500939D01*
X3179061Y3483735D01*
X3166897Y3462665D01*
X3160600Y3439165D01*
Y3414836D01*
X3166897Y3391335D01*
X3179061Y3370265D01*
X3196265Y3353062D01*
X3217335Y3340897D01*
X3240835Y3334600D01*
X3265164D01*
X3288664Y3340897D01*
X3309735Y3353062D01*
X3326938Y3370265D01*
X3339103Y3391335D01*
X3345399Y3414836D01*
Y3439165D01*
X3339103Y3462665D01*
X3336474Y3467217D01*
X3392679Y3523422D01*
X3404412Y3518562D01*
Y3367670D01*
X3293217Y3256475D01*
X3288664Y3259103D01*
X3265164Y3265400D01*
X3240835D01*
X3217335Y3259103D01*
X3196265Y3246939D01*
X3179061Y3229735D01*
X3166897Y3208665D01*
X3160600Y3185165D01*
Y3160836D01*
X3166897Y3137335D01*
X3179061Y3116265D01*
X3196265Y3099062D01*
X3217335Y3086897D01*
X3240835Y3080600D01*
X3265164D01*
X3288664Y3086897D01*
X3309735Y3099062D01*
X3326938Y3116265D01*
X3339103Y3137335D01*
X3345399Y3160836D01*
Y3185165D01*
X3339103Y3208665D01*
X3336474Y3213217D01*
X3435179Y3311922D01*
X3446912Y3307062D01*
Y3270170D01*
X3405871Y3229129D01*
X3399241Y3219205D01*
X3396912Y3207500D01*
X3396912Y3207499D01*
Y3017670D01*
X3344577Y2965335D01*
X3331985Y2966993D01*
X3326938Y2975735D01*
X3309735Y2992939D01*
X3288664Y3005103D01*
X3265164Y3011400D01*
X3240835D01*
X3217335Y3005103D01*
X3196265Y2992939D01*
X3179061Y2975735D01*
X3166897Y2954665D01*
X3160600Y2931165D01*
Y2906836D01*
X3166897Y2883335D01*
X3179061Y2862265D01*
X3196265Y2845062D01*
X3217335Y2832897D01*
X3240835Y2826600D01*
X3265164D01*
X3288664Y2832897D01*
X3309735Y2845062D01*
X3326938Y2862265D01*
X3339103Y2883335D01*
X3341048Y2890596D01*
X3343683D01*
X3343684Y2890596D01*
X3355389Y2892925D01*
X3365313Y2899555D01*
X3432679Y2966921D01*
X3444412Y2962061D01*
Y2937670D01*
X3264142Y2757400D01*
X3240835D01*
X3217335Y2751103D01*
X3196265Y2738939D01*
X3179061Y2721735D01*
X3166897Y2700665D01*
X3160600Y2677165D01*
Y2652836D01*
X3166897Y2629335D01*
X3179061Y2608265D01*
X3196265Y2591062D01*
X3217335Y2578897D01*
X3240835Y2572600D01*
X3265164D01*
X3288664Y2578897D01*
X3309735Y2591062D01*
X3326938Y2608265D01*
X3339103Y2629335D01*
X3345399Y2652836D01*
Y2677165D01*
X3339103Y2700665D01*
X3326938Y2721735D01*
X3320965Y2727708D01*
X3390767Y2797510D01*
X3396508Y2795525D01*
X3402500Y2791282D01*
Y2776546D01*
X3408970Y2760926D01*
X3420926Y2748970D01*
X3436546Y2742500D01*
X3443159D01*
X3447586Y2738073D01*
X3447587Y2738072D01*
X3457510Y2731442D01*
X3469216Y2729113D01*
X3642102D01*
Y2639701D01*
X3642102D01*
X3645722Y2630962D01*
X3641892Y2627133D01*
X3635914Y2612700D01*
X3682500D01*
Y2587300D01*
X3635914D01*
X3637364Y2583800D01*
X3628878Y2571100D01*
X3609800D01*
Y2531484D01*
X3532857D01*
X3531433Y2532908D01*
X3517000Y2538886D01*
Y2492300D01*
Y2445714D01*
X3527145Y2449917D01*
X3609800D01*
Y2410300D01*
X3672500D01*
Y2490700D01*
X3697900D01*
Y2410300D01*
X3749217D01*
Y2395700D01*
X3615200D01*
Y2384510D01*
X3607500Y2375000D01*
X3602500Y2375000D01*
X3441820D01*
X3381099Y2439057D01*
X3380647Y2439377D01*
X3380339Y2439838D01*
X3374164Y2443964D01*
X3368109Y2448248D01*
X3367568Y2448371D01*
X3367108Y2448679D01*
X3359831Y2450126D01*
X3352590Y2451769D01*
X3352044Y2451675D01*
X3351500Y2451783D01*
X3336148D01*
X3326938Y2467735D01*
X3309735Y2484939D01*
X3288664Y2497103D01*
X3265164Y2503400D01*
X3240835D01*
X3217335Y2497103D01*
X3196265Y2484939D01*
X3179061Y2467735D01*
X3166897Y2446665D01*
X3160600Y2423165D01*
Y2398836D01*
X3166897Y2375335D01*
X3179061Y2354265D01*
X3196265Y2337062D01*
X3217335Y2324897D01*
X3240835Y2318600D01*
X3265164D01*
X3288664Y2324897D01*
X3309735Y2337062D01*
X3326938Y2354265D01*
X3330013Y2359591D01*
X3342625Y2361080D01*
X3382500Y2319014D01*
Y2255000D01*
X3473230D01*
X3478090Y2243267D01*
X3432607Y2197783D01*
X3336148D01*
X3326938Y2213735D01*
X3309735Y2230939D01*
X3288664Y2243103D01*
X3265164Y2249400D01*
X3240835D01*
X3217335Y2243103D01*
X3196265Y2230939D01*
X3179061Y2213735D01*
X3166897Y2192665D01*
X3160600Y2169165D01*
Y2144836D01*
X3166897Y2121335D01*
X3179061Y2100265D01*
X3196265Y2083062D01*
X3217335Y2070897D01*
X3240835Y2064600D01*
X3265164D01*
X3288664Y2070897D01*
X3309735Y2083062D01*
X3326938Y2100265D01*
X3336147Y2116216D01*
X3449499D01*
X3449500Y2116216D01*
X3465107Y2119321D01*
X3478338Y2128161D01*
X3563911Y2213734D01*
X3563912Y2213735D01*
X3572753Y2226966D01*
X3575857Y2242573D01*
Y2246020D01*
X3584837Y2255000D01*
X3606992Y2255000D01*
X3615200Y2245700D01*
X3615708Y2245700D01*
X3755200D01*
Y2269481D01*
X3827844D01*
X3830703Y2265202D01*
X3838648Y2259894D01*
X3848020Y2258029D01*
X3956980D01*
X3966352Y2259894D01*
X3974297Y2265202D01*
X3979606Y2273148D01*
X3981471Y2282520D01*
Y2305720D01*
X3994171Y2309573D01*
X3996162Y2306593D01*
X4019593Y2283162D01*
X4019593Y2283162D01*
X4032824Y2274321D01*
X4048432Y2271216D01*
X4070684D01*
X4074703Y2265202D01*
X4082648Y2259894D01*
X4092020Y2258029D01*
X4200980D01*
X4210352Y2259894D01*
X4218297Y2265202D01*
X4222316Y2271216D01*
X4240116D01*
Y2221200D01*
X4115900D01*
Y2216384D01*
X4078648D01*
X4075954Y2217500D01*
X4059046D01*
X4054903Y2215783D01*
X3845000D01*
X3829393Y2212679D01*
X3816162Y2203838D01*
X3754360Y2142037D01*
X3745520Y2128806D01*
X3742415Y2113199D01*
X3742415Y2113197D01*
Y2063000D01*
X3720900D01*
Y1980600D01*
X3695500D01*
Y2063000D01*
X3690900D01*
Y1980600D01*
X3665500D01*
Y2063000D01*
X3637800D01*
Y2038833D01*
X3625100Y2032570D01*
X3618725Y2037462D01*
X3600383Y2045059D01*
X3593400Y2045979D01*
Y1921600D01*
Y1797221D01*
X3600383Y1798140D01*
X3618725Y1805738D01*
X3634476Y1817824D01*
X3646562Y1833574D01*
X3654159Y1851916D01*
X3656751Y1871600D01*
Y1889384D01*
X3660657Y1890569D01*
X3664214Y1888467D01*
X3671700Y1880647D01*
Y1863157D01*
X3679693Y1843861D01*
X3694461Y1829092D01*
X3713757Y1821100D01*
X3734643D01*
X3753939Y1829092D01*
X3768707Y1843861D01*
X3776700Y1863157D01*
Y1884043D01*
X3773860Y1890900D01*
X3782346Y1903600D01*
X3857613D01*
Y1791800D01*
X3857613Y1791799D01*
X3859942Y1780094D01*
X3866572Y1770170D01*
X3953371Y1683372D01*
X3953371Y1683371D01*
X3963295Y1676741D01*
X3975000Y1674412D01*
X3975001Y1674412D01*
X4094999D01*
X4095000Y1674412D01*
X4106706Y1676741D01*
X4116629Y1683371D01*
X4209829Y1776571D01*
X4209829Y1776571D01*
X4216460Y1786495D01*
X4218788Y1798200D01*
Y1903600D01*
X4244054D01*
X4252540Y1890900D01*
X4249700Y1884043D01*
Y1863157D01*
X4257693Y1843861D01*
X4272461Y1829092D01*
X4291757Y1821100D01*
X4312643D01*
X4331939Y1829092D01*
X4346707Y1843861D01*
X4354700Y1863157D01*
Y1884043D01*
X4354329Y1884937D01*
X4361925Y1895518D01*
X4371449Y1894282D01*
Y1870000D01*
X4374041Y1850316D01*
X4381638Y1831974D01*
X4393724Y1816224D01*
X4409475Y1804138D01*
X4427817Y1796540D01*
X4434800Y1795621D01*
Y1920000D01*
Y2044379D01*
X4427817Y2043459D01*
X4409475Y2035862D01*
X4401300Y2029589D01*
X4388600Y2035852D01*
Y2063000D01*
X4360900D01*
Y1980600D01*
X4335500D01*
Y2063000D01*
X4330900D01*
Y1980600D01*
X4305500D01*
Y2063000D01*
X4282227D01*
X4280879Y2069776D01*
X4272038Y2083007D01*
X4272037Y2083007D01*
X4235578Y2119467D01*
X4240438Y2131200D01*
X4335900D01*
Y2135417D01*
X4389506D01*
X4396546Y2132500D01*
X4413454D01*
X4420495Y2135417D01*
X4426907D01*
X4564216Y1998107D01*
Y1567001D01*
X4564216Y1567000D01*
X4567321Y1551393D01*
X4576162Y1538162D01*
X4684600Y1429723D01*
Y1302600D01*
X4869400D01*
Y1354216D01*
X4964998D01*
X4965000Y1354216D01*
X4980607Y1357321D01*
X4993838Y1366161D01*
X5066338Y1438661D01*
X5066338Y1438662D01*
X5075179Y1451893D01*
X5078284Y1467500D01*
X5078283Y1467501D01*
Y7014501D01*
X5075179Y7030108D01*
X5066338Y7043339D01*
X5066338Y7043340D01*
X4869400Y7240278D01*
Y7249164D01*
X4863103Y7272665D01*
X4850939Y7293735D01*
X4833735Y7310938D01*
X4812665Y7323103D01*
X4789165Y7329400D01*
X4764836D01*
X4741335Y7323103D01*
X4720265Y7310938D01*
X4703062Y7293735D01*
X4690897Y7272665D01*
X4684600Y7249164D01*
Y7224835D01*
X4690897Y7201335D01*
X4703062Y7180265D01*
X4720265Y7163061D01*
X4741335Y7150897D01*
X4764836Y7144600D01*
X4789165D01*
X4812665Y7150897D01*
X4832168Y7162156D01*
X4996716Y6997608D01*
Y6583554D01*
X4984983Y6578694D01*
X4864633Y6699044D01*
X4869400Y6716835D01*
Y6741164D01*
X4863103Y6764665D01*
X4850939Y6785735D01*
X4833735Y6802938D01*
X4812665Y6815103D01*
X4789165Y6821400D01*
X4764836D01*
X4741335Y6815103D01*
X4720265Y6802938D01*
X4703062Y6785735D01*
X4693853Y6769783D01*
X4499449D01*
X4490401Y6778600D01*
X4490401Y6782484D01*
Y6859799D01*
X4396501D01*
X4302601D01*
Y6782484D01*
X4302600Y6778600D01*
X4293552Y6769783D01*
X4183284D01*
Y6793855D01*
X4196841Y6801682D01*
X4213318Y6818159D01*
X4224970Y6838340D01*
X4231001Y6860848D01*
Y6884151D01*
X4224970Y6906659D01*
X4213318Y6926840D01*
X4196841Y6943317D01*
X4176660Y6954969D01*
X4154152Y6961000D01*
X4130849D01*
X4115729Y6956948D01*
X3586339Y7486338D01*
X3573108Y7495179D01*
X3570518Y7495694D01*
X3557500Y7498284D01*
D02*
G37*
G36*
X3491600Y2538886D02*
X3477167Y2532908D01*
X3463692Y2519433D01*
X3457714Y2505000D01*
X3491600D01*
Y2538886D01*
D02*
G37*
G36*
Y2479600D02*
X3457714D01*
X3463692Y2465167D01*
X3477167Y2451693D01*
X3491600Y2445714D01*
Y2479600D01*
D02*
G37*
G36*
X3568000Y2045979D02*
X3561016Y2045059D01*
X3542675Y2037462D01*
X3526924Y2025376D01*
X3514838Y2009625D01*
X3507241Y1991284D01*
X3504649Y1971600D01*
Y1934300D01*
X3568000D01*
Y2045979D01*
D02*
G37*
G36*
X4460200Y2044379D02*
Y1932700D01*
X4523551D01*
Y1970000D01*
X4520959Y1989684D01*
X4513362Y2008025D01*
X4501276Y2023776D01*
X4485525Y2035862D01*
X4467184Y2043459D01*
X4460200Y2044379D01*
D02*
G37*
G36*
X3265875Y2000800D02*
X3265700D01*
Y1915700D01*
X3350799D01*
Y1915876D01*
X3344135Y1940749D01*
X3331259Y1963051D01*
X3313050Y1981259D01*
X3290749Y1994135D01*
X3265875Y2000800D01*
D02*
G37*
G36*
X3240300D02*
X3240124D01*
X3215250Y1994135D01*
X3192949Y1981259D01*
X3174740Y1963051D01*
X3161865Y1940749D01*
X3155200Y1915876D01*
Y1915700D01*
X3240300D01*
Y2000800D01*
D02*
G37*
G36*
X3350799Y1890300D02*
X3265700D01*
Y1805200D01*
X3265875D01*
X3290749Y1811865D01*
X3313050Y1824741D01*
X3331259Y1842950D01*
X3344135Y1865251D01*
X3350799Y1890125D01*
Y1890300D01*
D02*
G37*
G36*
X3240300D02*
X3155200D01*
Y1890125D01*
X3161865Y1865251D01*
X3174740Y1842950D01*
X3192949Y1824741D01*
X3215250Y1811865D01*
X3240124Y1805200D01*
X3240300D01*
Y1890300D01*
D02*
G37*
G36*
X3568000Y1908900D02*
X3504649D01*
Y1871600D01*
X3507241Y1851916D01*
X3514838Y1833574D01*
X3526924Y1817824D01*
X3542675Y1805738D01*
X3561016Y1798140D01*
X3568000Y1797221D01*
Y1908900D01*
D02*
G37*
G36*
X4523551Y1907300D02*
X4460200D01*
Y1795621D01*
X4467184Y1796540D01*
X4485525Y1804138D01*
X4501276Y1816224D01*
X4513362Y1831974D01*
X4520959Y1850316D01*
X4523551Y1870000D01*
Y1907300D01*
D02*
G37*
G36*
X3265875Y1746800D02*
X3265700D01*
Y1661700D01*
X3350799D01*
Y1661876D01*
X3344135Y1686749D01*
X3331259Y1709051D01*
X3313050Y1727259D01*
X3290749Y1740135D01*
X3265875Y1746800D01*
D02*
G37*
G36*
X3240300D02*
X3240124D01*
X3215250Y1740135D01*
X3192949Y1727259D01*
X3174740Y1709051D01*
X3161865Y1686749D01*
X3155200Y1661876D01*
Y1661700D01*
X3240300D01*
Y1746800D01*
D02*
G37*
G36*
X3350799Y1636300D02*
X3265700D01*
Y1551200D01*
X3265875D01*
X3290749Y1557865D01*
X3313050Y1570741D01*
X3331259Y1588950D01*
X3344135Y1611251D01*
X3350799Y1636125D01*
Y1636300D01*
D02*
G37*
G36*
X3240300D02*
X3155200D01*
Y1636125D01*
X3161865Y1611251D01*
X3174740Y1588950D01*
X3192949Y1570741D01*
X3215250Y1557865D01*
X3240124Y1551200D01*
X3240300D01*
Y1636300D01*
D02*
G37*
G36*
X4458400Y1617935D02*
Y1516300D01*
X4516708D01*
Y1548600D01*
X4514288Y1566978D01*
X4507194Y1584104D01*
X4495910Y1598810D01*
X4481204Y1610094D01*
X4464078Y1617188D01*
X4458400Y1617935D01*
D02*
G37*
G36*
X3593400D02*
Y1516300D01*
X3651707D01*
Y1548600D01*
X3649288Y1566978D01*
X3642194Y1584104D01*
X3630910Y1598810D01*
X3616204Y1610094D01*
X3599078Y1617188D01*
X3593400Y1617935D01*
D02*
G37*
G36*
X4433000D02*
X4427322Y1617188D01*
X4410196Y1610094D01*
X4395490Y1598810D01*
X4384206Y1584104D01*
X4377112Y1566978D01*
X4374693Y1548600D01*
Y1516300D01*
X4433000D01*
Y1617935D01*
D02*
G37*
G36*
X3568000D02*
X3562322Y1617188D01*
X3545196Y1610094D01*
X3530490Y1598810D01*
X3519206Y1584104D01*
X3512112Y1566978D01*
X3509692Y1548600D01*
Y1516300D01*
X3568000D01*
Y1617935D01*
D02*
G37*
G36*
X4516708Y1490900D02*
X4458400D01*
Y1389264D01*
X4464078Y1390012D01*
X4481204Y1397106D01*
X4495910Y1408390D01*
X4507194Y1423096D01*
X4514288Y1440222D01*
X4516708Y1458600D01*
Y1490900D01*
D02*
G37*
G36*
X3651707D02*
X3593400D01*
Y1389264D01*
X3599078Y1390012D01*
X3616204Y1397106D01*
X3630910Y1408390D01*
X3642194Y1423096D01*
X3649288Y1440222D01*
X3651707Y1458600D01*
Y1490900D01*
D02*
G37*
G36*
X4433000D02*
X4374693D01*
Y1458600D01*
X4377112Y1440222D01*
X4384206Y1423096D01*
X4395490Y1408390D01*
X4410196Y1397106D01*
X4427322Y1390012D01*
X4433000Y1389264D01*
Y1490900D01*
D02*
G37*
G36*
X3568000D02*
X3509692D01*
Y1458600D01*
X3512112Y1440222D01*
X3519206Y1423096D01*
X3530490Y1408390D01*
X3545196Y1397106D01*
X3562322Y1390012D01*
X3568000Y1389264D01*
Y1490900D01*
D02*
G37*
%LPD*%
G36*
X4703062Y6672265D02*
X4720265Y6655061D01*
X4741335Y6642897D01*
X4764836Y6636600D01*
X4789165D01*
X4806956Y6641367D01*
X4934216Y6514107D01*
Y4582597D01*
X4932500Y4578454D01*
Y4561546D01*
X4938970Y4545926D01*
X4950926Y4533970D01*
X4966546Y4527500D01*
X4983454D01*
X4986157Y4528620D01*
X4996716Y4521564D01*
Y1484393D01*
X4948106Y1435783D01*
X4869400D01*
Y1487400D01*
X4742277D01*
X4645783Y1583893D01*
Y2014999D01*
X4645784Y2015000D01*
X4642679Y2030607D01*
X4633838Y2043838D01*
X4472638Y2205039D01*
X4459407Y2213879D01*
X4443800Y2216984D01*
X4443799Y2216984D01*
X4414700D01*
X4413454Y2217500D01*
X4396546D01*
X4395300Y2216984D01*
X4335900D01*
Y2221200D01*
X4321683D01*
Y2271216D01*
X4347700D01*
Y2245700D01*
X4487700D01*
Y2395700D01*
X4347700D01*
Y2352783D01*
X4280201D01*
X4280200Y2352784D01*
X4280199Y2352783D01*
X4235777D01*
X4228720Y2364993D01*
X4228781Y2365483D01*
X4230976Y2376520D01*
Y2393300D01*
X4146500D01*
Y2418700D01*
X4230976D01*
Y2435480D01*
X4228693Y2446959D01*
X4222190Y2456691D01*
X4221110Y2457412D01*
X4223606Y2461148D01*
X4225471Y2470520D01*
Y2489024D01*
X4227654Y2500000D01*
X4225471Y2510976D01*
Y2529480D01*
X4223606Y2538852D01*
X4218297Y2546798D01*
X4210352Y2552106D01*
X4200980Y2553971D01*
X4092020D01*
X4082648Y2552106D01*
X4074703Y2546798D01*
X4070684Y2540784D01*
X4048432D01*
X4032824Y2537679D01*
X4019593Y2528838D01*
X4019593Y2528838D01*
X3996162Y2505407D01*
X3994171Y2502427D01*
X3981471Y2506280D01*
Y2529480D01*
X3979606Y2538852D01*
X3974297Y2546798D01*
X3966352Y2552106D01*
X3956980Y2553971D01*
X3848020D01*
X3843484Y2553068D01*
X3830784Y2560963D01*
Y2939216D01*
X3907403D01*
X3911546Y2937500D01*
X3928454D01*
X3944074Y2943970D01*
X3956030Y2955926D01*
X3962500Y2971546D01*
Y2988454D01*
X3956030Y3004074D01*
X3944074Y3016030D01*
X3928454Y3022500D01*
X3911546D01*
X3907403Y3020783D01*
X3672597D01*
X3668454Y3022500D01*
X3651546D01*
X3650986Y3022268D01*
X3643792Y3033034D01*
X3683259Y3072501D01*
X3747502D01*
Y3269248D01*
X3841625Y3363370D01*
X3841626Y3363371D01*
X3885628Y3407374D01*
X3885629Y3407374D01*
X3892259Y3417298D01*
X3894588Y3429003D01*
X3902310Y3438567D01*
X3913073Y3440708D01*
X3922798Y3447206D01*
X3929296Y3456931D01*
X3931578Y3468402D01*
Y3538320D01*
X4024345Y3631087D01*
X4024346Y3631088D01*
X4026552Y3634390D01*
X4031574Y3636470D01*
X4043530Y3648426D01*
X4046217Y3654913D01*
X4058917Y3652387D01*
Y3630402D01*
X4061617Y3616824D01*
X4069309Y3605313D01*
X4080820Y3597621D01*
X4094398Y3594920D01*
X4123298D01*
Y3668002D01*
Y3741084D01*
X4094398D01*
X4080820Y3738383D01*
X4069309Y3730691D01*
X4061617Y3719180D01*
X4058917Y3705602D01*
Y3692613D01*
X4046217Y3690087D01*
X4043530Y3696574D01*
X4031574Y3708530D01*
X4015954Y3715000D01*
X3999046D01*
X3983426Y3708530D01*
X3971470Y3696574D01*
X3965000Y3680954D01*
Y3664046D01*
X3966696Y3659953D01*
X3888320Y3581578D01*
X3847848D01*
X3842988Y3593311D01*
X3948838Y3699161D01*
X3948838Y3699162D01*
X3957679Y3712393D01*
X3960784Y3728000D01*
Y3812403D01*
X3962500Y3816546D01*
Y3833454D01*
X3960784Y3837597D01*
Y3924999D01*
X3960784Y3925000D01*
X3957679Y3940607D01*
X3953612Y3946694D01*
X3972679Y3965761D01*
X3984412Y3960901D01*
Y3948236D01*
X3984412Y3948235D01*
X3986741Y3936529D01*
X3993371Y3926606D01*
X4166193Y3753784D01*
X4160933Y3741084D01*
X4148698D01*
Y3668002D01*
Y3594920D01*
X4177598D01*
X4191177Y3597621D01*
X4202688Y3605313D01*
X4210379Y3616824D01*
X4213080Y3630402D01*
Y3632723D01*
X4217222Y3634892D01*
X4225780Y3636616D01*
X4235926Y3626470D01*
X4251546Y3620000D01*
X4268454D01*
X4276712Y3623421D01*
X4289412Y3615215D01*
Y3450001D01*
X4289412Y3450000D01*
X4291741Y3438295D01*
X4298371Y3428371D01*
X4374412Y3352330D01*
Y3317901D01*
X4352698D01*
Y3192502D01*
Y3067101D01*
X4374412D01*
Y2885101D01*
X4352299D01*
Y2759701D01*
X4339599D01*
Y2747001D01*
X4281699D01*
Y2644872D01*
X4265367Y2638107D01*
X4251892Y2624633D01*
X4245914Y2610200D01*
X4292500D01*
Y2597500D01*
X4305200D01*
Y2550914D01*
X4319633Y2556893D01*
X4329600Y2566859D01*
X4342300Y2561899D01*
Y2503400D01*
X4417700D01*
X4493100D01*
Y2555682D01*
X4505800Y2560943D01*
X4556912Y2509830D01*
Y2152501D01*
X4556912Y2152500D01*
X4559241Y2140795D01*
X4565871Y2130871D01*
X4720035Y1976708D01*
X4703062Y1959735D01*
X4690897Y1938665D01*
X4684600Y1915164D01*
Y1890835D01*
X4690897Y1867335D01*
X4703062Y1846265D01*
X4720265Y1829061D01*
X4741335Y1816897D01*
X4764836Y1810600D01*
X4789165D01*
X4812665Y1816897D01*
X4833735Y1829061D01*
X4850939Y1846265D01*
X4863103Y1867335D01*
X4869400Y1890835D01*
Y1915164D01*
X4863103Y1938665D01*
X4850939Y1959735D01*
X4833735Y1976938D01*
X4812665Y1989103D01*
X4789165Y1995400D01*
X4783193D01*
X4782852Y1997113D01*
X4776222Y2007036D01*
X4776221Y2007037D01*
X4618088Y2165170D01*
Y2255056D01*
X4622587Y2258031D01*
X4630788Y2259955D01*
X4693526Y2197217D01*
X4690897Y2192665D01*
X4684600Y2169164D01*
Y2144835D01*
X4690897Y2121335D01*
X4703062Y2100265D01*
X4720265Y2083061D01*
X4741335Y2070897D01*
X4764836Y2064600D01*
X4789165D01*
X4812665Y2070897D01*
X4833735Y2083061D01*
X4850939Y2100265D01*
X4863103Y2121335D01*
X4869400Y2144835D01*
Y2169164D01*
X4863103Y2192665D01*
X4850939Y2213735D01*
X4833735Y2230938D01*
X4812665Y2243103D01*
X4789165Y2249400D01*
X4764836D01*
X4741335Y2243103D01*
X4736783Y2240475D01*
X4680898Y2296360D01*
Y2367254D01*
X4693598Y2370657D01*
X4703062Y2354265D01*
X4720265Y2337061D01*
X4741335Y2324897D01*
X4764836Y2318600D01*
X4789165D01*
X4812665Y2324897D01*
X4833735Y2337061D01*
X4850939Y2354265D01*
X4863103Y2375335D01*
X4869400Y2398835D01*
Y2423164D01*
X4863103Y2446665D01*
X4850939Y2467735D01*
X4833735Y2484938D01*
X4812665Y2497103D01*
X4789165Y2503400D01*
X4785890D01*
X4785102Y2507363D01*
X4778472Y2517287D01*
X4778471Y2517287D01*
X4718126Y2577632D01*
X4725924Y2587794D01*
X4741335Y2578897D01*
X4764836Y2572600D01*
X4789165D01*
X4812665Y2578897D01*
X4833735Y2591061D01*
X4850939Y2608265D01*
X4863103Y2629335D01*
X4869400Y2652835D01*
Y2677164D01*
X4863103Y2700665D01*
X4850939Y2721735D01*
X4833735Y2738938D01*
X4812665Y2751103D01*
X4789165Y2757400D01*
X4764836D01*
X4757755Y2755502D01*
X4568088Y2945170D01*
Y3068061D01*
X4579821Y3072921D01*
X4693526Y2959217D01*
X4690897Y2954665D01*
X4684600Y2931164D01*
Y2906835D01*
X4690897Y2883335D01*
X4703062Y2862265D01*
X4720265Y2845061D01*
X4741335Y2832897D01*
X4764836Y2826600D01*
X4789165D01*
X4812665Y2832897D01*
X4833735Y2845061D01*
X4850939Y2862265D01*
X4863103Y2883335D01*
X4869400Y2906835D01*
Y2931164D01*
X4863103Y2954665D01*
X4850939Y2975735D01*
X4833735Y2992938D01*
X4812665Y3005103D01*
X4789165Y3011400D01*
X4764836D01*
X4741335Y3005103D01*
X4736783Y3002475D01*
X4615588Y3123670D01*
Y3279539D01*
X4628288Y3284800D01*
X4695848Y3217240D01*
X4690897Y3208665D01*
X4684600Y3185164D01*
Y3160835D01*
X4690897Y3137335D01*
X4703062Y3116265D01*
X4720265Y3099061D01*
X4741335Y3086897D01*
X4764836Y3080600D01*
X4789165D01*
X4812665Y3086897D01*
X4833735Y3099061D01*
X4850939Y3116265D01*
X4863103Y3137335D01*
X4869400Y3160835D01*
Y3185164D01*
X4863103Y3208665D01*
X4850939Y3229735D01*
X4833735Y3246938D01*
X4812665Y3259103D01*
X4789165Y3265400D01*
X4764836D01*
X4741335Y3259103D01*
X4740806Y3258797D01*
X4668087Y3331516D01*
Y3475694D01*
X4680787Y3480954D01*
X4693891Y3467851D01*
X4690897Y3462665D01*
X4684600Y3439164D01*
Y3414835D01*
X4690897Y3391335D01*
X4703062Y3370265D01*
X4720265Y3353061D01*
X4741335Y3340897D01*
X4764836Y3334600D01*
X4789165D01*
X4812665Y3340897D01*
X4833735Y3353061D01*
X4850939Y3370265D01*
X4863103Y3391335D01*
X4869400Y3414835D01*
Y3439164D01*
X4863103Y3462665D01*
X4850939Y3483735D01*
X4833735Y3500938D01*
X4812665Y3513103D01*
X4789165Y3519400D01*
X4764836D01*
X4741335Y3513103D01*
X4737417Y3510840D01*
X4643088Y3605170D01*
Y3759561D01*
X4654821Y3764421D01*
X4695173Y3724070D01*
X4690897Y3716665D01*
X4684600Y3693164D01*
Y3668835D01*
X4690897Y3645335D01*
X4703062Y3624265D01*
X4720265Y3607061D01*
X4741335Y3594897D01*
X4764836Y3588600D01*
X4789165D01*
X4812665Y3594897D01*
X4833735Y3607061D01*
X4850939Y3624265D01*
X4863103Y3645335D01*
X4869400Y3668835D01*
Y3693164D01*
X4863103Y3716665D01*
X4850939Y3737735D01*
X4833735Y3754938D01*
X4812665Y3767103D01*
X4789165Y3773400D01*
X4764836D01*
X4741335Y3767103D01*
X4739636Y3766121D01*
X4688088Y3817670D01*
Y3878801D01*
X4700788Y3882204D01*
X4703062Y3878265D01*
X4720265Y3861061D01*
X4741335Y3848897D01*
X4764836Y3842600D01*
X4789165D01*
X4812665Y3848897D01*
X4833735Y3861061D01*
X4850939Y3878265D01*
X4863103Y3899335D01*
X4869400Y3922835D01*
Y3947164D01*
X4863103Y3970665D01*
X4850939Y3991735D01*
X4833735Y4008938D01*
X4812665Y4021103D01*
X4789165Y4027400D01*
X4764836D01*
X4741335Y4021103D01*
X4736783Y4018475D01*
X4648251Y4107007D01*
X4638327Y4113638D01*
X4626622Y4115966D01*
X4626620Y4115966D01*
X4561838D01*
X4531126Y4146679D01*
X4535986Y4158412D01*
X4689537D01*
X4690897Y4153335D01*
X4703062Y4132265D01*
X4720265Y4115061D01*
X4741335Y4102897D01*
X4764836Y4096600D01*
X4789165D01*
X4812665Y4102897D01*
X4833735Y4115061D01*
X4850939Y4132265D01*
X4863103Y4153335D01*
X4869400Y4176835D01*
Y4201164D01*
X4863103Y4224665D01*
X4850939Y4245735D01*
X4833735Y4262938D01*
X4812665Y4275103D01*
X4789165Y4281400D01*
X4764836D01*
X4741335Y4275103D01*
X4720265Y4262938D01*
X4703062Y4245735D01*
X4690897Y4224665D01*
X4689537Y4219587D01*
X4538243D01*
X4537859Y4220149D01*
X4458505Y4299503D01*
X4476465Y4317463D01*
X4547196Y4246732D01*
X4552337Y4254427D01*
X4554234Y4263962D01*
X4554789Y4264072D01*
X4562563Y4269267D01*
X4577412Y4284115D01*
X4582606Y4291889D01*
X4584430Y4301058D01*
X4582606Y4310227D01*
X4577412Y4318001D01*
X4567795Y4327618D01*
X4600109Y4359933D01*
X4600110Y4359933D01*
X4608951Y4373164D01*
X4612055Y4388772D01*
X4612055Y4388773D01*
Y4401878D01*
X4659931Y4449754D01*
X4664074Y4451470D01*
X4672801Y4460197D01*
X4681851Y4456337D01*
X4684600Y4454036D01*
Y4430835D01*
X4690897Y4407335D01*
X4703062Y4386265D01*
X4720265Y4369061D01*
X4741335Y4356897D01*
X4764836Y4350600D01*
X4789165D01*
X4812665Y4356897D01*
X4833735Y4369061D01*
X4850939Y4386265D01*
X4863103Y4407335D01*
X4869400Y4430835D01*
Y4455164D01*
X4863103Y4478665D01*
X4850939Y4499735D01*
X4833735Y4516938D01*
X4812665Y4529103D01*
X4807348Y4530528D01*
Y4533683D01*
X4807348Y4533684D01*
X4805019Y4545389D01*
X4798389Y4555313D01*
X4798388Y4555313D01*
X4759656Y4594045D01*
X4767062Y4604600D01*
X4789165D01*
X4812665Y4610897D01*
X4833735Y4623061D01*
X4850939Y4640265D01*
X4863103Y4661335D01*
X4869400Y4684835D01*
Y4709164D01*
X4863103Y4732665D01*
X4850939Y4753735D01*
X4833735Y4770938D01*
X4812665Y4783103D01*
X4789165Y4789400D01*
X4765859D01*
X4736130Y4819129D01*
X4726206Y4825759D01*
X4714501Y4828088D01*
X4714500Y4828088D01*
X4563284D01*
X4558424Y4839821D01*
X4639015Y4920412D01*
X4689537D01*
X4690897Y4915335D01*
X4703062Y4894265D01*
X4720265Y4877061D01*
X4741335Y4864897D01*
X4764836Y4858600D01*
X4789165D01*
X4812665Y4864897D01*
X4833735Y4877061D01*
X4850939Y4894265D01*
X4863103Y4915335D01*
X4869400Y4938835D01*
Y4963164D01*
X4863103Y4986665D01*
X4850939Y5007735D01*
X4833735Y5024938D01*
X4812665Y5037103D01*
X4789165Y5043400D01*
X4764836D01*
X4741335Y5037103D01*
X4720265Y5024938D01*
X4703062Y5007735D01*
X4690897Y4986665D01*
X4689537Y4981587D01*
X4638951D01*
X4633690Y4994287D01*
X4754715Y5115312D01*
X4764836Y5112600D01*
X4789165D01*
X4812665Y5118897D01*
X4833735Y5131061D01*
X4850939Y5148265D01*
X4863103Y5169335D01*
X4869400Y5192835D01*
Y5217164D01*
X4863103Y5240665D01*
X4850939Y5261735D01*
X4833735Y5278938D01*
X4812665Y5291103D01*
X4789165Y5297400D01*
X4764836D01*
X4741335Y5291103D01*
X4720265Y5278938D01*
X4704888Y5263561D01*
X4692188Y5266143D01*
Y5330930D01*
X4736783Y5375525D01*
X4741335Y5372897D01*
X4764836Y5366600D01*
X4789165D01*
X4812665Y5372897D01*
X4833735Y5385061D01*
X4850939Y5402265D01*
X4863103Y5423335D01*
X4869400Y5446835D01*
Y5471164D01*
X4863103Y5494665D01*
X4850939Y5515735D01*
X4833735Y5532938D01*
X4812665Y5545103D01*
X4789165Y5551400D01*
X4764836D01*
X4741335Y5545103D01*
X4720265Y5532938D01*
X4703062Y5515735D01*
X4690897Y5494665D01*
X4684600Y5471164D01*
Y5446835D01*
X4690897Y5423335D01*
X4693526Y5418783D01*
X4652321Y5377578D01*
X4640588Y5382438D01*
Y5495328D01*
X4765859Y5620600D01*
X4789165D01*
X4812665Y5626897D01*
X4833735Y5639061D01*
X4850939Y5656265D01*
X4863103Y5677335D01*
X4869400Y5700835D01*
Y5725164D01*
X4863103Y5748665D01*
X4850939Y5769735D01*
X4833735Y5786938D01*
X4812665Y5799103D01*
X4789165Y5805400D01*
X4764836D01*
X4741335Y5799103D01*
X4720265Y5786938D01*
X4703062Y5769735D01*
X4690897Y5748665D01*
X4688288Y5738926D01*
X4675588Y5740598D01*
Y5784329D01*
X4765859Y5874600D01*
X4789165D01*
X4812665Y5880897D01*
X4833735Y5893061D01*
X4850939Y5910265D01*
X4863103Y5931335D01*
X4869400Y5954835D01*
Y5979164D01*
X4863103Y6002665D01*
X4850939Y6023735D01*
X4833735Y6040938D01*
X4812665Y6053103D01*
X4789165Y6059400D01*
X4764836D01*
X4741335Y6053103D01*
X4720265Y6040938D01*
X4703062Y6023735D01*
X4690897Y6002665D01*
X4684600Y5979164D01*
Y5954835D01*
X4690897Y5931335D01*
X4703062Y5910265D01*
X4709035Y5904291D01*
X4639821Y5835077D01*
X4628088Y5839938D01*
Y6015764D01*
X4745977Y6133653D01*
X4764836Y6128600D01*
X4789165D01*
X4812665Y6134897D01*
X4833735Y6147061D01*
X4850939Y6164265D01*
X4863103Y6185335D01*
X4869400Y6208835D01*
Y6233164D01*
X4863103Y6256665D01*
X4850939Y6277735D01*
X4833735Y6294938D01*
X4812665Y6307103D01*
X4789165Y6313400D01*
X4764836D01*
X4741335Y6307103D01*
X4720265Y6294938D01*
X4703062Y6277735D01*
X4690897Y6256665D01*
X4684600Y6233164D01*
Y6208835D01*
X4690897Y6185335D01*
X4698308Y6172500D01*
X4614056Y6088248D01*
X4602323Y6093108D01*
Y6104549D01*
X4549623D01*
Y6051850D01*
X4561791D01*
X4568917Y6040649D01*
X4569044Y6039150D01*
X4566912Y6028434D01*
X4566912Y6028433D01*
Y5947422D01*
X4560775Y5944550D01*
X4554212Y5943529D01*
X4542135Y5955606D01*
X4527702Y5961585D01*
Y5914999D01*
Y5868413D01*
X4542135Y5874391D01*
X4554212Y5886469D01*
X4560775Y5885448D01*
X4566912Y5882575D01*
Y5774952D01*
X4554212Y5772426D01*
X4553530Y5774074D01*
X4541574Y5786030D01*
X4525954Y5792500D01*
X4509046D01*
X4493426Y5786030D01*
X4487984Y5780588D01*
X4482600D01*
X4482599Y5780588D01*
X4470894Y5778259D01*
X4460970Y5771629D01*
X4460970Y5771628D01*
X4296441Y5607099D01*
X4069699D01*
X4061719Y5616494D01*
X4061629Y5616629D01*
X4046292Y5631966D01*
X4053486Y5642732D01*
X4054046Y5642500D01*
X4070954D01*
X4086574Y5648970D01*
X4098530Y5660926D01*
X4105000Y5676546D01*
Y5691007D01*
X4106227Y5692235D01*
X4106228Y5692235D01*
X4112858Y5702159D01*
X4115187Y5713864D01*
Y5859700D01*
X4137100D01*
Y6099700D01*
X4115588D01*
Y6292500D01*
X4137500D01*
Y6532501D01*
X4032500D01*
Y6292500D01*
X4054413D01*
Y6099700D01*
X4032100D01*
Y5859700D01*
X4054011D01*
Y5727485D01*
X4038426Y5721030D01*
X4026470Y5709074D01*
X4020000Y5693454D01*
Y5676546D01*
X4020232Y5675987D01*
X4009465Y5668793D01*
X3831629Y5846629D01*
X3821706Y5853259D01*
X3810000Y5855588D01*
X3809999Y5855588D01*
X3754516D01*
X3749074Y5861030D01*
X3733454Y5867500D01*
X3716546D01*
X3700926Y5861030D01*
X3688970Y5849074D01*
X3682500Y5833454D01*
Y5831218D01*
X3669800Y5825958D01*
X3660588Y5835170D01*
Y6132500D01*
Y6405754D01*
X3658259Y6417459D01*
X3651629Y6427383D01*
X3651628Y6427383D01*
X3527495Y6551516D01*
X3532756Y6564216D01*
X3843550D01*
X3847693Y6562500D01*
X3864601D01*
X3868744Y6564216D01*
X4142499D01*
X4142500Y6564216D01*
X4158107Y6567321D01*
X4171338Y6576162D01*
X4171339Y6576162D01*
X4180180Y6589393D01*
X4183284Y6605001D01*
Y6688216D01*
X4693853D01*
X4703062Y6672265D01*
D02*
G37*
G36*
X4566912Y5725048D02*
Y5664743D01*
X4503371Y5601202D01*
X4496741Y5591279D01*
X4494412Y5579574D01*
X4494412Y5579572D01*
Y5215882D01*
X4239226Y4960696D01*
X4230584Y4961547D01*
X4158267Y4889230D01*
X4087536Y4818499D01*
X4095231Y4813358D01*
X4104766Y4811461D01*
X4104877Y4810905D01*
X4110071Y4803132D01*
X4122243Y4790960D01*
X4124854Y4775610D01*
X4103371Y4754128D01*
X4096741Y4744204D01*
X4094412Y4732499D01*
X4094412Y4732498D01*
Y4667670D01*
X4054242Y4627500D01*
X4046546D01*
X4030926Y4621030D01*
X4018970Y4609074D01*
X4012500Y4593454D01*
Y4576546D01*
X4018970Y4560926D01*
X4030926Y4548970D01*
X4046546Y4542500D01*
X4063454D01*
X4079074Y4548970D01*
X4091030Y4560926D01*
X4097500Y4576546D01*
Y4584242D01*
X4146628Y4633371D01*
X4146629Y4633371D01*
X4153259Y4643295D01*
X4155588Y4655000D01*
X4155588Y4655001D01*
Y4719829D01*
X4168110Y4732351D01*
X4183461Y4729741D01*
X4195630Y4717572D01*
X4203404Y4712378D01*
X4209692Y4711127D01*
X4210943Y4704839D01*
X4216137Y4697066D01*
X4230986Y4682217D01*
X4238759Y4677023D01*
X4245047Y4675772D01*
X4246298Y4669484D01*
X4251492Y4661711D01*
X4266341Y4646862D01*
X4274115Y4641668D01*
X4280402Y4640417D01*
X4281653Y4634129D01*
X4286847Y4626355D01*
X4301696Y4611506D01*
X4309470Y4606312D01*
X4315758Y4605061D01*
X4317009Y4598773D01*
X4322203Y4591000D01*
X4337052Y4576151D01*
X4344825Y4570957D01*
X4346084Y4566253D01*
X4335435Y4556917D01*
X4330200Y4559086D01*
Y4525200D01*
X4364086D01*
X4359874Y4535368D01*
X4370641Y4542562D01*
X4372407Y4540796D01*
X4380180Y4535602D01*
X4386468Y4534351D01*
X4387719Y4528063D01*
X4392913Y4520289D01*
X4407762Y4505440D01*
X4415536Y4500246D01*
X4421824Y4498995D01*
X4423075Y4492707D01*
X4428269Y4484934D01*
X4443118Y4470085D01*
X4450891Y4464891D01*
X4460060Y4463067D01*
X4469230Y4464891D01*
X4477003Y4470085D01*
X4563767Y4556849D01*
X4619245D01*
X4625925Y4550169D01*
X4641546Y4543699D01*
X4658453D01*
X4674073Y4550169D01*
X4686029Y4562124D01*
X4687229Y4565023D01*
X4699686Y4567500D01*
X4731898Y4535288D01*
X4730240Y4522697D01*
X4720265Y4516938D01*
X4703062Y4499735D01*
X4695200Y4486117D01*
X4682500Y4489520D01*
Y4495954D01*
X4676030Y4511574D01*
X4664074Y4523530D01*
X4648454Y4530000D01*
X4631546D01*
X4615926Y4523530D01*
X4603970Y4511574D01*
X4602254Y4507431D01*
X4542433Y4447610D01*
X4533592Y4434379D01*
X4530488Y4418771D01*
X4530488Y4418770D01*
Y4405665D01*
X4510118Y4385295D01*
X4477003Y4418410D01*
X4469230Y4423604D01*
X4460060Y4425428D01*
X4450891Y4423604D01*
X4443118Y4418410D01*
X4430947Y4406239D01*
X4415597Y4403629D01*
X4348088Y4471138D01*
Y4475347D01*
X4358107Y4485367D01*
X4364086Y4499800D01*
X4270914D01*
X4273908Y4492572D01*
X4263142Y4485378D01*
X4212952Y4535567D01*
X4217500Y4546546D01*
Y4563454D01*
X4211030Y4579074D01*
X4199074Y4591030D01*
X4183454Y4597500D01*
X4166546D01*
X4150926Y4591030D01*
X4138970Y4579074D01*
X4132500Y4563454D01*
Y4546546D01*
X4138970Y4530926D01*
X4150352Y4519544D01*
X4151495Y4513802D01*
X4158125Y4503879D01*
X4169599Y4492405D01*
X4167121Y4479949D01*
X4164222Y4478748D01*
X4152267Y4466793D01*
X4145797Y4451172D01*
Y4434265D01*
X4152267Y4418644D01*
X4164222Y4406689D01*
X4179843Y4400219D01*
X4191071D01*
X4204839Y4386451D01*
X4204840Y4386450D01*
X4301629Y4289661D01*
X4299019Y4274311D01*
X4286847Y4262140D01*
X4281653Y4254366D01*
X4280402Y4248078D01*
X4274115Y4246827D01*
X4266341Y4241633D01*
X4251492Y4226784D01*
X4246298Y4219011D01*
X4245047Y4212723D01*
X4238759Y4211472D01*
X4230986Y4206278D01*
X4216137Y4191429D01*
X4210943Y4183655D01*
X4209692Y4177367D01*
X4203404Y4176116D01*
X4195630Y4170922D01*
X4180781Y4156073D01*
X4175587Y4148300D01*
X4174336Y4142012D01*
X4168049Y4140761D01*
X4160275Y4135567D01*
X4145426Y4120718D01*
X4140232Y4112945D01*
X4138981Y4106657D01*
X4132693Y4105406D01*
X4124920Y4100212D01*
X4110071Y4085363D01*
X4104877Y4077589D01*
X4103626Y4071301D01*
X4097338Y4070051D01*
X4089564Y4064856D01*
X4074715Y4050008D01*
X4069521Y4042234D01*
X4068739Y4038303D01*
X4056930Y4032814D01*
X4045588Y4037718D01*
Y4230364D01*
X4058288Y4238850D01*
X4061546Y4237500D01*
X4078454D01*
X4094074Y4243970D01*
X4106030Y4255926D01*
X4112500Y4271546D01*
Y4288454D01*
X4106030Y4304074D01*
X4094074Y4316030D01*
X4078454Y4322500D01*
X4070758D01*
X3906629Y4486629D01*
X3896705Y4493259D01*
X3885000Y4495588D01*
X3884999Y4495588D01*
X3626811D01*
X3625694Y4497050D01*
X3622130Y4508288D01*
X3634132Y4520289D01*
X3639326Y4528063D01*
X3640577Y4534351D01*
X3646864Y4535602D01*
X3654638Y4540796D01*
X3669487Y4555644D01*
X3674681Y4563418D01*
X3675932Y4569706D01*
X3682220Y4570957D01*
X3689993Y4576151D01*
X3704842Y4591000D01*
X3710036Y4598773D01*
X3711287Y4605061D01*
X3717575Y4606312D01*
X3725349Y4611506D01*
X3740197Y4626355D01*
X3750574Y4627377D01*
X3762500Y4615451D01*
Y4606546D01*
X3768970Y4590926D01*
X3780926Y4578970D01*
X3796546Y4572500D01*
X3813454D01*
X3829074Y4578970D01*
X3841030Y4590926D01*
X3847500Y4606546D01*
Y4623454D01*
X3841030Y4639074D01*
X3829074Y4651030D01*
X3813454Y4657500D01*
X3806966D01*
X3796937Y4667529D01*
X3796059Y4682217D01*
X3810908Y4697066D01*
X3825881Y4696615D01*
X3917394Y4605103D01*
Y4602564D01*
X3923864Y4586943D01*
X3935819Y4574988D01*
X3951440Y4568517D01*
X3968347D01*
X3983968Y4574988D01*
X3995923Y4586943D01*
X4002393Y4602564D01*
Y4619471D01*
X3995923Y4635091D01*
X3989539Y4641475D01*
X3988128Y4658024D01*
X3991030Y4660926D01*
X3997500Y4676546D01*
Y4693454D01*
X3991030Y4709074D01*
X3979074Y4721029D01*
X3976108Y4736004D01*
X3981030Y4740926D01*
X3987500Y4756546D01*
Y4773453D01*
X3981030Y4789074D01*
X3969074Y4801030D01*
X3953454Y4807500D01*
X3950377D01*
X3940192Y4818876D01*
X3941346Y4827503D01*
X3952330Y4838487D01*
X3957524Y4846261D01*
X3958775Y4852549D01*
X3965062Y4853800D01*
X3972836Y4858994D01*
X3987685Y4873842D01*
X3992879Y4881616D01*
X3994703Y4890785D01*
X3992879Y4899954D01*
X3987685Y4907728D01*
X3959109Y4936304D01*
X4061629Y5038823D01*
X4068259Y5048747D01*
X4070588Y5060452D01*
Y5327099D01*
X4169111D01*
Y5306338D01*
X4160148Y5297375D01*
X4153678Y5281755D01*
Y5264848D01*
X4160148Y5249227D01*
X4172104Y5237272D01*
X4187724Y5230802D01*
X4204631D01*
X4220252Y5237272D01*
X4232207Y5249227D01*
X4238678Y5264848D01*
Y5281755D01*
X4232207Y5297375D01*
X4230286Y5299297D01*
Y5327099D01*
X4329698D01*
Y5554382D01*
X4331327Y5555470D01*
X4491627Y5715770D01*
X4493426Y5713970D01*
X4509046Y5707500D01*
X4525954D01*
X4541574Y5713970D01*
X4553530Y5725926D01*
X4554212Y5727574D01*
X4566912Y5725048D01*
D02*
G37*
G36*
X3599412Y5822501D02*
X3599412Y5822500D01*
X3601741Y5810795D01*
X3608371Y5800871D01*
X3700871Y5708372D01*
X3700871Y5708371D01*
X3710795Y5701741D01*
X3722500Y5699412D01*
X3722502Y5699412D01*
X3819830D01*
X3900410Y5618833D01*
X3895549Y5607099D01*
X3711658D01*
X3547301Y5771457D01*
Y5779152D01*
X3540830Y5794773D01*
X3528875Y5806728D01*
X3513254Y5813198D01*
X3496347D01*
X3493448Y5811998D01*
X3482888Y5819054D01*
Y6061945D01*
X3482889Y6061946D01*
X3482792Y6062432D01*
X3490849Y6072249D01*
X3564424D01*
Y6101661D01*
X3599412D01*
Y5822501D01*
D02*
G37*
G36*
X3949412Y5569198D02*
Y5207670D01*
X3841317Y5099575D01*
X3829613Y5105831D01*
X3830286Y5109216D01*
Y5327099D01*
X3929698D01*
Y5570976D01*
X3941165Y5575929D01*
X3949412Y5569198D01*
D02*
G37*
G36*
X3669698Y5562544D02*
Y5327099D01*
X3769111D01*
Y5127500D01*
X3769046D01*
X3753426Y5121030D01*
X3741470Y5109074D01*
X3735000Y5093454D01*
Y5076546D01*
X3741470Y5060926D01*
X3753426Y5048970D01*
X3767459Y5043158D01*
X3770125Y5039623D01*
X3773809Y5029800D01*
X3771741Y5026705D01*
X3769412Y5015000D01*
X3769412Y5014999D01*
Y4995700D01*
X3757679Y4990840D01*
X3585586Y5162933D01*
Y5628432D01*
X3585586Y5628433D01*
X3585521Y5628760D01*
X3597226Y5635016D01*
X3669698Y5562544D01*
D02*
G37*
G36*
X3984412Y4247330D02*
Y4039320D01*
X3971990Y4033626D01*
X3963688Y4038926D01*
X3962610Y4044341D01*
X3957469Y4052036D01*
X3886738Y3981305D01*
X3868778Y3999265D01*
X3939509Y4069996D01*
X3931814Y4075137D01*
X3922279Y4077034D01*
X3922168Y4077589D01*
X3916974Y4085363D01*
X3902126Y4100212D01*
X3900995Y4111686D01*
X3904327Y4115018D01*
X3904328Y4115018D01*
X3910959Y4124942D01*
X3913287Y4136647D01*
Y4204786D01*
X3918729Y4210228D01*
X3925199Y4225848D01*
Y4242756D01*
X3918729Y4258376D01*
X3906773Y4270332D01*
X3891153Y4276802D01*
X3874246D01*
X3858625Y4270332D01*
X3846670Y4258376D01*
X3840200Y4242756D01*
Y4225848D01*
X3846670Y4210228D01*
X3852112Y4204786D01*
Y4168186D01*
X3839412Y4162926D01*
X3831415Y4170922D01*
X3823641Y4176116D01*
X3823086Y4176227D01*
X3821189Y4185762D01*
X3816048Y4193457D01*
X3745317Y4122726D01*
X3727357Y4140686D01*
X3798087Y4211417D01*
X3790393Y4216558D01*
X3780858Y4218455D01*
X3780747Y4219011D01*
X3775553Y4226784D01*
X3760704Y4241633D01*
X3752931Y4246827D01*
X3746642Y4248078D01*
X3745392Y4254366D01*
X3740197Y4262140D01*
X3725349Y4276989D01*
X3717575Y4282183D01*
X3711287Y4283434D01*
X3710036Y4289721D01*
X3704842Y4297495D01*
X3689993Y4312344D01*
X3689371Y4318668D01*
X3732615Y4361912D01*
X3869830D01*
X3984412Y4247330D01*
D02*
G37*
G36*
X3731912Y3828775D02*
Y3732670D01*
X3607373Y3608130D01*
X3604733Y3607871D01*
X3596574Y3616030D01*
X3580954Y3622500D01*
X3564046D01*
X3548426Y3616030D01*
X3536470Y3604074D01*
X3530000Y3588454D01*
Y3571546D01*
X3530120Y3571257D01*
X3529241Y3569940D01*
X3526912Y3558235D01*
X3526912Y3558234D01*
Y3497500D01*
X3508088D01*
Y3626621D01*
X3554128Y3672661D01*
X3554129Y3672662D01*
X3560759Y3682585D01*
X3563088Y3694291D01*
X3563088Y3694292D01*
Y3752715D01*
X3567192Y3754869D01*
X3575788Y3756608D01*
X3585926Y3746470D01*
X3601546Y3740000D01*
X3618454D01*
X3634074Y3746470D01*
X3646030Y3758426D01*
X3647746Y3762569D01*
X3719212Y3834036D01*
X3731912Y3828775D01*
D02*
G37*
G36*
X3814142Y3911820D02*
X3823702Y3905433D01*
X3833237Y3903536D01*
X3833348Y3902981D01*
X3838542Y3895207D01*
X3853391Y3880358D01*
X3861164Y3875164D01*
X3870333Y3873340D01*
X3879217Y3866050D01*
Y3837597D01*
X3877500Y3833454D01*
Y3816546D01*
X3879217Y3812403D01*
Y3744893D01*
X3715901Y3581578D01*
X3685296D01*
X3680036Y3594278D01*
X3784129Y3698371D01*
X3790759Y3708295D01*
X3793088Y3720000D01*
X3793088Y3720001D01*
Y3914914D01*
X3805788Y3920175D01*
X3814142Y3911820D01*
D02*
G37*
G36*
X3642502Y3210151D02*
Y3118260D01*
X3563371Y3039129D01*
X3556741Y3029205D01*
X3554412Y3017500D01*
X3554412Y3017499D01*
Y2935001D01*
X3554412Y2935000D01*
X3556741Y2923295D01*
X3563371Y2913371D01*
X3642102Y2834640D01*
Y2790289D01*
X3487500D01*
Y2793454D01*
X3481030Y2809074D01*
X3469074Y2821030D01*
X3453454Y2827500D01*
X3438718D01*
X3434475Y2833492D01*
X3432490Y2839233D01*
X3496628Y2903371D01*
X3496629Y2903371D01*
X3503259Y2913295D01*
X3505588Y2925000D01*
X3505588Y2925002D01*
Y3089830D01*
X3630769Y3215011D01*
X3642502Y3210151D01*
D02*
G37*
G36*
X4704035Y2722708D02*
X4703062Y2721735D01*
X4690897Y2700665D01*
X4684600Y2677164D01*
Y2652835D01*
X4690897Y2629335D01*
X4699795Y2613924D01*
X4689632Y2606126D01*
X4525588Y2770170D01*
Y2884561D01*
X4537321Y2889421D01*
X4704035Y2722708D01*
D02*
G37*
G36*
X4157613Y1810870D02*
X4082330Y1735588D01*
X3987670D01*
X3918789Y1804469D01*
Y1851360D01*
X3930522Y1856220D01*
X3943371Y1843372D01*
X3943371Y1843371D01*
X3953295Y1836741D01*
X3959363Y1835534D01*
X3965926Y1828970D01*
X3981547Y1822500D01*
X3998454D01*
X4014074Y1828970D01*
X4020637Y1835533D01*
X4026705Y1836741D01*
X4036629Y1843371D01*
X4059826Y1866569D01*
X4059827Y1866569D01*
X4066457Y1876493D01*
X4068786Y1888198D01*
X4068786Y1888199D01*
Y1903600D01*
X4157613D01*
Y1810870D01*
D02*
G37*
%LPC*%
G36*
X4789876Y6572800D02*
X4789700D01*
Y6487699D01*
X4874800D01*
Y6487875D01*
X4868135Y6512749D01*
X4855260Y6535050D01*
X4837051Y6553259D01*
X4814750Y6566135D01*
X4789876Y6572800D01*
D02*
G37*
G36*
X4764300D02*
X4764125D01*
X4739251Y6566135D01*
X4716950Y6553259D01*
X4698741Y6535050D01*
X4685865Y6512749D01*
X4679200Y6487875D01*
Y6487699D01*
X4764300D01*
Y6572800D01*
D02*
G37*
G36*
X4357900Y6537901D02*
X4312700D01*
Y6425200D01*
X4357900D01*
Y6537901D01*
D02*
G37*
G36*
X4287300D02*
X4242100D01*
Y6425200D01*
X4287300D01*
Y6537901D01*
D02*
G37*
G36*
X4874800Y6462299D02*
X4789700D01*
Y6377200D01*
X4789876D01*
X4814750Y6383865D01*
X4837051Y6396741D01*
X4855260Y6414949D01*
X4868135Y6437251D01*
X4874800Y6462124D01*
Y6462299D01*
D02*
G37*
G36*
X4764300D02*
X4679200D01*
Y6462124D01*
X4685865Y6437251D01*
X4698741Y6414949D01*
X4716950Y6396741D01*
X4739251Y6383865D01*
X4764125Y6377200D01*
X4764300D01*
Y6462299D01*
D02*
G37*
G36*
X4357900Y6399800D02*
X4312700D01*
Y6287100D01*
X4357900D01*
Y6399800D01*
D02*
G37*
G36*
X4287300D02*
X4242100D01*
Y6287100D01*
X4287300D01*
Y6399800D01*
D02*
G37*
G36*
X4596923Y6342250D02*
X4476923D01*
Y6222250D01*
X4596923D01*
Y6342250D01*
D02*
G37*
G36*
X4602323Y6182650D02*
X4549623D01*
Y6129949D01*
X4602323D01*
Y6182650D01*
D02*
G37*
G36*
X4524223D02*
X4471523D01*
Y6129949D01*
X4524223D01*
Y6182650D01*
D02*
G37*
G36*
Y6104549D02*
X4471523D01*
Y6051850D01*
X4524223D01*
Y6104549D01*
D02*
G37*
G36*
X4357500Y6105100D02*
X4312300D01*
Y5992401D01*
X4357500D01*
Y6105100D01*
D02*
G37*
G36*
X4286900D02*
X4241700D01*
Y5992401D01*
X4286900D01*
Y6105100D01*
D02*
G37*
G36*
X4502302Y5961585D02*
X4487869Y5955606D01*
X4474394Y5942132D01*
X4468416Y5927699D01*
X4502302D01*
Y5961585D01*
D02*
G37*
G36*
Y5902299D02*
X4468416D01*
X4474394Y5887866D01*
X4487869Y5874391D01*
X4502302Y5868413D01*
Y5902299D01*
D02*
G37*
G36*
X4357500Y5967001D02*
X4312300D01*
Y5854300D01*
X4357500D01*
Y5967001D01*
D02*
G37*
G36*
X4286900D02*
X4241700D01*
Y5854300D01*
X4286900D01*
Y5967001D01*
D02*
G37*
G36*
X4177598Y3577578D02*
X4094398D01*
X4082927Y3575296D01*
X4073202Y3568798D01*
X4066704Y3559073D01*
X4064422Y3547602D01*
Y3472402D01*
X4066704Y3460931D01*
X4073202Y3451206D01*
X4082927Y3444708D01*
X4094398Y3442426D01*
X4105411D01*
Y3387535D01*
X4094851Y3380479D01*
X4092666Y3381384D01*
Y3334798D01*
X4079966D01*
Y3322098D01*
X4033381D01*
X4039359Y3307665D01*
X4052833Y3294190D01*
X4070439Y3286898D01*
X4072499D01*
Y3072501D01*
X4094412D01*
Y2879701D01*
X4072099D01*
Y2639701D01*
X4177099D01*
Y2879701D01*
X4155588D01*
Y3072501D01*
X4177499D01*
Y3312501D01*
X4166586D01*
Y3442426D01*
X4177598D01*
X4189070Y3444708D01*
X4198794Y3451206D01*
X4205293Y3460931D01*
X4207574Y3472402D01*
Y3547602D01*
X4205293Y3559073D01*
X4198794Y3568798D01*
X4189070Y3575296D01*
X4177598Y3577578D01*
D02*
G37*
G36*
X4067266Y3381384D02*
X4052833Y3375405D01*
X4039359Y3361931D01*
X4033381Y3347498D01*
X4067266D01*
Y3381384D01*
D02*
G37*
G36*
X4327298Y3317901D02*
X4282099D01*
Y3205202D01*
X4327298D01*
Y3317901D01*
D02*
G37*
G36*
X3967902D02*
X3922702D01*
Y3205201D01*
X3967902D01*
Y3317901D01*
D02*
G37*
G36*
X3897302D02*
X3852102D01*
Y3205201D01*
X3897302D01*
Y3317901D01*
D02*
G37*
G36*
X4327298Y3179802D02*
X4282099D01*
Y3067101D01*
X4327298D01*
Y3179802D01*
D02*
G37*
G36*
X3967902Y3179801D02*
X3922702D01*
Y3067101D01*
X3967902D01*
Y3179801D01*
D02*
G37*
G36*
X3897302D02*
X3852102D01*
Y3067101D01*
X3897302D01*
Y3179801D01*
D02*
G37*
G36*
X3967502Y2885101D02*
X3922302D01*
Y2772401D01*
X3967502D01*
Y2885101D01*
D02*
G37*
G36*
X4326899D02*
X4281699D01*
Y2772401D01*
X4326899D01*
Y2885101D01*
D02*
G37*
G36*
X3896902D02*
X3851702D01*
Y2772401D01*
X3896902D01*
Y2885101D01*
D02*
G37*
G36*
X3967502Y2747001D02*
X3922302D01*
Y2634301D01*
X3967502D01*
Y2747001D01*
D02*
G37*
G36*
X3896902D02*
X3851702D01*
Y2634301D01*
X3896902D01*
Y2747001D01*
D02*
G37*
G36*
X4279800Y2584800D02*
X4245914D01*
X4251892Y2570367D01*
X4265367Y2556893D01*
X4279800Y2550914D01*
Y2584800D01*
D02*
G37*
G36*
X4493100Y2478000D02*
X4430400D01*
Y2410300D01*
X4493100D01*
Y2478000D01*
D02*
G37*
G36*
X4405000D02*
X4342300D01*
Y2410300D01*
X4405000D01*
Y2478000D01*
D02*
G37*
G36*
X4789876Y1746800D02*
X4789700D01*
Y1661700D01*
X4874800D01*
Y1661875D01*
X4868135Y1686749D01*
X4855260Y1709050D01*
X4837051Y1727259D01*
X4814750Y1740135D01*
X4789876Y1746800D01*
D02*
G37*
G36*
X4764300D02*
X4764125D01*
X4739251Y1740135D01*
X4716950Y1727259D01*
X4698741Y1709050D01*
X4685865Y1686749D01*
X4679200Y1661875D01*
Y1661700D01*
X4764300D01*
Y1746800D01*
D02*
G37*
G36*
X4874800Y1636300D02*
X4789700D01*
Y1551200D01*
X4789876D01*
X4814750Y1557865D01*
X4837051Y1570741D01*
X4855260Y1588949D01*
X4868135Y1611251D01*
X4874800Y1636124D01*
Y1636300D01*
D02*
G37*
G36*
X4764300D02*
X4679200D01*
Y1636124D01*
X4685865Y1611251D01*
X4698741Y1588949D01*
X4716950Y1570741D01*
X4739251Y1557865D01*
X4764125Y1551200D01*
X4764300D01*
Y1636300D01*
D02*
G37*
G36*
X4240954Y5105000D02*
X4224046D01*
X4208426Y5098530D01*
X4196470Y5086574D01*
X4191423Y5074387D01*
X4082266Y4965231D01*
X4073425Y4951999D01*
X4070891Y4939259D01*
X4039360Y4907728D01*
X4034166Y4899954D01*
X4032342Y4890785D01*
X4034166Y4881616D01*
X4039360Y4873842D01*
X4054209Y4858994D01*
X4061982Y4853800D01*
X4062538Y4853689D01*
X4064435Y4844154D01*
X4069576Y4836459D01*
X4140307Y4907190D01*
X4212624Y4979507D01*
X4212559Y4980170D01*
X4260381Y5027993D01*
X4260382Y5027993D01*
X4264983Y5034879D01*
X4268530Y5038426D01*
X4275000Y5054046D01*
Y5070954D01*
X4268530Y5086574D01*
X4256574Y5098530D01*
X4240954Y5105000D01*
D02*
G37*
G36*
X4304800Y4559086D02*
X4290367Y4553107D01*
X4276892Y4539633D01*
X4270914Y4525200D01*
X4304800D01*
Y4559086D01*
D02*
G37*
%LPD*%
D10*
X3472373Y5159389D02*
G03*
X3472359Y5162027I-239439J-1D01*
G01*
X3504801Y5770699D02*
X3804049Y5471450D01*
X3799698Y5109216D02*
Y5467099D01*
X3777500Y5085000D02*
Y5087018D01*
X3799698Y5109216D01*
X4199698Y5477099D02*
X4299699Y5577099D01*
X4309699D01*
X4482599Y5750000D02*
X4517500D01*
X4309699Y5577099D02*
X4482599Y5750000D01*
X4199698Y5276822D02*
Y5477099D01*
X4196178Y5273301D02*
X4199698Y5276822D01*
X3722500Y5730000D02*
X3832500D01*
X3980000Y5195000D02*
Y5582500D01*
X3832500Y5730000D02*
X3980000Y5582500D01*
X3630000Y5822500D02*
X3722500Y5730000D01*
X3630000Y5822500D02*
Y6132500D01*
X3725000Y5825000D02*
X3810000D01*
X4040000Y5595000D01*
Y5060452D02*
Y5595000D01*
X4062500Y5691765D02*
X4084599Y5713864D01*
Y5979700D01*
X4062500Y5685000D02*
Y5691765D01*
X3800000Y5015000D02*
X3980000Y5195000D01*
X3913113Y4933565D02*
X4040000Y5060452D01*
X3800000Y4975968D02*
Y5015000D01*
X4517500Y3540000D02*
Y3834204D01*
X4255353Y4096351D02*
X4517500Y3834204D01*
X4260000Y3662500D02*
Y3703235D01*
X4015000Y3948235D02*
X4260000Y3703235D01*
X4015000Y3948235D02*
Y4260000D01*
X3572500Y3573235D02*
Y3580000D01*
X3557500Y3437500D02*
Y3558235D01*
X3572500Y3573235D01*
X4648761Y4587436D02*
X4649999Y4586198D01*
X4545620Y4587436D02*
X4648761D01*
X4502840Y4544656D02*
X4545620Y4587436D01*
X4776760Y4443240D02*
X4777000Y4443000D01*
X4490265Y4665017D02*
X4538436Y4713188D01*
X4570217Y4652717D02*
X4575000Y4657500D01*
X4467489Y4580012D02*
X4467489D01*
X4540193Y4652717D01*
X4776760Y4443240D02*
Y4533684D01*
X4597256Y4713188D02*
X4776760Y4533684D01*
X4538436Y4713188D02*
X4597256D01*
X4540193Y4652717D02*
X4570217D01*
X3253000Y4189000D02*
X3369371D01*
X3524209Y4343838D01*
X3402989Y4592990D02*
X3470215D01*
X3253000Y4443000D02*
X3402989Y4592990D01*
X3253000Y4951000D02*
X3256143Y4947856D01*
X3262431D01*
X3594917Y4615369D01*
X3480000Y4800995D02*
Y4955000D01*
X3253000Y5182001D02*
Y5205000D01*
Y5182001D02*
X3480000Y4955000D01*
X3420000Y5090000D02*
X3532500Y4977500D01*
X3420000Y5090000D02*
Y5292000D01*
X3532500Y4819204D02*
Y4977500D01*
X3480000Y4800995D02*
X3630274Y4650721D01*
X3842405Y4862857D02*
X3844774D01*
X3554998Y5150263D02*
Y5628433D01*
X3514999Y5119549D02*
Y5611865D01*
X3472373Y5159389D02*
X3472373Y5105607D01*
X3474798Y5103181D01*
X3514999Y5119549D02*
X3807048Y4827500D01*
X3554998Y5150263D02*
X3842405Y4862857D01*
X3474798Y5103181D02*
X3577500Y5000479D01*
X3467500Y5602795D02*
X3472358Y5162027D01*
X3577500Y4844917D02*
Y5000479D01*
X3253000Y5459000D02*
X3420000Y5292000D01*
X3370000Y6087679D02*
Y6358000D01*
X3253000Y6475000D02*
X3370000Y6358000D01*
Y6087679D02*
X3412301Y6045378D01*
X3372301Y5697994D02*
Y6022699D01*
X3268963Y6126038D02*
Y6205037D01*
Y6126038D02*
X3372301Y6022699D01*
X3253000Y6221000D02*
X3268963Y6205037D01*
X3412301Y5714563D02*
Y6045378D01*
X3452301Y5731131D02*
Y6061946D01*
X3415000Y6099247D02*
Y6487500D01*
Y6099247D02*
X3452301Y6061946D01*
X3264184Y6638316D02*
X3415000Y6487500D01*
X3372301Y5697994D02*
X3461642Y5608653D01*
X3253000Y6729000D02*
X3264184Y6717816D01*
Y6638316D02*
Y6717816D01*
X3461642Y5608653D02*
X3467500Y5602795D01*
X3452301Y5731131D02*
X3554998Y5628433D01*
X3412301Y5714563D02*
X3514999Y5611865D01*
X3807048Y4827500D02*
X3949548Y4685000D01*
X3452500Y6583254D02*
X3630000Y6405754D01*
X3452500Y6583254D02*
Y6745499D01*
X3630000Y6132500D02*
Y6405754D01*
X3504425Y6132249D02*
X3629749D01*
X3630000Y6132500D01*
X3800000Y4975968D02*
X3877758Y4898210D01*
X3253000Y6945000D02*
X3452500Y6745499D01*
X3253000Y6945000D02*
Y6983000D01*
X3532500Y4819204D02*
X3538358Y4813346D01*
X3665626Y4686078D01*
X3577500Y4844917D02*
X3700983Y4721435D01*
X3635000Y4885000D02*
X3639783Y4880217D01*
Y4853347D02*
Y4880217D01*
X3949548Y4685000D02*
X3955000D01*
X3518549Y4544656D02*
X3524209D01*
X3470215Y4592990D02*
X3518549Y4544656D01*
X3253000Y3935000D02*
X3271947Y3953948D01*
Y4020868D01*
X3559561Y4308481D01*
X3253000Y3681000D02*
X3392500Y3820501D01*
Y4070712D01*
X3253000Y3427000D02*
X3392500Y3566501D01*
Y3702500D01*
X3343684Y2921184D02*
X3427500Y3005000D01*
Y3207500D01*
X3477500Y3257500D01*
X3475000Y3102500D02*
X3629002Y3256501D01*
X3253000Y2703000D02*
X3475000Y2925000D01*
Y3102500D01*
X3392500Y4070712D02*
X3594917Y4273130D01*
X3440000Y3750000D02*
Y4047499D01*
X3392500Y3702500D02*
X3440000Y3750000D01*
Y4047499D02*
X3630274Y4237773D01*
X3490000Y4026791D02*
X3665625Y4202416D01*
X3435000Y3663395D02*
X3490000Y3718395D01*
Y4026791D01*
X3611657Y4007027D02*
X3736337Y4131706D01*
X3477500Y3639291D02*
X3532500Y3694291D01*
Y3998581D01*
X3700983Y4167064D01*
X3435000Y3355001D02*
Y3663395D01*
X3477500Y3335000D02*
Y3639291D01*
X3253000Y3173000D02*
X3435000Y3355001D01*
X3255183Y2921184D02*
X3343684D01*
X3253000Y2919000D02*
X3255183Y2921184D01*
X3253000Y2665000D02*
Y2703000D01*
X4184642Y4862854D02*
X4525000Y5203212D01*
Y5579574D02*
X4597500Y5652074D01*
X4525000Y5203212D02*
Y5579574D01*
X4610000Y5146791D02*
Y5507998D01*
X4777000Y5674999D01*
X4567500Y5175002D02*
Y5545000D01*
X4777000Y5674999D02*
Y5713000D01*
X4645000Y5622500D02*
Y5796999D01*
X4567500Y5545000D02*
X4645000Y5622500D01*
X4219998Y4833153D02*
X4225652D01*
X4645000Y5796999D02*
X4815001Y5967000D01*
X4597500Y5652074D02*
Y6028434D01*
X4790065Y6221000D01*
X4661600Y5343600D02*
X4777000Y5459000D01*
X4290710Y4756791D02*
X4661600Y5127682D01*
X4777000Y5459000D02*
X4815001D01*
X4661600Y5127682D02*
Y5343600D01*
X4255353Y4792144D02*
X4610000Y5146791D01*
X4777000Y5180855D02*
Y5205000D01*
X4375714Y4779569D02*
X4777000Y5180855D01*
X4326064Y4721433D02*
Y4727090D01*
X4375714Y4776740D01*
Y4779569D01*
X4225652Y4833153D02*
X4567500Y5175002D01*
X4487436Y4665017D02*
X4490265D01*
X4437787Y4615367D02*
X4487436Y4665017D01*
X4432130Y4615367D02*
X4437787D01*
X4396775Y4650721D02*
X4543554Y4797500D01*
X4714501D02*
X4777000Y4735001D01*
X4543554Y4797500D02*
X4714501D01*
X4777000Y4697000D02*
Y4735001D01*
X4657500Y3805000D02*
X4777000Y3685500D01*
Y3681000D02*
Y3685500D01*
X4361419Y4202417D02*
X4657500Y3906336D01*
Y3805000D02*
Y3906336D01*
X4425250Y4054750D02*
X4612500Y3867500D01*
X4326109Y4167017D02*
X4425250Y4054750D01*
X4612500Y3592500D02*
X4777000Y3427999D01*
X4612500Y3592500D02*
Y3867500D01*
X4333488Y4083269D02*
X4567500Y3842203D01*
Y3555000D02*
X4637500Y3485000D01*
X4567500Y3555000D02*
Y3842203D01*
X4517500Y3540000D02*
X4585000Y3472500D01*
X4290710Y4131708D02*
X4333488Y4083269D01*
X4637500Y3318846D02*
Y3485000D01*
X4585000Y3111000D02*
X4777000Y2919000D01*
X4585000Y3111000D02*
Y3472500D01*
X4537500Y2932500D02*
Y3450000D01*
X4465000Y3522500D02*
X4537500Y3450000D01*
Y2932500D02*
X4777000Y2692999D01*
X4637500Y3318846D02*
X4777000Y3179345D01*
X4465000Y3522500D02*
Y3815995D01*
X4220001Y4060994D02*
X4465000Y3815995D01*
X4495000Y2757500D02*
X4756843Y2495658D01*
X4495000Y2757500D02*
Y3415000D01*
X4417500Y3492500D02*
X4495000Y3415000D01*
X4417500Y3492500D02*
Y3792787D01*
X4450000Y2727500D02*
Y3397500D01*
X4367500Y3480000D02*
X4450000Y3397500D01*
X4367500Y3480000D02*
Y3772073D01*
X4184644Y4025642D02*
X4417500Y3792787D01*
X4450000Y2727500D02*
X4650310Y2527190D01*
X4777000Y3427000D02*
Y3427999D01*
X4149288Y3990285D02*
X4367500Y3772073D01*
X4405000Y2705000D02*
Y3365000D01*
X4320000Y3450000D02*
X4405000Y3365000D01*
Y2705000D02*
X4587500Y2522500D01*
X4113932Y3954930D02*
X4320000Y3748861D01*
Y3450000D02*
Y3748861D01*
X4777000Y3173000D02*
Y3179345D01*
X4326064Y4167062D02*
X4326109Y4167017D01*
X4549168Y4085378D02*
X4626622D01*
X4396774Y4237772D02*
X4549168Y4085378D01*
X4626622D02*
X4777000Y3935000D01*
X4226468Y4408080D02*
X4396775Y4237773D01*
X4587500Y2152500D02*
Y2522500D01*
X4650310Y2283690D02*
Y2527190D01*
X4756843Y2431157D02*
X4777000Y2411000D01*
X4756843Y2431157D02*
Y2495658D01*
X4777000Y2665000D02*
Y2692999D01*
X4587500Y2152500D02*
X4754593Y1985408D01*
Y1925407D02*
X4777000Y1903000D01*
X4754593Y1925407D02*
Y1985408D01*
X4650310Y2283690D02*
X4777000Y2157000D01*
X3585000Y2935000D02*
X3670299Y2849701D01*
X3694602Y2759701D02*
Y2827201D01*
X3672102Y2849701D02*
X3694602Y2827201D01*
X3670299Y2849701D02*
X3672102D01*
X3594917Y4615369D02*
Y4615369D01*
X4535000Y6284173D02*
X4536923Y6282250D01*
X4535000Y6284173D02*
Y6292500D01*
X3886601Y1988451D02*
Y2112500D01*
X3988489Y1987138D02*
Y2078489D01*
X4003171Y2093171D02*
X4043171D01*
X3988489Y2078489D02*
X4003171Y2093171D01*
X4076484Y2092238D02*
X4088200Y2080522D01*
Y1980600D02*
Y2080522D01*
X4047762Y2092238D02*
X4076484D01*
X4045000Y2095000D02*
X4047762Y2092238D01*
X3988201Y1986850D02*
X3988489Y1987138D01*
X4317500Y4458468D02*
Y4512500D01*
Y4458468D02*
X4467485Y4308483D01*
X3697071Y4021729D02*
X3771692Y4096351D01*
X3697071Y4007588D02*
Y4021729D01*
X3469216Y2759701D02*
X3694602D01*
X3445000Y2783917D02*
X3469216Y2759701D01*
X3445000Y2783917D02*
Y2785000D01*
X3694998Y3124998D02*
Y3260002D01*
X3672502Y3102501D02*
X3694998Y3124998D01*
X3585000Y2935000D02*
Y3017500D01*
X3670001Y3102501D01*
X3672502D01*
X3629002Y3256501D02*
Y3586502D01*
X3762500Y3720000D01*
Y3945737D01*
X3842403Y4025640D01*
X3477500Y3257500D02*
Y3335000D01*
X3557500D01*
X3882699Y4136647D02*
Y4234302D01*
X3807048Y4060995D02*
X3882699Y4136647D01*
X3864000Y3514002D02*
X3864002D01*
X4002717Y3667717D02*
X4007500Y3672500D01*
X3864002Y3514002D02*
X4002717Y3652717D01*
Y3667717D01*
X3864000Y3429003D02*
Y3510002D01*
X3819996Y3385000D02*
X3819997D01*
X3864000Y3429003D01*
Y3510002D02*
Y3514002D01*
X4219998Y4827496D02*
Y4827499D01*
X4125000Y4655000D02*
Y4732499D01*
X4219998Y4827496D01*
X4179754Y4525508D02*
X4516262Y4189000D01*
X4777000D01*
X4043171Y2093171D02*
X4045000Y2095000D01*
X4135998Y3203500D02*
Y3510002D01*
X3807048Y4060994D02*
X3807771D01*
X3719945Y4392500D02*
X3882500D01*
X4015000Y4260000D01*
X3600574Y4273130D02*
X3719945Y4392500D01*
X3885000Y4465000D02*
X4070000Y4280000D01*
X3603865Y4465000D02*
X3885000D01*
X4125000Y2760102D02*
Y3192502D01*
X4124599Y2759701D02*
X4125000Y2760102D01*
X3524209Y4544656D02*
X3603865Y4465000D01*
X3594917Y4273130D02*
X3600574D01*
X3965000Y1865000D02*
X3990000D01*
X3888201Y1791799D02*
X3975000Y1705000D01*
X3938198Y1891802D02*
X3965000Y1865000D01*
X3975000Y1705000D02*
X4095000D01*
X3888201Y1791799D02*
Y1986850D01*
X3938198Y1891802D02*
Y1986850D01*
X4055000Y4585000D02*
X4125000Y4655000D01*
X3700983Y4720226D02*
X3805000Y4616208D01*
X3700983Y4720226D02*
Y4721435D01*
X3805000Y4615000D02*
Y4616208D01*
X3694998Y3260002D02*
X3819996Y3385000D01*
X4188296Y4442719D02*
X4191829D01*
X4175000Y4555000D02*
X4179754Y4550246D01*
X4191829Y4442719D02*
X4226468Y4408080D01*
X4179754Y4525508D02*
Y4550246D01*
X4125000Y3192502D02*
X4135998Y3203500D01*
X4361423Y4686078D02*
X4626345Y4951000D01*
X4777000D01*
X4084599Y5979700D02*
X4085000Y5980101D01*
Y6412501D01*
X3253000Y4697000D02*
X3442573D01*
X3559561Y4580012D01*
X3639783Y4853347D02*
X3736339Y4756791D01*
X3771696Y4792143D02*
X3773611D01*
X3954737Y4611017D01*
X3959894D01*
X4188200Y1798200D02*
Y1986850D01*
X4095000Y1705000D02*
X4188200Y1798200D01*
X4226468Y4408080D02*
X4226468D01*
X3990000Y1865000D02*
X4015000D01*
X4038198Y1888198D01*
Y1986850D01*
X3844774Y4862857D02*
X3942630Y4765000D01*
X3945000D01*
D11*
X4199698Y5467099D02*
D03*
X3799698D02*
D03*
D12*
X4146500Y2312000D02*
D03*
Y2406000D02*
D03*
Y2500000D02*
D03*
X3902500D02*
D03*
Y2312000D02*
D03*
D13*
X3938200Y1980600D02*
D03*
X3888200D02*
D03*
X3988200D02*
D03*
X4348200D02*
D03*
X4318200D02*
D03*
X4268200D02*
D03*
X4238200D02*
D03*
X4188200D02*
D03*
X4138200D02*
D03*
X4088200D02*
D03*
X4038200D02*
D03*
X3678200D02*
D03*
X3708200D02*
D03*
X3758200D02*
D03*
X3788200D02*
D03*
X3838200D02*
D03*
D14*
X4280900Y2176200D02*
D03*
X4170900D02*
D03*
D15*
X3547500Y2315000D02*
D03*
X3557500Y3437500D02*
D03*
X3442500Y2315000D02*
D03*
X3504425Y6132249D02*
D03*
Y6297249D02*
D03*
X4536923Y6117250D02*
D03*
Y6282250D02*
D03*
X3557500Y3335000D02*
D03*
D16*
X3700981Y4721433D02*
D03*
X3559560Y4580012D02*
D03*
X3594915Y4615367D02*
D03*
X3630271Y4650722D02*
D03*
X3665626Y4686078D02*
D03*
X3736337Y4756789D02*
D03*
X3771692Y4792144D02*
D03*
X3807048Y4827499D02*
D03*
X3842403Y4862854D02*
D03*
X3877758Y4898210D02*
D03*
X3913113Y4933565D02*
D03*
X3524205Y4544656D02*
D03*
X4113932Y3954930D02*
D03*
X4149287Y3990285D02*
D03*
X4184642Y4025640D02*
D03*
X4219998Y4060995D02*
D03*
X4255353Y4096351D02*
D03*
X4290708Y4131706D02*
D03*
X4326064Y4167062D02*
D03*
X4361419Y4202417D02*
D03*
X4396774Y4237772D02*
D03*
X4432130Y4273128D02*
D03*
X4467485Y4308483D02*
D03*
X4502840Y4343838D02*
D03*
D17*
X3524205D02*
D03*
X4113932Y4933565D02*
D03*
X3559560Y4308483D02*
D03*
X4149287Y4898210D02*
D03*
X3594915Y4273128D02*
D03*
X3630271Y4237772D02*
D03*
X3665626Y4202417D02*
D03*
X3700981Y4167062D02*
D03*
X3736337Y4131706D02*
D03*
X3913113Y3954930D02*
D03*
X3877758Y3990285D02*
D03*
X3842403Y4025640D02*
D03*
X3807048Y4060995D02*
D03*
X3771692Y4096351D02*
D03*
X4184642Y4862854D02*
D03*
X4219998Y4827499D02*
D03*
X4255353Y4792144D02*
D03*
X4290708Y4756789D02*
D03*
X4326064Y4721433D02*
D03*
X4396774Y4650722D02*
D03*
X4432130Y4615367D02*
D03*
X4467485Y4580012D02*
D03*
X4502840Y4544656D02*
D03*
X4361419Y4686078D02*
D03*
D18*
X3706002Y3510002D02*
D03*
X3864002D02*
D03*
D19*
X4135998D02*
D03*
Y3668002D02*
D03*
D20*
X4417700Y2490700D02*
D03*
Y2320700D02*
D03*
X3685200Y2490700D02*
D03*
Y2320700D02*
D03*
D21*
X4084600Y5979700D02*
D03*
X4299600D02*
D03*
X4300000Y6412501D02*
D03*
X4085000D02*
D03*
X4124599Y2759701D02*
D03*
X4339599D02*
D03*
X4339999Y3192501D02*
D03*
X4124999D02*
D03*
X3694602Y2759701D02*
D03*
X3909602D02*
D03*
X3910002Y3192501D02*
D03*
X3695002D02*
D03*
D22*
X4815001Y7237000D02*
X5037500Y7014501D01*
X4975000Y4570000D02*
Y6531000D01*
X5037500Y1467500D02*
Y7014501D01*
X4965000Y1395000D02*
X5037500Y1467500D01*
X4777000Y6729000D02*
X4975000Y6531000D01*
X4571272Y4388772D02*
Y4418771D01*
X4640000Y4487500D01*
X3449500Y2157000D02*
X3535073Y2242573D01*
Y2302573D02*
X3547500Y2315000D01*
X3535073Y2242573D02*
Y2302573D01*
X3253000Y2157000D02*
X3449500D01*
X3505000Y6605000D02*
X3856147D01*
X4142500D01*
X4111104Y4936392D02*
X4231543Y5056832D01*
X3047500Y4567500D02*
Y7386568D01*
X3214999Y1395000D02*
X3253000D01*
X4142501Y6729000D02*
X4777000D01*
X4142501D02*
Y6872500D01*
Y6605001D02*
Y6729000D01*
X4605000Y1567000D02*
Y2015000D01*
Y1567000D02*
X4777000Y1395000D01*
X4965000D01*
X3047500Y4559547D02*
X3055000Y4567047D01*
X3047500Y1562499D02*
Y4559547D01*
X3055000Y4567047D02*
Y4568400D01*
X4067500Y2175000D02*
X4068100Y2175600D01*
X4170300D01*
X4170900Y2176200D01*
X4280900D02*
X4443800D01*
X3845000Y2175000D02*
X4067500D01*
X3783199Y2113199D02*
X3845000Y2175000D01*
X4178461Y2118908D02*
Y2171200D01*
Y2118908D02*
X4243200Y2054168D01*
X4173461Y2176200D02*
X4178461Y2171200D01*
X4243200Y2037600D02*
Y2054168D01*
Y2037600D02*
X4263200Y2017600D01*
X3783199Y1980000D02*
Y2113199D01*
X4280200Y2312000D02*
X4413900D01*
X4146500D02*
X4280200D01*
X4280900Y2311300D01*
Y2176200D02*
Y2311300D01*
X4443800Y2176200D02*
X4605000Y2015000D01*
X4146500Y2500000D02*
X4186870D01*
X4048432D02*
X4146500D01*
X4025000Y2476569D02*
X4048432Y2500000D01*
X4025000Y2335431D02*
Y2476569D01*
X4048432Y2312000D02*
X4146500D01*
X4025000Y2335431D02*
X4048432Y2312000D01*
X3790000Y2310265D02*
X3890918D01*
X3695635D02*
X3790000D01*
Y2980000D01*
X3685200Y2320700D02*
X3695635Y2310265D01*
X3697071Y3869571D02*
Y4007588D01*
X3610701Y3995198D02*
X3611657Y3996154D01*
X3610000Y3782500D02*
X3697071Y3869571D01*
X3504999Y2492500D02*
X3506799Y2490700D01*
X3685200D01*
X3253000Y2411000D02*
X3351500D01*
X3442500Y2315000D01*
X3047500Y7386568D02*
X3118431Y7457500D01*
X3047500Y1562499D02*
X3214999Y1395000D01*
X3915000Y3930000D02*
X3920000Y3925000D01*
X3706002Y3514002D02*
X3920000Y3728000D01*
Y3825000D02*
Y3925000D01*
Y3728000D02*
Y3825000D01*
X4525000Y4342500D02*
X4571272Y4388772D01*
X3118431Y7457500D02*
X3557500D01*
X4142501Y6872500D01*
X4231543Y5056832D02*
Y5061543D01*
X4232500Y5062500D01*
X3706002Y3510002D02*
Y3514002D01*
X3660000Y2980000D02*
X3920000D01*
X4142500Y6605000D02*
X4142501Y6605001D01*
D23*
X4318198Y1986850D02*
X4348200D01*
D24*
X3886601Y1988451D02*
X3888201Y1986850D01*
D25*
X4777000Y1395000D02*
D03*
X3253000Y1395000D02*
D03*
D26*
X4777000Y1649000D02*
D03*
Y1903000D02*
D03*
Y2157000D02*
D03*
Y2411000D02*
D03*
Y2665000D02*
D03*
Y2919000D02*
D03*
Y3173000D02*
D03*
Y3427000D02*
D03*
Y3681000D02*
D03*
Y3935000D02*
D03*
Y4189000D02*
D03*
Y4443000D02*
D03*
Y4697000D02*
D03*
Y4951000D02*
D03*
Y5205000D02*
D03*
Y5459000D02*
D03*
Y5713000D02*
D03*
Y5967000D02*
D03*
Y6221000D02*
D03*
Y6475000D02*
D03*
Y6729000D02*
D03*
Y6983000D02*
D03*
Y7237000D02*
D03*
X3253000Y1649000D02*
D03*
Y1903000D02*
D03*
Y2157000D02*
D03*
Y2411000D02*
D03*
Y2665000D02*
D03*
Y2919000D02*
D03*
Y3173000D02*
D03*
Y3427000D02*
D03*
Y3681000D02*
D03*
Y3935000D02*
D03*
Y4189000D02*
D03*
Y4443000D02*
D03*
Y4697000D02*
D03*
Y4951000D02*
D03*
Y5205000D02*
D03*
Y5459000D02*
D03*
Y5713000D02*
D03*
Y5967000D02*
D03*
Y6221000D02*
D03*
Y6475000D02*
D03*
Y6729000D02*
D03*
Y6983000D02*
D03*
Y7237000D02*
D03*
D27*
X4447500Y1920000D02*
D03*
X3580700Y1921600D02*
D03*
D28*
X4445700Y1503600D02*
D03*
X3580700D02*
D03*
D29*
X4302200Y1873600D02*
D03*
X3724200D02*
D03*
D30*
X3634501Y6872500D02*
D03*
X3888501D02*
D03*
X4142501D02*
D03*
D31*
X4396501D02*
D03*
D32*
X4062500Y5685000D02*
D03*
X3777500Y5085000D02*
D03*
X4515002Y5914999D02*
D03*
X4975000Y4570000D02*
D03*
X4260000Y3662500D02*
D03*
X4649999Y4586198D02*
D03*
X4575000Y4657500D02*
D03*
X4640000Y4487500D02*
D03*
X3505000Y6605000D02*
D03*
X3635000Y4885000D02*
D03*
X4517500Y5750000D02*
D03*
X3055000Y4568400D02*
D03*
X3504801Y5770699D02*
D03*
X4067500Y2175000D02*
D03*
X4405000D02*
D03*
X4292500Y2597500D02*
D03*
X3682500Y2600000D02*
D03*
X4535000Y6292500D02*
D03*
X3886601Y2112500D02*
D03*
X4317500Y4512500D02*
D03*
X3572500Y3580000D02*
D03*
X3920000Y3825000D02*
D03*
X3504300Y2492300D02*
D03*
X3610000Y3782500D02*
D03*
X3610701Y3995198D02*
D03*
X3882699Y4234302D02*
D03*
X4007500Y3672500D02*
D03*
X4196178Y5273301D02*
D03*
X4079966Y3334798D02*
D03*
X4232500Y5062500D02*
D03*
X4070000Y4280000D02*
D03*
X3660000Y2980000D02*
D03*
X3920000D02*
D03*
X3856147Y6605000D02*
D03*
X3445000Y2785000D02*
D03*
X4135998Y3510002D02*
D03*
X4045000Y2095000D02*
D03*
X3945000Y4765000D02*
D03*
X3805000Y4615000D02*
D03*
X4055000Y4585000D02*
D03*
X4188296Y4442719D02*
D03*
X4175000Y4555000D02*
D03*
X3725000Y5825000D02*
D03*
X3504425Y6297248D02*
D03*
X3959894Y4611017D02*
D03*
X3894300Y2502300D02*
D03*
X3990000Y1865000D02*
D03*
X3955000Y4685000D02*
D03*
%TF.MD5,dca67ba96bcd926a2fee5dd0f7ede9b5*%
M02*
