%TF.GenerationSoftware,Altium Limited,Altium Designer,22.10.1 (41)*%
G04 Layer_Physical_Order=2*
G04 Layer_Color=16711680*
%FSLAX45Y45*%
%MOMM*%
%TF.SameCoordinates,F1D13F34-3715-448E-B12D-83C564530F5A*%
%TF.FilePolarity,Positive*%
%TF.FileFunction,Copper,L2,Bot,Signal*%
%TF.Part,Single*%
G01*
G75*
%TA.AperFunction,Conductor*%
%ADD10C,0.20000*%
%TA.AperFunction,SMDPad,CuDef*%
%ADD15R,0.80000X0.80000*%
G04:AMPARAMS|DCode=18|XSize=0.94mm|YSize=1.02mm|CornerRadius=0.094mm|HoleSize=0mm|Usage=FLASHONLY|Rotation=0.000|XOffset=0mm|YOffset=0mm|HoleType=Round|Shape=RoundedRectangle|*
%AMROUNDEDRECTD18*
21,1,0.94000,0.83200,0,0,0.0*
21,1,0.75200,1.02000,0,0,0.0*
1,1,0.18800,0.37600,-0.41600*
1,1,0.18800,-0.37600,-0.41600*
1,1,0.18800,-0.37600,0.41600*
1,1,0.18800,0.37600,0.41600*
%
%ADD18ROUNDEDRECTD18*%
G04:AMPARAMS|DCode=19|XSize=0.94mm|YSize=1.02mm|CornerRadius=0.094mm|HoleSize=0mm|Usage=FLASHONLY|Rotation=90.000|XOffset=0mm|YOffset=0mm|HoleType=Round|Shape=RoundedRectangle|*
%AMROUNDEDRECTD19*
21,1,0.94000,0.83200,0,0,90.0*
21,1,0.75200,1.02000,0,0,90.0*
1,1,0.18800,0.41600,0.37600*
1,1,0.18800,0.41600,-0.37600*
1,1,0.18800,-0.41600,-0.37600*
1,1,0.18800,-0.41600,0.37600*
%
%ADD19ROUNDEDRECTD19*%
%ADD20R,1.00000X1.10000*%
%TA.AperFunction,Conductor*%
%ADD22C,0.40000*%
%ADD23C,0.18000*%
%TA.AperFunction,ComponentPad*%
%ADD25R,1.44800X1.44800*%
%ADD26C,1.44800*%
%ADD27O,1.00000X2.00000*%
%ADD28O,0.90000X1.80000*%
%ADD29C,0.65000*%
%ADD30C,1.37000*%
%ADD31R,1.37000X1.37000*%
%TA.AperFunction,ViaPad*%
%ADD32C,0.45000*%
%TA.AperFunction,SMDPad,CuDef*%
%ADD33R,0.97000X1.00000*%
%ADD34R,1.10000X1.00000*%
%ADD35O,1.60000X0.60000*%
%ADD36R,1.10000X1.90000*%
%ADD37R,0.50000X0.70000*%
G36*
X5115000Y1245000D02*
X2915000D01*
Y7645000D01*
X5115000D01*
Y1245000D01*
D02*
G37*
%LPC*%
G36*
X4789165Y7329400D02*
X4764836D01*
X4741335Y7323103D01*
X4720265Y7310938D01*
X4703062Y7293735D01*
X4690897Y7272665D01*
X4684600Y7249164D01*
Y7224835D01*
X4690897Y7201335D01*
X4703062Y7180265D01*
X4720265Y7163061D01*
X4741335Y7150897D01*
X4764836Y7144600D01*
X4789165D01*
X4812665Y7150897D01*
X4833735Y7163061D01*
X4850939Y7180265D01*
X4863103Y7201335D01*
X4869400Y7224835D01*
Y7249164D01*
X4863103Y7272665D01*
X4850939Y7293735D01*
X4833735Y7310938D01*
X4812665Y7323103D01*
X4789165Y7329400D01*
D02*
G37*
G36*
X4789876Y7080800D02*
X4789700D01*
Y6995699D01*
X4874800D01*
Y6995875D01*
X4868135Y7020749D01*
X4855260Y7043050D01*
X4837051Y7061259D01*
X4814750Y7074135D01*
X4789876Y7080800D01*
D02*
G37*
G36*
X4764300D02*
X4764125D01*
X4739251Y7074135D01*
X4716950Y7061259D01*
X4698741Y7043050D01*
X4685865Y7020749D01*
X4679200Y6995875D01*
Y6995699D01*
X4764300D01*
Y7080800D01*
D02*
G37*
G36*
X3265164Y7075400D02*
X3240835D01*
X3217335Y7069103D01*
X3196265Y7056939D01*
X3179061Y7039735D01*
X3166897Y7018665D01*
X3160600Y6995165D01*
Y6970836D01*
X3166897Y6947335D01*
X3179061Y6926265D01*
X3196265Y6909062D01*
X3217335Y6896897D01*
X3240835Y6890600D01*
X3265164D01*
X3288664Y6896897D01*
X3309735Y6909062D01*
X3326938Y6926265D01*
X3339103Y6947335D01*
X3345399Y6970836D01*
Y6995165D01*
X3339103Y7018665D01*
X3326938Y7039735D01*
X3309735Y7056939D01*
X3288664Y7069103D01*
X3265164Y7075400D01*
D02*
G37*
G36*
X4874800Y6970299D02*
X4789700D01*
Y6885200D01*
X4789876D01*
X4814750Y6891865D01*
X4837051Y6904741D01*
X4855260Y6922949D01*
X4868135Y6945251D01*
X4874800Y6970124D01*
Y6970299D01*
D02*
G37*
G36*
X4764300D02*
X4679200D01*
Y6970124D01*
X4685865Y6945251D01*
X4698741Y6922949D01*
X4716950Y6904741D01*
X4739251Y6891865D01*
X4764125Y6885200D01*
X4764300D01*
Y6970299D01*
D02*
G37*
G36*
X4154152Y6961000D02*
X4130849D01*
X4108341Y6954969D01*
X4088160Y6943317D01*
X4071683Y6926840D01*
X4060032Y6906659D01*
X4054001Y6884151D01*
Y6860848D01*
X4060032Y6838340D01*
X4071683Y6818159D01*
X4088160Y6801682D01*
X4108341Y6790031D01*
X4130849Y6784000D01*
X4154152D01*
X4176660Y6790031D01*
X4196841Y6801682D01*
X4213318Y6818159D01*
X4224970Y6838340D01*
X4231001Y6860848D01*
Y6884151D01*
X4224970Y6906659D01*
X4213318Y6926840D01*
X4196841Y6943317D01*
X4176660Y6954969D01*
X4154152Y6961000D01*
D02*
G37*
G36*
X4490401Y6859799D02*
X4409201D01*
Y6778600D01*
X4490401D01*
Y6859799D01*
D02*
G37*
G36*
X4383801D02*
X4302601D01*
Y6778600D01*
X4383801D01*
Y6859799D01*
D02*
G37*
G36*
X3265164Y6821400D02*
X3240835D01*
X3217335Y6815103D01*
X3196265Y6802939D01*
X3179061Y6785735D01*
X3166897Y6764665D01*
X3160600Y6741165D01*
Y6716836D01*
X3166897Y6693335D01*
X3179061Y6672265D01*
X3196265Y6655062D01*
X3217335Y6642897D01*
X3240835Y6636600D01*
X3265164D01*
X3288664Y6642897D01*
X3309735Y6655062D01*
X3326938Y6672265D01*
X3339103Y6693335D01*
X3345399Y6716836D01*
Y6741165D01*
X3339103Y6764665D01*
X3326938Y6785735D01*
X3309735Y6802939D01*
X3288664Y6815103D01*
X3265164Y6821400D01*
D02*
G37*
G36*
Y7329400D02*
X3240835D01*
X3217335Y7323103D01*
X3196265Y7310939D01*
X3179061Y7293735D01*
X3166897Y7272665D01*
X3160600Y7249165D01*
Y7224836D01*
X3166897Y7201335D01*
X3179061Y7180265D01*
X3196265Y7163062D01*
X3217335Y7150897D01*
X3240835Y7144600D01*
X3265164D01*
X3288664Y7150897D01*
X3293217Y7153525D01*
X3492413Y6954329D01*
Y6691315D01*
X3492413Y6691314D01*
X3494742Y6679608D01*
X3501372Y6669685D01*
X3510857Y6660200D01*
X3505596Y6647500D01*
X3496546D01*
X3480926Y6641030D01*
X3468970Y6629074D01*
X3462500Y6613454D01*
Y6596546D01*
X3463929Y6593098D01*
Y6522822D01*
X3462825D01*
X3451353Y6520540D01*
X3441628Y6514042D01*
X3435130Y6504317D01*
X3432849Y6492846D01*
Y6417646D01*
X3435130Y6406174D01*
X3441628Y6396449D01*
X3451353Y6389951D01*
X3462825Y6387670D01*
X3546024D01*
X3557496Y6389951D01*
X3567221Y6396449D01*
X3573719Y6406174D01*
X3576000Y6417646D01*
Y6492846D01*
X3573719Y6504317D01*
X3567221Y6514042D01*
X3557496Y6520540D01*
X3546024Y6522822D01*
X3545496D01*
Y6591708D01*
X3547500Y6596546D01*
Y6605596D01*
X3560200Y6610857D01*
X3665711Y6505346D01*
Y6344102D01*
X3651299D01*
Y6234102D01*
Y6124103D01*
X3741299D01*
X3745711Y6113230D01*
Y6049473D01*
X3721041Y6024803D01*
X3614299D01*
Y5884803D01*
X3663711D01*
Y5855703D01*
X3663711Y5855701D01*
X3666039Y5843996D01*
X3672670Y5834072D01*
X3682500Y5824242D01*
Y5816546D01*
X3688970Y5800926D01*
X3696609Y5793288D01*
X3691348Y5780588D01*
X3640000D01*
X3628294Y5778259D01*
X3618371Y5771629D01*
X3618370Y5771628D01*
X3586534Y5739792D01*
X3574801Y5744652D01*
Y5845698D01*
X3434801D01*
Y5805800D01*
X3422101Y5803156D01*
X3320965Y5904292D01*
X3326938Y5910265D01*
X3339103Y5931335D01*
X3345399Y5954836D01*
Y5979165D01*
X3339103Y6002665D01*
X3326938Y6023735D01*
X3309735Y6040939D01*
X3288664Y6053103D01*
X3265164Y6059400D01*
X3240835D01*
X3217335Y6053103D01*
X3196265Y6040939D01*
X3179061Y6023735D01*
X3166897Y6002665D01*
X3160600Y5979165D01*
Y5954836D01*
X3166897Y5931335D01*
X3179061Y5910265D01*
X3196265Y5893062D01*
X3217335Y5880897D01*
X3240835Y5874600D01*
X3264141D01*
X3389672Y5749070D01*
X3399595Y5742439D01*
X3411301Y5740111D01*
X3434801D01*
Y5705588D01*
X3407670D01*
X3378629Y5734629D01*
X3368705Y5741259D01*
X3357000Y5743588D01*
X3356999Y5743587D01*
X3340463D01*
X3339103Y5748665D01*
X3326938Y5769735D01*
X3309735Y5786939D01*
X3288664Y5799103D01*
X3265164Y5805400D01*
X3240835D01*
X3217335Y5799103D01*
X3196265Y5786939D01*
X3179061Y5769735D01*
X3166897Y5748665D01*
X3160600Y5725165D01*
Y5700836D01*
X3166897Y5677335D01*
X3179061Y5656265D01*
X3196265Y5639062D01*
X3217335Y5626897D01*
X3240835Y5620600D01*
X3265164D01*
X3288664Y5626897D01*
X3309735Y5639062D01*
X3326938Y5656265D01*
X3336300Y5672481D01*
X3349021Y5675562D01*
X3351650Y5675093D01*
X3373371Y5653371D01*
X3383295Y5646741D01*
X3395000Y5644412D01*
X3395001Y5644412D01*
X3474561D01*
X3479421Y5632679D01*
X3349243Y5502501D01*
X3333372Y5504590D01*
X3326938Y5515735D01*
X3309735Y5532939D01*
X3288664Y5545103D01*
X3265164Y5551400D01*
X3240835D01*
X3217335Y5545103D01*
X3196265Y5532939D01*
X3179061Y5515735D01*
X3166897Y5494665D01*
X3160600Y5471165D01*
Y5446836D01*
X3166897Y5423335D01*
X3179061Y5402265D01*
X3196265Y5385062D01*
X3217335Y5372897D01*
X3240835Y5366600D01*
X3265164D01*
X3288664Y5372897D01*
X3309735Y5385062D01*
X3326938Y5402265D01*
X3339103Y5423335D01*
X3340463Y5428412D01*
X3348999D01*
X3349000Y5428412D01*
X3360705Y5430740D01*
X3370629Y5437371D01*
X3518066Y5584808D01*
X3529799Y5579948D01*
Y5552002D01*
X3605200D01*
X3680599D01*
Y5604412D01*
X4012498D01*
X4012500Y5604412D01*
X4024205Y5606741D01*
X4034129Y5613371D01*
X4063258Y5642500D01*
X4070954D01*
X4086574Y5648970D01*
X4098530Y5660926D01*
X4105000Y5676546D01*
Y5693454D01*
X4099508Y5706712D01*
X4104785Y5719412D01*
X4445002D01*
Y5669999D01*
X4585001Y5669999D01*
X4587912Y5658504D01*
Y5140400D01*
X4537700D01*
Y5065000D01*
Y4989600D01*
X4587912D01*
Y4717917D01*
X4569995Y4700000D01*
X4566546D01*
X4550926Y4693530D01*
X4538970Y4681574D01*
X4532500Y4665954D01*
Y4649046D01*
X4533144Y4647492D01*
X4522377Y4640298D01*
X4273284Y4889392D01*
Y4985082D01*
X4280000Y4995000D01*
X4430000D01*
Y5135000D01*
X4280000D01*
Y5105784D01*
X4236353D01*
X4232412Y5105000D01*
X4224046D01*
X4208426Y5098530D01*
X4196470Y5086574D01*
X4190000Y5070954D01*
Y5054046D01*
X4191717Y5049903D01*
Y4872500D01*
X4191716Y4872499D01*
X4194821Y4856892D01*
X4203662Y4843661D01*
X4407689Y4639633D01*
X4402829Y4627900D01*
X4395199D01*
Y4552500D01*
Y4477100D01*
X4462899D01*
Y4554613D01*
X4475599Y4561401D01*
X4477499Y4560131D01*
Y4482500D01*
X4570682D01*
X4593563Y4459619D01*
X4593564Y4459618D01*
X4606795Y4450777D01*
X4622402Y4447673D01*
X4625094D01*
X4631546Y4445000D01*
X4648454D01*
X4664074Y4451470D01*
X4672801Y4460197D01*
X4681851Y4456337D01*
X4684600Y4454036D01*
Y4430835D01*
X4690897Y4407335D01*
X4703062Y4386265D01*
X4720265Y4369061D01*
X4741335Y4356897D01*
X4764836Y4350600D01*
X4789165D01*
X4812665Y4356897D01*
X4833735Y4369061D01*
X4850939Y4386265D01*
X4863103Y4407335D01*
X4869400Y4430835D01*
Y4455164D01*
X4863103Y4478665D01*
X4850939Y4499735D01*
X4834157Y4516516D01*
X4834248Y4518462D01*
X4837869Y4529216D01*
X4962403D01*
X4966546Y4527500D01*
X4983454D01*
X4999074Y4533970D01*
X5011030Y4545926D01*
X5017500Y4561546D01*
Y4578454D01*
X5011030Y4594074D01*
X4999074Y4606030D01*
X4983454Y4612500D01*
X4966546D01*
X4962403Y4610784D01*
X4837870D01*
X4834249Y4621536D01*
X4834157Y4623484D01*
X4850939Y4640265D01*
X4863103Y4661335D01*
X4869400Y4684835D01*
Y4709164D01*
X4863103Y4732665D01*
X4850939Y4753735D01*
X4833735Y4770938D01*
X4812665Y4783103D01*
X4789165Y4789400D01*
X4764836D01*
X4741335Y4783103D01*
X4720265Y4770938D01*
X4703062Y4753735D01*
X4701788Y4751528D01*
X4689088Y4754931D01*
Y4893069D01*
X4701788Y4896472D01*
X4703062Y4894265D01*
X4720265Y4877061D01*
X4741335Y4864897D01*
X4764836Y4858600D01*
X4789165D01*
X4812665Y4864897D01*
X4833735Y4877061D01*
X4850939Y4894265D01*
X4863103Y4915335D01*
X4869400Y4938835D01*
Y4963164D01*
X4863103Y4986665D01*
X4850939Y5007735D01*
X4833735Y5024938D01*
X4812665Y5037103D01*
X4789165Y5043400D01*
X4764836D01*
X4741335Y5037103D01*
X4720265Y5024938D01*
X4703062Y5007735D01*
X4701788Y5005528D01*
X4689088Y5008931D01*
Y5147069D01*
X4701788Y5150472D01*
X4703062Y5148265D01*
X4720265Y5131061D01*
X4741335Y5118897D01*
X4764836Y5112600D01*
X4789165D01*
X4812665Y5118897D01*
X4833735Y5131061D01*
X4850939Y5148265D01*
X4863103Y5169335D01*
X4869400Y5192835D01*
Y5217164D01*
X4863103Y5240665D01*
X4850939Y5261735D01*
X4833735Y5278938D01*
X4812665Y5291103D01*
X4789165Y5297400D01*
X4764836D01*
X4741335Y5291103D01*
X4720265Y5278938D01*
X4703062Y5261735D01*
X4701788Y5259528D01*
X4689088Y5262931D01*
Y5401069D01*
X4701788Y5404472D01*
X4703062Y5402265D01*
X4720265Y5385061D01*
X4741335Y5372897D01*
X4764836Y5366600D01*
X4789165D01*
X4812665Y5372897D01*
X4833735Y5385061D01*
X4850939Y5402265D01*
X4863103Y5423335D01*
X4869400Y5446835D01*
Y5471164D01*
X4863103Y5494665D01*
X4850939Y5515735D01*
X4833735Y5532938D01*
X4812665Y5545103D01*
X4789165Y5551400D01*
X4764836D01*
X4741335Y5545103D01*
X4720265Y5532938D01*
X4703062Y5515735D01*
X4701788Y5513528D01*
X4689088Y5516931D01*
Y5655069D01*
X4701788Y5658472D01*
X4703062Y5656265D01*
X4720265Y5639061D01*
X4741335Y5626897D01*
X4764836Y5620600D01*
X4789165D01*
X4812665Y5626897D01*
X4833735Y5639061D01*
X4850939Y5656265D01*
X4863103Y5677335D01*
X4869400Y5700835D01*
Y5725164D01*
X4863103Y5748665D01*
X4850939Y5769735D01*
X4833735Y5786938D01*
X4812665Y5799103D01*
X4789165Y5805400D01*
X4764836D01*
X4741335Y5799103D01*
X4720265Y5786938D01*
X4703062Y5769735D01*
X4701788Y5767528D01*
X4689088Y5770931D01*
Y5909069D01*
X4701788Y5912472D01*
X4703062Y5910265D01*
X4720265Y5893061D01*
X4741335Y5880897D01*
X4764836Y5874600D01*
X4789165D01*
X4812665Y5880897D01*
X4833735Y5893061D01*
X4850939Y5910265D01*
X4863103Y5931335D01*
X4869400Y5954835D01*
Y5979164D01*
X4863103Y6002665D01*
X4850939Y6023735D01*
X4833735Y6040938D01*
X4812665Y6053103D01*
X4789165Y6059400D01*
X4764836D01*
X4741335Y6053103D01*
X4720265Y6040938D01*
X4703062Y6023735D01*
X4701788Y6021528D01*
X4689088Y6024931D01*
Y6163069D01*
X4701788Y6166472D01*
X4703062Y6164265D01*
X4720265Y6147061D01*
X4741335Y6134897D01*
X4764836Y6128600D01*
X4789165D01*
X4812665Y6134897D01*
X4833735Y6147061D01*
X4850939Y6164265D01*
X4863103Y6185335D01*
X4869400Y6208835D01*
Y6233164D01*
X4863103Y6256665D01*
X4850939Y6277735D01*
X4833735Y6294938D01*
X4812665Y6307103D01*
X4789165Y6313400D01*
X4764836D01*
X4741335Y6307103D01*
X4720265Y6294938D01*
X4703062Y6277735D01*
X4701788Y6275528D01*
X4689088Y6278931D01*
Y6407594D01*
X4701788Y6411903D01*
X4716950Y6396741D01*
X4739251Y6383865D01*
X4764125Y6377200D01*
X4764300D01*
Y6474999D01*
Y6572800D01*
X4764125D01*
X4739251Y6566135D01*
X4716950Y6553259D01*
X4701788Y6538097D01*
X4689088Y6542405D01*
Y6671069D01*
X4701788Y6674472D01*
X4703062Y6672265D01*
X4720265Y6655061D01*
X4741335Y6642897D01*
X4764836Y6636600D01*
X4789165D01*
X4812665Y6642897D01*
X4833735Y6655061D01*
X4850939Y6672265D01*
X4863103Y6693335D01*
X4869400Y6716835D01*
Y6741164D01*
X4863103Y6764665D01*
X4850939Y6785735D01*
X4833735Y6802938D01*
X4812665Y6815103D01*
X4789165Y6821400D01*
X4764836D01*
X4741335Y6815103D01*
X4720265Y6802938D01*
X4703062Y6785735D01*
X4701788Y6783528D01*
X4689088Y6786931D01*
Y6871499D01*
X4689088Y6871500D01*
X4686759Y6883205D01*
X4680129Y6893129D01*
X4680128Y6893129D01*
X4546629Y7026629D01*
X4536705Y7033259D01*
X4525000Y7035588D01*
X4524999Y7035588D01*
X4021002D01*
X4021001Y7035588D01*
X4009296Y7033259D01*
X3999372Y7026629D01*
X3999372Y7026628D01*
X3925863Y6953119D01*
X3922660Y6954969D01*
X3900152Y6961000D01*
X3876849D01*
X3854341Y6954969D01*
X3834160Y6943317D01*
X3817683Y6926840D01*
X3806032Y6906659D01*
X3800001Y6884151D01*
Y6860848D01*
X3806032Y6838340D01*
X3817683Y6818159D01*
X3834160Y6801682D01*
X3854341Y6790031D01*
X3876849Y6784000D01*
X3900152D01*
X3922660Y6790031D01*
X3942841Y6801682D01*
X3959318Y6818159D01*
X3970970Y6838340D01*
X3977001Y6860848D01*
Y6884151D01*
X3970970Y6906659D01*
X3969121Y6909862D01*
X4033671Y6974412D01*
X4293220D01*
X4302600Y6966400D01*
X4302601Y6961712D01*
Y6885199D01*
X4396501D01*
X4490401D01*
Y6961712D01*
X4490401Y6966400D01*
X4499782Y6974412D01*
X4512330D01*
X4627912Y6858830D01*
Y6721939D01*
X4616179Y6717079D01*
X4586629Y6746629D01*
X4576705Y6753259D01*
X4565000Y6755588D01*
X4564999Y6755588D01*
X3794670D01*
X3715121Y6835137D01*
X3716970Y6838340D01*
X3723001Y6860848D01*
Y6884151D01*
X3716970Y6906659D01*
X3705318Y6926840D01*
X3688841Y6943317D01*
X3668660Y6954969D01*
X3646152Y6961000D01*
X3622849D01*
X3600341Y6954969D01*
X3580160Y6943317D01*
X3566289Y6929445D01*
X3553589Y6933130D01*
Y6966998D01*
X3553589Y6966999D01*
X3551260Y6978704D01*
X3544630Y6988628D01*
X3544629Y6988628D01*
X3336474Y7196783D01*
X3339103Y7201335D01*
X3345399Y7224836D01*
Y7249165D01*
X3339103Y7272665D01*
X3326938Y7293735D01*
X3309735Y7310939D01*
X3288664Y7323103D01*
X3265164Y7329400D01*
D02*
G37*
G36*
X4789876Y6572800D02*
X4789700D01*
Y6487699D01*
X4874800D01*
Y6487875D01*
X4868135Y6512749D01*
X4855260Y6535050D01*
X4837051Y6553259D01*
X4814750Y6566135D01*
X4789876Y6572800D01*
D02*
G37*
G36*
X3265164Y6567400D02*
X3240835D01*
X3217335Y6561103D01*
X3196265Y6548939D01*
X3179061Y6531735D01*
X3166897Y6510665D01*
X3160600Y6487165D01*
Y6462836D01*
X3166897Y6439335D01*
X3179061Y6418265D01*
X3196265Y6401062D01*
X3217335Y6388897D01*
X3240835Y6382600D01*
X3265164D01*
X3288664Y6388897D01*
X3309735Y6401062D01*
X3326938Y6418265D01*
X3339103Y6439335D01*
X3345399Y6462836D01*
Y6487165D01*
X3339103Y6510665D01*
X3326938Y6531735D01*
X3309735Y6548939D01*
X3288664Y6561103D01*
X3265164Y6567400D01*
D02*
G37*
G36*
X4874800Y6462299D02*
X4789700D01*
Y6377200D01*
X4789876D01*
X4814750Y6383865D01*
X4837051Y6396741D01*
X4855260Y6414949D01*
X4868135Y6437251D01*
X4874800Y6462124D01*
Y6462299D01*
D02*
G37*
G36*
X3546024Y6364821D02*
X3462825D01*
X3451353Y6362540D01*
X3441628Y6356042D01*
X3435130Y6346317D01*
X3432849Y6334845D01*
Y6259646D01*
X3435130Y6248174D01*
X3441628Y6238449D01*
X3451353Y6231951D01*
X3462825Y6229670D01*
X3546024D01*
X3557496Y6231951D01*
X3567221Y6238449D01*
X3573719Y6248174D01*
X3576000Y6259646D01*
Y6334845D01*
X3573719Y6346317D01*
X3567221Y6356042D01*
X3557496Y6362540D01*
X3546024Y6364821D01*
D02*
G37*
G36*
X3265164Y6313400D02*
X3240835D01*
X3217335Y6307103D01*
X3196265Y6294939D01*
X3179061Y6277735D01*
X3166897Y6256665D01*
X3160600Y6233165D01*
Y6208836D01*
X3166897Y6185335D01*
X3179061Y6164265D01*
X3196265Y6147062D01*
X3217335Y6134897D01*
X3240835Y6128600D01*
X3265164D01*
X3288664Y6134897D01*
X3309735Y6147062D01*
X3326938Y6164265D01*
X3339103Y6185335D01*
X3345399Y6208836D01*
Y6233165D01*
X3339103Y6256665D01*
X3326938Y6277735D01*
X3309735Y6294939D01*
X3288664Y6307103D01*
X3265164Y6313400D01*
D02*
G37*
G36*
X3580201Y6021099D02*
X3517501D01*
Y5953399D01*
X3580201D01*
Y6021099D01*
D02*
G37*
G36*
X3492101D02*
X3429401D01*
Y5953399D01*
X3492101D01*
Y6021099D01*
D02*
G37*
G36*
X3580201Y5927999D02*
X3517501D01*
Y5860299D01*
X3580201D01*
Y5927999D01*
D02*
G37*
G36*
X3492101D02*
X3429401D01*
Y5860299D01*
X3492101D01*
Y5927999D01*
D02*
G37*
G36*
X4500598Y5629700D02*
X4437898D01*
Y5562000D01*
X4500598D01*
Y5629700D01*
D02*
G37*
G36*
X4412498D02*
X4349798D01*
Y5562000D01*
X4412498D01*
Y5629700D01*
D02*
G37*
G36*
X4500598Y5536600D02*
X4437898D01*
Y5468900D01*
X4500598D01*
Y5536600D01*
D02*
G37*
G36*
X4412498D02*
X4349798D01*
Y5468900D01*
X4412498D01*
Y5536600D01*
D02*
G37*
G36*
X3680599Y5526602D02*
X3617900D01*
Y5458902D01*
X3680599D01*
Y5526602D01*
D02*
G37*
G36*
X3592500D02*
X3529799D01*
Y5458902D01*
X3592500D01*
Y5526602D01*
D02*
G37*
G36*
X4199998Y5530002D02*
X4049998D01*
Y5372959D01*
X4049410Y5370002D01*
X4049410Y5370000D01*
Y5340168D01*
X4009714Y5300471D01*
X4003352Y5294141D01*
X3992516Y5300742D01*
X3949998Y5343260D01*
Y5530002D01*
X3799998D01*
Y5399890D01*
X3675199D01*
Y5444302D01*
X3535199D01*
Y5294302D01*
X3675199D01*
Y5338714D01*
X3799998D01*
Y5300002D01*
X3906740D01*
X3949012Y5257730D01*
Y4817315D01*
X3939196Y4807500D01*
X3936546D01*
X3920926Y4801030D01*
X3908970Y4789074D01*
X3902500Y4773453D01*
Y4756546D01*
X3908970Y4740926D01*
X3920926Y4728970D01*
X3923892Y4713995D01*
X3918970Y4709074D01*
X3912500Y4693454D01*
Y4676546D01*
X3918970Y4660926D01*
X3925354Y4654542D01*
X3926766Y4637993D01*
X3923864Y4635091D01*
X3917937Y4620782D01*
X3905660Y4615097D01*
X3884129Y4636629D01*
X3874205Y4643259D01*
X3862500Y4645588D01*
X3862499Y4645588D01*
X3834516D01*
X3829074Y4651030D01*
X3813454Y4657500D01*
X3796546D01*
X3780926Y4651030D01*
X3768970Y4639074D01*
X3762500Y4623454D01*
Y4606546D01*
X3768970Y4590926D01*
X3780926Y4578970D01*
X3796546Y4572500D01*
X3813454D01*
X3829074Y4578970D01*
X3834516Y4584412D01*
X3849830D01*
X3931008Y4503235D01*
X3926148Y4491501D01*
X3888600D01*
Y4423801D01*
X3951300D01*
Y4466349D01*
X3963033Y4471209D01*
X3976912Y4457330D01*
Y3709088D01*
X3972784Y3704954D01*
X3961213Y3709743D01*
X3960084Y3710983D01*
Y3810715D01*
X3962500Y3816546D01*
Y3833454D01*
X3959827Y3839906D01*
Y3856855D01*
X3959827Y3856856D01*
X3956723Y3872463D01*
X3947882Y3885694D01*
X3947881Y3885695D01*
X3913346Y3920230D01*
X3913344Y3920231D01*
X3855701Y3977875D01*
Y4065198D01*
X3821482D01*
Y4101568D01*
X3818377Y4117176D01*
X3809536Y4130407D01*
X3809536Y4130407D01*
X3786105Y4153838D01*
X3772874Y4162679D01*
X3757267Y4165784D01*
X3757265Y4165783D01*
X3722905D01*
X3721499Y4177901D01*
X3721499D01*
Y4200318D01*
X3805900D01*
Y4166101D01*
X3945900D01*
Y4316101D01*
X3808632D01*
Y4330702D01*
X3863200D01*
Y4411101D01*
Y4491501D01*
X3800500D01*
Y4478105D01*
X3787800Y4472844D01*
X3406806Y4853838D01*
X3393575Y4862679D01*
X3377968Y4865784D01*
X3377966Y4865784D01*
X3313167D01*
X3311156Y4878484D01*
X3326938Y4894265D01*
X3339103Y4915335D01*
X3345399Y4938836D01*
Y4963165D01*
X3339103Y4986665D01*
X3326938Y5007735D01*
X3309735Y5024939D01*
X3288664Y5037103D01*
X3265164Y5043400D01*
X3240835D01*
X3217335Y5037103D01*
X3196265Y5024939D01*
X3179061Y5007735D01*
X3166897Y4986665D01*
X3160600Y4963165D01*
Y4938836D01*
X3166897Y4915335D01*
X3179061Y4894265D01*
X3194843Y4878484D01*
X3192832Y4865784D01*
X3070001D01*
X3070000Y4865784D01*
X3054393Y4862679D01*
X3041162Y4853838D01*
X2963662Y4776338D01*
X2954821Y4763107D01*
X2951716Y4747500D01*
X2951716Y4747499D01*
Y2472502D01*
X2951716Y2472500D01*
X2954821Y2456893D01*
X2963662Y2443662D01*
X3025162Y2382162D01*
X3025162Y2382161D01*
X3038393Y2373321D01*
X3054000Y2370216D01*
X3054002Y2370216D01*
X3169852D01*
X3179061Y2354265D01*
X3196265Y2337062D01*
X3217335Y2324897D01*
X3240835Y2318600D01*
X3265164D01*
X3288664Y2324897D01*
X3309735Y2337062D01*
X3326938Y2354265D01*
X3339103Y2375335D01*
X3341517Y2384344D01*
X3354217Y2382672D01*
Y2315894D01*
X3282956Y2244633D01*
X3265164Y2249400D01*
X3240835D01*
X3217335Y2243103D01*
X3196265Y2230939D01*
X3179061Y2213735D01*
X3166897Y2192665D01*
X3160600Y2169165D01*
Y2144836D01*
X3166897Y2121335D01*
X3179061Y2100265D01*
X3196265Y2083062D01*
X3217335Y2070897D01*
X3240835Y2064600D01*
X3265164D01*
X3288664Y2070897D01*
X3309735Y2083062D01*
X3326938Y2100265D01*
X3339103Y2121335D01*
X3345399Y2144836D01*
Y2169165D01*
X3340632Y2186956D01*
X3423838Y2270162D01*
X3432679Y2283393D01*
X3435784Y2299001D01*
X3435784Y2299002D01*
Y2416900D01*
X3491600D01*
Y2492300D01*
Y2567700D01*
X3423900D01*
Y2529237D01*
X3411200Y2523977D01*
X3368839Y2566338D01*
X3355607Y2575179D01*
X3340000Y2578284D01*
X3339999Y2578283D01*
X3313002D01*
X3309599Y2590983D01*
X3309735Y2591062D01*
X3326938Y2608265D01*
X3339103Y2629335D01*
X3345399Y2652836D01*
Y2677165D01*
X3339103Y2700665D01*
X3326938Y2721735D01*
X3309735Y2738939D01*
X3288664Y2751103D01*
X3265164Y2757400D01*
X3240835D01*
X3217335Y2751103D01*
X3196265Y2738939D01*
X3179061Y2721735D01*
X3166897Y2700665D01*
X3160600Y2677165D01*
Y2652836D01*
X3166897Y2629335D01*
X3179061Y2608265D01*
X3196265Y2591062D01*
X3196401Y2590983D01*
X3192997Y2578283D01*
X3131893D01*
X3105783Y2604393D01*
Y4273107D01*
X3106293Y4273616D01*
X3191382D01*
X3194242Y4260916D01*
X3179061Y4245735D01*
X3166897Y4224665D01*
X3160600Y4201165D01*
Y4176836D01*
X3166897Y4153335D01*
X3179061Y4132265D01*
X3196265Y4115062D01*
X3217335Y4102897D01*
X3240835Y4096600D01*
X3264141D01*
X3394412Y3966329D01*
Y3853439D01*
X3382679Y3848579D01*
X3336474Y3894783D01*
X3339103Y3899335D01*
X3345399Y3922836D01*
Y3947165D01*
X3339103Y3970665D01*
X3326938Y3991735D01*
X3309735Y4008939D01*
X3288664Y4021103D01*
X3265164Y4027400D01*
X3240835D01*
X3217335Y4021103D01*
X3196265Y4008939D01*
X3179061Y3991735D01*
X3166897Y3970665D01*
X3160600Y3947165D01*
Y3922836D01*
X3166897Y3899335D01*
X3179061Y3878265D01*
X3196265Y3861062D01*
X3217335Y3848897D01*
X3240835Y3842600D01*
X3265164D01*
X3288664Y3848897D01*
X3293217Y3851525D01*
X3344412Y3800330D01*
Y3732869D01*
X3331712Y3729466D01*
X3326938Y3737735D01*
X3309735Y3754939D01*
X3288664Y3767103D01*
X3265164Y3773400D01*
X3240835D01*
X3217335Y3767103D01*
X3196265Y3754939D01*
X3179061Y3737735D01*
X3166897Y3716665D01*
X3160600Y3693165D01*
Y3668836D01*
X3166897Y3645335D01*
X3179061Y3624265D01*
X3196265Y3607062D01*
X3217335Y3594897D01*
X3240835Y3588600D01*
X3265164D01*
X3288664Y3594897D01*
X3309735Y3607062D01*
X3326938Y3624265D01*
X3331712Y3632535D01*
X3344412Y3629132D01*
Y3485001D01*
X3344412Y3485000D01*
X3346272Y3475646D01*
X3334227Y3471112D01*
X3332918Y3473378D01*
X3326938Y3483735D01*
X3309735Y3500939D01*
X3288664Y3513103D01*
X3265164Y3519400D01*
X3240835D01*
X3217335Y3513103D01*
X3196265Y3500939D01*
X3179061Y3483735D01*
X3166897Y3462665D01*
X3160600Y3439165D01*
Y3414836D01*
X3166897Y3391335D01*
X3179061Y3370265D01*
X3196265Y3353062D01*
X3217335Y3340897D01*
X3240835Y3334600D01*
X3265164D01*
X3288664Y3340897D01*
X3309735Y3353062D01*
X3326938Y3370265D01*
X3339103Y3391335D01*
X3345399Y3414836D01*
Y3439165D01*
X3339903Y3459678D01*
X3339103Y3462665D01*
X3350224Y3468080D01*
X3353371Y3463371D01*
X3504412Y3312330D01*
Y3035400D01*
X3457700D01*
Y2955000D01*
Y2874600D01*
X3504412D01*
Y2860000D01*
X3375000D01*
Y2710000D01*
X3515000D01*
Y2750849D01*
X3526733Y2755710D01*
X3547000Y2735443D01*
X3545718Y2729003D01*
X3549599Y2709494D01*
X3560650Y2692955D01*
X3577189Y2681904D01*
X3596698Y2678023D01*
X3696698D01*
X3716207Y2681904D01*
X3732746Y2692955D01*
X3743797Y2709494D01*
X3747677Y2729003D01*
X3743797Y2748512D01*
X3732746Y2765051D01*
X3716207Y2776102D01*
X3696698Y2779982D01*
X3596698D01*
X3590257Y2778701D01*
X3574502Y2794456D01*
X3577482Y2808130D01*
X3578186Y2808672D01*
X3578288Y2808685D01*
X3596698Y2805023D01*
X3696698D01*
X3716207Y2808904D01*
X3732746Y2819955D01*
X3743797Y2836494D01*
X3747677Y2856003D01*
X3746396Y2862443D01*
X3799128Y2915175D01*
X3799129Y2915176D01*
X3805759Y2925099D01*
X3808088Y2936805D01*
X3808088Y2936806D01*
Y3182499D01*
X3808088Y3182500D01*
X3805759Y3194206D01*
X3799129Y3204129D01*
X3799128Y3204130D01*
X3455588Y3547670D01*
Y3859240D01*
X3467321Y3864100D01*
X3535000Y3796422D01*
Y3712500D01*
X3685000D01*
Y3852500D01*
X3594275D01*
X3539677Y3907098D01*
X3544938Y3919798D01*
X3598001D01*
Y3982498D01*
X3530301D01*
Y3947742D01*
X3517601Y3940953D01*
X3515783Y3942168D01*
Y4148579D01*
X3528483Y4153840D01*
X3586161Y4096162D01*
X3586161Y4096161D01*
X3599393Y4087321D01*
X3615000Y4084216D01*
X3615001Y4084216D01*
X3739915D01*
Y4065198D01*
X3705701D01*
Y3925198D01*
X3793024D01*
X3847622Y3870600D01*
X3842362Y3857900D01*
X3792700D01*
Y3795200D01*
X3860400D01*
Y3833328D01*
X3873100Y3839586D01*
X3878260Y3835623D01*
Y3835288D01*
X3877500Y3833454D01*
Y3816546D01*
X3878517Y3814091D01*
Y3404798D01*
X3834966D01*
Y3264798D01*
X3878867D01*
Y2991753D01*
X3877500Y2988454D01*
Y2971546D01*
X3883970Y2955926D01*
X3895926Y2943970D01*
X3911546Y2937500D01*
X3928454D01*
X3932597Y2939216D01*
X4175811D01*
X4267381Y2847647D01*
X4269599Y2836494D01*
X4280650Y2819955D01*
X4297189Y2808904D01*
X4316698Y2805023D01*
X4416698D01*
X4436207Y2808904D01*
X4452746Y2819955D01*
X4463797Y2836494D01*
X4467677Y2856003D01*
X4463797Y2875512D01*
X4452746Y2892051D01*
X4436207Y2903102D01*
X4416698Y2906982D01*
X4323399D01*
X4309968Y2920413D01*
X4316224Y2932117D01*
X4316698Y2932023D01*
X4416698D01*
X4436207Y2935904D01*
X4452746Y2946955D01*
X4459553Y2957143D01*
X4468984Y2959019D01*
X4478907Y2965649D01*
X4504128Y2990871D01*
X4504129Y2990871D01*
X4510759Y3000795D01*
X4513088Y3012500D01*
X4513088Y3012501D01*
Y3217500D01*
X4510759Y3229206D01*
X4504129Y3239129D01*
X4504128Y3239129D01*
X4290588Y3452670D01*
Y3632984D01*
X4296030Y3638426D01*
X4302500Y3654046D01*
Y3670954D01*
X4296030Y3686574D01*
X4284074Y3698530D01*
X4268454Y3705000D01*
X4251546D01*
X4235926Y3698530D01*
X4223970Y3686574D01*
X4217500Y3670954D01*
Y3654046D01*
X4223970Y3638426D01*
X4229412Y3632984D01*
Y3440001D01*
X4229412Y3440000D01*
X4231741Y3428295D01*
X4238371Y3418371D01*
X4451912Y3204830D01*
Y3160078D01*
X4440712Y3154091D01*
X4436207Y3157102D01*
X4416698Y3160982D01*
X4357289D01*
Y3235798D01*
X4357289Y3235799D01*
X4354961Y3247504D01*
X4348330Y3257428D01*
X4348329Y3257428D01*
X4149791Y3455967D01*
X4152771Y3470948D01*
X4160072Y3473972D01*
X4172028Y3485928D01*
X4178498Y3501548D01*
Y3518455D01*
X4172028Y3534076D01*
X4168666Y3537438D01*
Y4263485D01*
X4180399Y4268345D01*
X4279426Y4169318D01*
Y4103400D01*
X4281708Y4091929D01*
X4288206Y4082204D01*
X4297931Y4075706D01*
X4309402Y4073424D01*
X4384602D01*
X4396073Y4075706D01*
X4405798Y4082204D01*
X4412296Y4091929D01*
X4414578Y4103400D01*
Y4186600D01*
X4412296Y4198071D01*
X4405798Y4207796D01*
X4396073Y4214294D01*
X4384602Y4216576D01*
X4318684D01*
X4135588Y4399672D01*
Y4425725D01*
X4148288Y4428251D01*
X4152267Y4418644D01*
X4164222Y4406689D01*
X4179843Y4400219D01*
X4187538D01*
X4249387Y4338370D01*
X4249388Y4338369D01*
X4259311Y4331739D01*
X4271017Y4329410D01*
X4278422D01*
Y4318398D01*
X4280704Y4306927D01*
X4287202Y4297202D01*
X4296927Y4290704D01*
X4308399Y4288422D01*
X4383598D01*
X4395070Y4290704D01*
X4404795Y4297202D01*
X4411293Y4306927D01*
X4413574Y4318398D01*
Y4401598D01*
X4411293Y4413069D01*
X4404795Y4422794D01*
X4395070Y4429292D01*
X4383598Y4431574D01*
X4308399D01*
X4296927Y4429292D01*
X4287202Y4422794D01*
X4280704Y4413069D01*
X4280449Y4411785D01*
X4266668Y4407604D01*
X4230796Y4443477D01*
Y4451172D01*
X4224326Y4466793D01*
X4212371Y4478748D01*
X4196750Y4485218D01*
X4179843D01*
X4164222Y4478748D01*
X4152267Y4466793D01*
X4148288Y4457186D01*
X4135588Y4459712D01*
Y4502330D01*
X4151847Y4518589D01*
X4166546Y4512500D01*
X4183454D01*
X4199074Y4518970D01*
X4211030Y4530926D01*
X4217500Y4546546D01*
Y4563454D01*
X4211030Y4579074D01*
X4199074Y4591030D01*
X4183454Y4597500D01*
X4166546D01*
X4150926Y4591030D01*
X4140701Y4580804D01*
X4140217D01*
X4128511Y4578476D01*
X4118588Y4571846D01*
X4118587Y4571845D01*
X4100945Y4554202D01*
X4091030Y4560926D01*
X4097500Y4576546D01*
Y4593454D01*
X4091030Y4609074D01*
X4079074Y4621030D01*
X4063454Y4627500D01*
X4058718D01*
X4053457Y4640200D01*
X4096629Y4683371D01*
X4103259Y4693295D01*
X4105588Y4705000D01*
Y5139454D01*
X4196936Y5230802D01*
X4204631D01*
X4220252Y5237272D01*
X4232207Y5249227D01*
X4238678Y5264848D01*
Y5281755D01*
X4232207Y5297375D01*
X4220252Y5309331D01*
X4204631Y5315801D01*
X4199998D01*
Y5384414D01*
X4355198D01*
Y5304300D01*
X4495198D01*
Y5454299D01*
X4355198D01*
Y5445590D01*
X4199998D01*
Y5530002D01*
D02*
G37*
G36*
X3265164Y5297400D02*
X3240835D01*
X3217335Y5291103D01*
X3196265Y5278939D01*
X3179061Y5261735D01*
X3166897Y5240665D01*
X3160600Y5217165D01*
Y5192836D01*
X3166897Y5169335D01*
X3179061Y5148265D01*
X3196265Y5131062D01*
X3217335Y5118897D01*
X3240835Y5112600D01*
X3265164D01*
X3288664Y5118897D01*
X3309735Y5131062D01*
X3326938Y5148265D01*
X3339103Y5169335D01*
X3345399Y5192836D01*
Y5217165D01*
X3339103Y5240665D01*
X3326938Y5261735D01*
X3309735Y5278939D01*
X3288664Y5291103D01*
X3265164Y5297400D01*
D02*
G37*
G36*
X4512300Y5140400D02*
X4444600D01*
Y5077700D01*
X4512300D01*
Y5140400D01*
D02*
G37*
G36*
Y5052300D02*
X4444600D01*
Y4989600D01*
X4512300D01*
Y5052300D01*
D02*
G37*
G36*
X3785954Y5127500D02*
X3769046D01*
X3753426Y5121030D01*
X3741470Y5109074D01*
X3735000Y5093454D01*
Y5076546D01*
X3741470Y5060926D01*
X3746912Y5055484D01*
Y5040169D01*
X3634242Y4927500D01*
X3626546D01*
X3610926Y4921030D01*
X3598970Y4909074D01*
X3592500Y4893454D01*
Y4876546D01*
X3598970Y4860926D01*
X3610926Y4848970D01*
X3626546Y4842500D01*
X3643454D01*
X3659074Y4848970D01*
X3671030Y4860926D01*
X3677500Y4876546D01*
Y4884242D01*
X3799128Y5005870D01*
X3799129Y5005871D01*
X3805759Y5015794D01*
X3808088Y5027500D01*
Y5055484D01*
X3813530Y5060926D01*
X3820000Y5076546D01*
Y5093454D01*
X3813530Y5109074D01*
X3801574Y5121030D01*
X3785954Y5127500D01*
D02*
G37*
G36*
X4369799Y4627900D02*
X4302099D01*
Y4557967D01*
X4290367Y4553107D01*
X4276892Y4539633D01*
X4270914Y4525200D01*
X4317500D01*
Y4512500D01*
X4330200D01*
Y4465914D01*
X4344633Y4471893D01*
X4349840Y4477100D01*
X4369799D01*
Y4552500D01*
Y4627900D01*
D02*
G37*
G36*
X4304800Y4499800D02*
X4270914D01*
X4276892Y4485367D01*
X4290367Y4471893D01*
X4304800Y4465914D01*
Y4499800D01*
D02*
G37*
G36*
X3951300Y4398401D02*
X3888600D01*
Y4330702D01*
X3951300D01*
Y4398401D01*
D02*
G37*
G36*
X4541598Y4431574D02*
X4466399D01*
X4454927Y4429292D01*
X4445202Y4422794D01*
X4438704Y4413069D01*
X4436423Y4401598D01*
Y4318398D01*
X4438704Y4306927D01*
X4445202Y4297202D01*
X4454927Y4290704D01*
X4466399Y4288422D01*
X4528317D01*
X4621912Y4194827D01*
Y1921050D01*
X4517938Y1817076D01*
X4508369Y1825468D01*
X4513362Y1831974D01*
X4520959Y1850316D01*
X4523551Y1870000D01*
Y1907300D01*
X4447500D01*
X4371449D01*
Y1870000D01*
X4374041Y1850316D01*
X4381638Y1831974D01*
X4393724Y1816224D01*
X4404067Y1808288D01*
X4399756Y1795588D01*
X4057670D01*
X4020588Y1832670D01*
Y1835484D01*
X4026030Y1840926D01*
X4032500Y1856546D01*
Y1873453D01*
X4026030Y1889074D01*
X4014074Y1901029D01*
X3998454Y1907500D01*
X3981547D01*
X3965926Y1901029D01*
X3953971Y1889074D01*
X3947500Y1873453D01*
Y1856546D01*
X3953971Y1840926D01*
X3959412Y1835484D01*
Y1820001D01*
X3959412Y1820000D01*
X3961741Y1808295D01*
X3968371Y1798371D01*
X4023371Y1743371D01*
X4033295Y1736741D01*
X4045000Y1734412D01*
X4509118D01*
X4509120Y1734412D01*
X4520825Y1736741D01*
X4530748Y1743371D01*
X4672881Y1885504D01*
X4678684Y1885323D01*
X4686756Y1882790D01*
X4690897Y1867335D01*
X4703062Y1846265D01*
X4720265Y1829061D01*
X4741335Y1816897D01*
X4764836Y1810600D01*
X4789165D01*
X4812665Y1816897D01*
X4833735Y1829061D01*
X4850939Y1846265D01*
X4863103Y1867335D01*
X4869400Y1890835D01*
Y1915164D01*
X4863103Y1938665D01*
X4850939Y1959735D01*
X4833735Y1976938D01*
X4812665Y1989103D01*
X4789165Y1995400D01*
X4764836D01*
X4741335Y1989103D01*
X4720265Y1976938D01*
X4703062Y1959735D01*
X4695788Y1947135D01*
X4683088Y1950538D01*
Y2109461D01*
X4695788Y2112864D01*
X4703062Y2100265D01*
X4720265Y2083061D01*
X4741335Y2070897D01*
X4764836Y2064600D01*
X4789165D01*
X4812665Y2070897D01*
X4833735Y2083061D01*
X4850939Y2100265D01*
X4863103Y2121335D01*
X4869400Y2144835D01*
Y2169164D01*
X4863103Y2192665D01*
X4850939Y2213735D01*
X4833735Y2230938D01*
X4812665Y2243103D01*
X4789165Y2249400D01*
X4764836D01*
X4741335Y2243103D01*
X4720265Y2230938D01*
X4703062Y2213735D01*
X4695788Y2201135D01*
X4683088Y2204538D01*
Y2363461D01*
X4695788Y2366864D01*
X4703062Y2354265D01*
X4720265Y2337061D01*
X4741335Y2324897D01*
X4764836Y2318600D01*
X4789165D01*
X4812665Y2324897D01*
X4833735Y2337061D01*
X4850939Y2354265D01*
X4863103Y2375335D01*
X4869400Y2398835D01*
Y2423164D01*
X4863103Y2446665D01*
X4850939Y2467735D01*
X4833735Y2484938D01*
X4812665Y2497103D01*
X4789165Y2503400D01*
X4764836D01*
X4741335Y2497103D01*
X4720265Y2484938D01*
X4703062Y2467735D01*
X4695788Y2455135D01*
X4683088Y2458538D01*
Y2617461D01*
X4695788Y2620864D01*
X4703062Y2608265D01*
X4720265Y2591061D01*
X4741335Y2578897D01*
X4764836Y2572600D01*
X4789165D01*
X4812665Y2578897D01*
X4833735Y2591061D01*
X4850939Y2608265D01*
X4863103Y2629335D01*
X4869400Y2652835D01*
Y2677164D01*
X4863103Y2700665D01*
X4850939Y2721735D01*
X4833735Y2738938D01*
X4812665Y2751103D01*
X4789165Y2757400D01*
X4764836D01*
X4741335Y2751103D01*
X4720265Y2738938D01*
X4703062Y2721735D01*
X4695788Y2709135D01*
X4683088Y2712538D01*
Y2871461D01*
X4695788Y2874864D01*
X4703062Y2862265D01*
X4720265Y2845061D01*
X4741335Y2832897D01*
X4764836Y2826600D01*
X4789165D01*
X4812665Y2832897D01*
X4833735Y2845061D01*
X4850939Y2862265D01*
X4863103Y2883335D01*
X4869400Y2906835D01*
Y2931164D01*
X4863103Y2954665D01*
X4850939Y2975735D01*
X4833735Y2992938D01*
X4812665Y3005103D01*
X4789165Y3011400D01*
X4764836D01*
X4741335Y3005103D01*
X4720265Y2992938D01*
X4703062Y2975735D01*
X4695788Y2963135D01*
X4683088Y2966538D01*
Y3125461D01*
X4695788Y3128864D01*
X4703062Y3116265D01*
X4720265Y3099061D01*
X4741335Y3086897D01*
X4764836Y3080600D01*
X4789165D01*
X4812665Y3086897D01*
X4833735Y3099061D01*
X4850939Y3116265D01*
X4863103Y3137335D01*
X4869400Y3160835D01*
Y3185164D01*
X4863103Y3208665D01*
X4850939Y3229735D01*
X4833735Y3246938D01*
X4812665Y3259103D01*
X4789165Y3265400D01*
X4764836D01*
X4741335Y3259103D01*
X4720265Y3246938D01*
X4703062Y3229735D01*
X4695788Y3217135D01*
X4683088Y3220538D01*
Y3379461D01*
X4695788Y3382864D01*
X4703062Y3370265D01*
X4720265Y3353061D01*
X4741335Y3340897D01*
X4764836Y3334600D01*
X4789165D01*
X4812665Y3340897D01*
X4833735Y3353061D01*
X4850939Y3370265D01*
X4863103Y3391335D01*
X4869400Y3414835D01*
Y3439164D01*
X4863103Y3462665D01*
X4850939Y3483735D01*
X4833735Y3500938D01*
X4812665Y3513103D01*
X4789165Y3519400D01*
X4764836D01*
X4741335Y3513103D01*
X4720265Y3500938D01*
X4703062Y3483735D01*
X4695788Y3471135D01*
X4683088Y3474538D01*
Y3633461D01*
X4695788Y3636864D01*
X4703062Y3624265D01*
X4720265Y3607061D01*
X4741335Y3594897D01*
X4764836Y3588600D01*
X4789165D01*
X4812665Y3594897D01*
X4833735Y3607061D01*
X4850939Y3624265D01*
X4863103Y3645335D01*
X4869400Y3668835D01*
Y3693164D01*
X4863103Y3716665D01*
X4850939Y3737735D01*
X4833735Y3754938D01*
X4812665Y3767103D01*
X4789165Y3773400D01*
X4764836D01*
X4741335Y3767103D01*
X4720265Y3754938D01*
X4703062Y3737735D01*
X4695788Y3725135D01*
X4683088Y3728538D01*
Y3887461D01*
X4695788Y3890864D01*
X4703062Y3878265D01*
X4720265Y3861061D01*
X4741335Y3848897D01*
X4764836Y3842600D01*
X4789165D01*
X4812665Y3848897D01*
X4833735Y3861061D01*
X4850939Y3878265D01*
X4863103Y3899335D01*
X4869400Y3922835D01*
Y3947164D01*
X4863103Y3970665D01*
X4850939Y3991735D01*
X4833735Y4008938D01*
X4812665Y4021103D01*
X4789165Y4027400D01*
X4764836D01*
X4741335Y4021103D01*
X4720265Y4008938D01*
X4703062Y3991735D01*
X4695788Y3979135D01*
X4683088Y3982538D01*
Y4141461D01*
X4695788Y4144864D01*
X4703062Y4132265D01*
X4720265Y4115061D01*
X4741335Y4102897D01*
X4764836Y4096600D01*
X4789165D01*
X4812665Y4102897D01*
X4833735Y4115061D01*
X4850939Y4132265D01*
X4863103Y4153335D01*
X4869400Y4176835D01*
Y4201164D01*
X4863103Y4224665D01*
X4850939Y4245735D01*
X4833735Y4262938D01*
X4812665Y4275103D01*
X4789165Y4281400D01*
X4764836D01*
X4741335Y4275103D01*
X4720265Y4262938D01*
X4703062Y4245735D01*
X4691447Y4225616D01*
X4685563Y4224045D01*
X4680996Y4223514D01*
X4677566Y4223981D01*
X4674129Y4229126D01*
X4674128Y4229126D01*
X4571575Y4331680D01*
Y4401598D01*
X4569293Y4413069D01*
X4562795Y4422794D01*
X4553070Y4429292D01*
X4541598Y4431574D01*
D02*
G37*
G36*
X3691101Y4070598D02*
X3623401D01*
Y4007898D01*
X3691101D01*
Y4070598D01*
D02*
G37*
G36*
X3598001D02*
X3530301D01*
Y4007898D01*
X3598001D01*
Y4070598D01*
D02*
G37*
G36*
X3691101Y3982498D02*
X3623401D01*
Y3919798D01*
X3691101D01*
Y3982498D01*
D02*
G37*
G36*
X3767300Y3857900D02*
X3699600D01*
Y3795200D01*
X3767300D01*
Y3857900D01*
D02*
G37*
G36*
X3860400Y3769800D02*
X3792700D01*
Y3707100D01*
X3860400D01*
Y3769800D01*
D02*
G37*
G36*
X3767300D02*
X3699600D01*
Y3707100D01*
X3767300D01*
Y3769800D01*
D02*
G37*
G36*
X3768100Y3657082D02*
X3743200D01*
Y3592700D01*
X3803582D01*
Y3621600D01*
X3800881Y3635178D01*
X3793190Y3646689D01*
X3781678Y3654381D01*
X3768100Y3657082D01*
D02*
G37*
G36*
X3717800D02*
X3692900D01*
X3679322Y3654381D01*
X3667811Y3646689D01*
X3660119Y3635178D01*
X3657419Y3621600D01*
Y3592700D01*
X3717800D01*
Y3657082D01*
D02*
G37*
G36*
X3610100Y3651576D02*
X3534900D01*
X3523429Y3649294D01*
X3513704Y3642796D01*
X3507206Y3633071D01*
X3504924Y3621600D01*
Y3538400D01*
X3507206Y3526929D01*
X3513704Y3517204D01*
X3523429Y3510706D01*
X3534900Y3508424D01*
X3610100D01*
X3621571Y3510706D01*
X3631296Y3517204D01*
X3637794Y3526929D01*
X3640076Y3538400D01*
Y3621600D01*
X3637794Y3633071D01*
X3631296Y3642796D01*
X3621571Y3649294D01*
X3610100Y3651576D01*
D02*
G37*
G36*
X3803582Y3567300D02*
X3743200D01*
Y3502918D01*
X3768100D01*
X3781678Y3505619D01*
X3793190Y3513311D01*
X3800881Y3524822D01*
X3803582Y3538400D01*
Y3567300D01*
D02*
G37*
G36*
X3717800D02*
X3657419D01*
Y3538400D01*
X3660119Y3524822D01*
X3667811Y3513311D01*
X3679322Y3505619D01*
X3692900Y3502918D01*
X3717800D01*
Y3567300D01*
D02*
G37*
G36*
X3265164Y3265400D02*
X3240835D01*
X3217335Y3259103D01*
X3196265Y3246939D01*
X3179061Y3229735D01*
X3166897Y3208665D01*
X3160600Y3185165D01*
Y3160836D01*
X3166897Y3137335D01*
X3179061Y3116265D01*
X3196265Y3099062D01*
X3217335Y3086897D01*
X3240835Y3080600D01*
X3265164D01*
X3288664Y3086897D01*
X3309735Y3099062D01*
X3326938Y3116265D01*
X3339103Y3137335D01*
X3345399Y3160836D01*
Y3185165D01*
X3339103Y3208665D01*
X3326938Y3229735D01*
X3309735Y3246939D01*
X3288664Y3259103D01*
X3265164Y3265400D01*
D02*
G37*
G36*
X3432300Y3035400D02*
X3369600D01*
Y2967700D01*
X3432300D01*
Y3035400D01*
D02*
G37*
G36*
Y2942300D02*
X3369600D01*
Y2874600D01*
X3432300D01*
Y2942300D01*
D02*
G37*
G36*
X3265164Y3011400D02*
X3240835D01*
X3217335Y3005103D01*
X3196265Y2992939D01*
X3179061Y2975735D01*
X3166897Y2954665D01*
X3160600Y2931165D01*
Y2906836D01*
X3166897Y2883335D01*
X3179061Y2862265D01*
X3196265Y2845062D01*
X3217335Y2832897D01*
X3240835Y2826600D01*
X3265164D01*
X3288664Y2832897D01*
X3309735Y2845062D01*
X3326938Y2862265D01*
X3339103Y2883335D01*
X3345399Y2906836D01*
Y2931165D01*
X3339103Y2954665D01*
X3326938Y2975735D01*
X3309735Y2992939D01*
X3288664Y3005103D01*
X3265164Y3011400D01*
D02*
G37*
G36*
X4416698Y2785488D02*
X4379398D01*
Y2741703D01*
X4470657D01*
X4468883Y2750619D01*
X4456639Y2768944D01*
X4438314Y2781188D01*
X4416698Y2785488D01*
D02*
G37*
G36*
X4353998D02*
X4316698D01*
X4295082Y2781188D01*
X4276757Y2768944D01*
X4264512Y2750619D01*
X4262739Y2741703D01*
X4353998D01*
Y2785488D01*
D02*
G37*
G36*
X4470657Y2716303D02*
X4379398D01*
Y2672517D01*
X4416698D01*
X4438314Y2676817D01*
X4456639Y2689061D01*
X4468883Y2707387D01*
X4470657Y2716303D01*
D02*
G37*
G36*
X4353998D02*
X4262739D01*
X4264512Y2707387D01*
X4276757Y2689061D01*
X4295082Y2676817D01*
X4316698Y2672517D01*
X4353998D01*
Y2716303D01*
D02*
G37*
G36*
X3669800Y2646586D02*
X3655367Y2640607D01*
X3641892Y2627133D01*
X3635914Y2612700D01*
X3669800D01*
Y2646586D01*
D02*
G37*
G36*
X4305200Y2644086D02*
Y2610200D01*
X4339086D01*
X4333107Y2624633D01*
X4319633Y2638107D01*
X4305200Y2644086D01*
D02*
G37*
G36*
X4339086Y2584800D02*
X4305200D01*
Y2550914D01*
X4319633Y2556893D01*
X4333107Y2570367D01*
X4339086Y2584800D01*
D02*
G37*
G36*
X3695200Y2646586D02*
Y2600000D01*
X3682500D01*
Y2587300D01*
X3635914D01*
X3641009Y2575000D01*
X3635866Y2562300D01*
X3599300D01*
Y2422300D01*
X3749300D01*
Y2471713D01*
X3864783D01*
X3870226Y2466270D01*
X3885846Y2459800D01*
X3902753D01*
X3918374Y2466270D01*
X3930329Y2478226D01*
X3936800Y2493846D01*
Y2510754D01*
X3930329Y2526374D01*
X3918374Y2538330D01*
X3902753Y2544800D01*
X3885846D01*
X3870226Y2538330D01*
X3864784Y2532888D01*
X3749300D01*
Y2557966D01*
X4264293D01*
X4265367Y2556893D01*
X4279800Y2550914D01*
Y2597500D01*
Y2644086D01*
X4268809Y2639533D01*
X3710707D01*
X3709633Y2640607D01*
X3695200Y2646586D01*
D02*
G37*
G36*
X3584700Y2567700D02*
X3517000D01*
Y2505000D01*
X3584700D01*
Y2567700D01*
D02*
G37*
G36*
Y2479600D02*
X3517000D01*
Y2416900D01*
X3584700D01*
Y2479600D01*
D02*
G37*
G36*
X3543597Y2257084D02*
X3518698D01*
Y2192702D01*
X3579079D01*
Y2221602D01*
X3576378Y2235180D01*
X3568687Y2246691D01*
X3557176Y2254383D01*
X3543597Y2257084D01*
D02*
G37*
G36*
X3493298D02*
X3468398D01*
X3454819Y2254383D01*
X3443308Y2246691D01*
X3435617Y2235180D01*
X3432916Y2221602D01*
Y2192702D01*
X3493298D01*
Y2257084D01*
D02*
G37*
G36*
X4542602Y4216576D02*
X4467402D01*
X4455931Y4214294D01*
X4446206Y4207796D01*
X4439708Y4198071D01*
X4437426Y4186600D01*
Y4103400D01*
X4439708Y4091929D01*
X4446206Y4082204D01*
X4455931Y4075706D01*
X4467402Y4073424D01*
X4529320D01*
X4536912Y4065832D01*
Y2170170D01*
X4492330Y2125588D01*
X4429952D01*
X4427426Y2138288D01*
X4429074Y2138970D01*
X4441030Y2150926D01*
X4447500Y2166546D01*
Y2183454D01*
X4441030Y2199074D01*
X4429074Y2211030D01*
X4413454Y2217500D01*
X4396546D01*
X4394514Y2216658D01*
X4364020Y2216391D01*
X4355000Y2225332D01*
Y2235000D01*
X4135000D01*
Y2215783D01*
X4080097D01*
X4075954Y2217500D01*
X4059046D01*
X4043426Y2211030D01*
X4031470Y2199074D01*
X4025000Y2183454D01*
Y2166546D01*
X4031470Y2150926D01*
X4033163Y2149233D01*
X4029751Y2134685D01*
X4020926Y2131030D01*
X4008970Y2119074D01*
X4002500Y2103454D01*
Y2086546D01*
X4008970Y2070926D01*
X4020926Y2058970D01*
X4036546Y2052500D01*
X4053454D01*
X4069074Y2058970D01*
X4074516Y2064412D01*
X4504999D01*
X4505000Y2064412D01*
X4516705Y2066741D01*
X4526629Y2073371D01*
X4589128Y2135871D01*
X4589129Y2135871D01*
X4595759Y2145795D01*
X4598088Y2157500D01*
X4598088Y2157501D01*
Y4078501D01*
X4598088Y4078502D01*
X4595759Y4090207D01*
X4589129Y4100131D01*
X4572578Y4116682D01*
Y4186600D01*
X4570296Y4198071D01*
X4563798Y4207796D01*
X4554073Y4214294D01*
X4542602Y4216576D01*
D02*
G37*
G36*
X3579079Y2167302D02*
X3518698D01*
Y2102920D01*
X3543597D01*
X3557176Y2105621D01*
X3568687Y2113313D01*
X3576378Y2124824D01*
X3579079Y2138402D01*
Y2167302D01*
D02*
G37*
G36*
X3493298D02*
X3432916D01*
Y2138402D01*
X3435617Y2124824D01*
X3443308Y2113313D01*
X3454819Y2105621D01*
X3468398Y2102920D01*
X3493298D01*
Y2167302D01*
D02*
G37*
G36*
X3701598Y2251578D02*
X3626398D01*
X3614926Y2249296D01*
X3605202Y2242798D01*
X3598703Y2233073D01*
X3596422Y2221602D01*
Y2138402D01*
X3598703Y2126931D01*
X3605202Y2117206D01*
X3614926Y2110708D01*
X3626398Y2108426D01*
X3701598D01*
X3713069Y2110708D01*
X3722794Y2117206D01*
X3729292Y2126931D01*
X3731574Y2138402D01*
Y2149414D01*
X3807328D01*
X3844101Y2112641D01*
Y2104046D01*
X3850571Y2088426D01*
X3862526Y2076470D01*
X3878147Y2070000D01*
X3895054D01*
X3910675Y2076470D01*
X3922630Y2088426D01*
X3929100Y2104046D01*
Y2120954D01*
X3922630Y2136574D01*
X3910675Y2148530D01*
X3895054Y2155000D01*
X3888258D01*
X3841627Y2201631D01*
X3831703Y2208261D01*
X3819998Y2210590D01*
X3819997Y2210590D01*
X3731574D01*
Y2221602D01*
X3729292Y2233073D01*
X3722794Y2242798D01*
X3713069Y2249296D01*
X3701598Y2251578D01*
D02*
G37*
G36*
X3593400Y2045979D02*
Y1934300D01*
X3656751D01*
Y1971600D01*
X3654159Y1991284D01*
X3646562Y2009625D01*
X3634476Y2025376D01*
X3618725Y2037462D01*
X3600383Y2045059D01*
X3593400Y2045979D01*
D02*
G37*
G36*
X3568000D02*
X3561016Y2045059D01*
X3542675Y2037462D01*
X3526924Y2025376D01*
X3514838Y2009625D01*
X3507241Y1991284D01*
X3504649Y1971600D01*
Y1934300D01*
X3568000D01*
Y2045979D01*
D02*
G37*
G36*
X4460200Y2044379D02*
Y1932700D01*
X4523551D01*
Y1970000D01*
X4520959Y1989684D01*
X4513362Y2008025D01*
X4501276Y2023776D01*
X4485525Y2035862D01*
X4467184Y2043459D01*
X4460200Y2044379D01*
D02*
G37*
G36*
X4434800Y2044379D02*
X4427817Y2043459D01*
X4409475Y2035862D01*
X4393724Y2023776D01*
X4381638Y2008025D01*
X4374041Y1989684D01*
X4371449Y1970000D01*
Y1932700D01*
X4434800D01*
Y2044379D01*
D02*
G37*
G36*
X3265875Y2000800D02*
X3265700D01*
Y1915700D01*
X3350799D01*
Y1915876D01*
X3344135Y1940749D01*
X3331259Y1963051D01*
X3313050Y1981259D01*
X3290749Y1994135D01*
X3265875Y2000800D01*
D02*
G37*
G36*
X3240300D02*
X3240124D01*
X3215250Y1994135D01*
X3192949Y1981259D01*
X3174740Y1963051D01*
X3161865Y1940749D01*
X3155200Y1915876D01*
Y1915700D01*
X3240300D01*
Y2000800D01*
D02*
G37*
G36*
X4312643Y1926100D02*
X4291757D01*
X4272461Y1918107D01*
X4257693Y1903339D01*
X4249700Y1884043D01*
Y1863157D01*
X4257693Y1843861D01*
X4272461Y1829092D01*
X4291757Y1821100D01*
X4312643D01*
X4331939Y1829092D01*
X4346707Y1843861D01*
X4354700Y1863157D01*
Y1884043D01*
X4346707Y1903339D01*
X4331939Y1918107D01*
X4312643Y1926100D01*
D02*
G37*
G36*
X3734643D02*
X3713757D01*
X3694461Y1918107D01*
X3679693Y1903339D01*
X3671700Y1884043D01*
Y1863157D01*
X3679693Y1843861D01*
X3694461Y1829092D01*
X3713757Y1821100D01*
X3734643D01*
X3753939Y1829092D01*
X3768707Y1843861D01*
X3776700Y1863157D01*
Y1884043D01*
X3768707Y1903339D01*
X3753939Y1918107D01*
X3734643Y1926100D01*
D02*
G37*
G36*
X3350799Y1890300D02*
X3265700D01*
Y1805200D01*
X3265875D01*
X3290749Y1811865D01*
X3313050Y1824741D01*
X3331259Y1842950D01*
X3344135Y1865251D01*
X3350799Y1890125D01*
Y1890300D01*
D02*
G37*
G36*
X3240300D02*
X3155200D01*
Y1890125D01*
X3161865Y1865251D01*
X3174740Y1842950D01*
X3192949Y1824741D01*
X3215250Y1811865D01*
X3240124Y1805200D01*
X3240300D01*
Y1890300D01*
D02*
G37*
G36*
X3656751Y1908900D02*
X3593400D01*
Y1797221D01*
X3600383Y1798140D01*
X3618725Y1805738D01*
X3634476Y1817824D01*
X3646562Y1833574D01*
X3654159Y1851916D01*
X3656751Y1871600D01*
Y1908900D01*
D02*
G37*
G36*
X3568000D02*
X3504649D01*
Y1871600D01*
X3507241Y1851916D01*
X3514838Y1833574D01*
X3526924Y1817824D01*
X3542675Y1805738D01*
X3561016Y1798140D01*
X3568000Y1797221D01*
Y1908900D01*
D02*
G37*
G36*
X3265875Y1746800D02*
X3265700D01*
Y1661700D01*
X3350799D01*
Y1661876D01*
X3344135Y1686749D01*
X3331259Y1709051D01*
X3313050Y1727259D01*
X3290749Y1740135D01*
X3265875Y1746800D01*
D02*
G37*
G36*
X3240300D02*
X3240124D01*
X3215250Y1740135D01*
X3192949Y1727259D01*
X3174740Y1709051D01*
X3161865Y1686749D01*
X3155200Y1661876D01*
Y1661700D01*
X3240300D01*
Y1746800D01*
D02*
G37*
G36*
X4789876Y1746800D02*
X4789700D01*
Y1661700D01*
X4874800D01*
Y1661875D01*
X4868135Y1686749D01*
X4855260Y1709050D01*
X4837051Y1727259D01*
X4814750Y1740135D01*
X4789876Y1746800D01*
D02*
G37*
G36*
X4764300D02*
X4764125D01*
X4739251Y1740135D01*
X4716950Y1727259D01*
X4698741Y1709050D01*
X4685865Y1686749D01*
X4679200Y1661875D01*
Y1661700D01*
X4764300D01*
Y1746800D01*
D02*
G37*
G36*
X3350799Y1636300D02*
X3265700D01*
Y1551200D01*
X3265875D01*
X3290749Y1557865D01*
X3313050Y1570741D01*
X3331259Y1588950D01*
X3344135Y1611251D01*
X3350799Y1636125D01*
Y1636300D01*
D02*
G37*
G36*
X3240300D02*
X3155200D01*
Y1636125D01*
X3161865Y1611251D01*
X3174740Y1588950D01*
X3192949Y1570741D01*
X3215250Y1557865D01*
X3240124Y1551200D01*
X3240300D01*
Y1636300D01*
D02*
G37*
G36*
X4874800Y1636300D02*
X4789700D01*
Y1551200D01*
X4789876D01*
X4814750Y1557865D01*
X4837051Y1570741D01*
X4855260Y1588949D01*
X4868135Y1611251D01*
X4874800Y1636124D01*
Y1636300D01*
D02*
G37*
G36*
X4764300D02*
X4679200D01*
Y1636124D01*
X4685865Y1611251D01*
X4698741Y1588949D01*
X4716950Y1570741D01*
X4739251Y1557865D01*
X4764125Y1551200D01*
X4764300D01*
Y1636300D01*
D02*
G37*
G36*
X4458400Y1617935D02*
Y1516300D01*
X4516708D01*
Y1548600D01*
X4514288Y1566978D01*
X4507194Y1584104D01*
X4495910Y1598810D01*
X4481204Y1610094D01*
X4464078Y1617188D01*
X4458400Y1617935D01*
D02*
G37*
G36*
X3593400D02*
Y1516300D01*
X3651707D01*
Y1548600D01*
X3649288Y1566978D01*
X3642194Y1584104D01*
X3630910Y1598810D01*
X3616204Y1610094D01*
X3599078Y1617188D01*
X3593400Y1617935D01*
D02*
G37*
G36*
X4433000D02*
X4427322Y1617188D01*
X4410196Y1610094D01*
X4395490Y1598810D01*
X4384206Y1584104D01*
X4377112Y1566978D01*
X4374693Y1548600D01*
Y1516300D01*
X4433000D01*
Y1617935D01*
D02*
G37*
G36*
X3568000D02*
X3562322Y1617188D01*
X3545196Y1610094D01*
X3530490Y1598810D01*
X3519206Y1584104D01*
X3512112Y1566978D01*
X3509692Y1548600D01*
Y1516300D01*
X3568000D01*
Y1617935D01*
D02*
G37*
G36*
X4516708Y1490900D02*
X4458400D01*
Y1389264D01*
X4464078Y1390012D01*
X4481204Y1397106D01*
X4495910Y1408390D01*
X4507194Y1423096D01*
X4514288Y1440222D01*
X4516708Y1458600D01*
Y1490900D01*
D02*
G37*
G36*
X3651707D02*
X3593400D01*
Y1389264D01*
X3599078Y1390012D01*
X3616204Y1397106D01*
X3630910Y1408390D01*
X3642194Y1423096D01*
X3649288Y1440222D01*
X3651707Y1458600D01*
Y1490900D01*
D02*
G37*
G36*
X4433000D02*
X4374693D01*
Y1458600D01*
X4377112Y1440222D01*
X4384206Y1423096D01*
X4395490Y1408390D01*
X4410196Y1397106D01*
X4427322Y1390012D01*
X4433000Y1389264D01*
Y1490900D01*
D02*
G37*
G36*
X3568000D02*
X3509692D01*
Y1458600D01*
X3512112Y1440222D01*
X3519206Y1423096D01*
X3530490Y1408390D01*
X3545196Y1397106D01*
X3562322Y1390012D01*
X3568000Y1389264D01*
Y1490900D01*
D02*
G37*
G36*
X3345399Y1487400D02*
X3160600D01*
Y1302600D01*
X3345399D01*
Y1487400D01*
D02*
G37*
G36*
X4869400Y1487400D02*
X4684600D01*
Y1302600D01*
X4869400D01*
Y1487400D01*
D02*
G37*
%LPD*%
G36*
X3580160Y6801682D02*
X3600341Y6790031D01*
X3622849Y6784000D01*
X3646152D01*
X3668660Y6790031D01*
X3671863Y6791880D01*
X3760371Y6703372D01*
X3760371Y6703371D01*
X3770295Y6696741D01*
X3782000Y6694412D01*
X3782002Y6694412D01*
X4552330D01*
X4587912Y6658830D01*
Y6529808D01*
X4579100Y6522576D01*
X4526627D01*
X4415365Y6633838D01*
X4402134Y6642679D01*
X4386526Y6645784D01*
X4386525Y6645784D01*
X3868744D01*
X3864601Y6647500D01*
X3847693D01*
X3832073Y6641030D01*
X3820117Y6629074D01*
X3813647Y6613454D01*
Y6596546D01*
X3815515Y6592037D01*
Y6344102D01*
X3811299D01*
Y6209688D01*
X3741299D01*
Y6344102D01*
X3726887D01*
Y6518014D01*
X3726887Y6518016D01*
X3724558Y6529721D01*
X3717928Y6539645D01*
X3553589Y6703984D01*
Y6811869D01*
X3566289Y6815554D01*
X3580160Y6801682D01*
D02*
G37*
G36*
X4465924Y6467926D02*
Y6417400D01*
X4468206Y6405929D01*
X4474704Y6396204D01*
X4484429Y6389706D01*
X4495900Y6387424D01*
X4579100D01*
X4584462Y6383023D01*
Y6375055D01*
X4573585Y6364576D01*
X4495900D01*
X4484429Y6362294D01*
X4474704Y6355796D01*
X4468206Y6346071D01*
X4465924Y6334600D01*
Y6259400D01*
X4468206Y6247929D01*
X4474704Y6238204D01*
X4484429Y6231706D01*
X4495900Y6229424D01*
X4579100D01*
X4587912Y6222192D01*
Y5995399D01*
X4527702D01*
Y5914999D01*
Y5834599D01*
X4575598D01*
X4577077Y5832699D01*
X4576578Y5829300D01*
X4570868Y5819999D01*
X4445002D01*
Y5780588D01*
X3758652D01*
X3753391Y5793288D01*
X3761030Y5800926D01*
X3767500Y5816546D01*
Y5833454D01*
X3761030Y5849074D01*
X3749074Y5861030D01*
X3733454Y5867500D01*
X3725758D01*
X3724886Y5868371D01*
Y5884803D01*
X3764299D01*
Y5971853D01*
X3766199Y5973123D01*
X3776714Y5967502D01*
X3846599D01*
Y6030203D01*
X3812303D01*
X3806887Y6036803D01*
X3806886Y6036804D01*
Y6113230D01*
X3811299Y6124103D01*
X3901299D01*
Y6234102D01*
Y6344102D01*
X3897082D01*
Y6564216D01*
X4369633D01*
X4465924Y6467926D01*
D02*
G37*
G36*
X4025492Y5706712D02*
X4020000Y5693454D01*
Y5685758D01*
X3999830Y5665588D01*
X3615439D01*
X3610579Y5677321D01*
X3652670Y5719412D01*
X4020215D01*
X4025492Y5706712D01*
D02*
G37*
%LPC*%
G36*
X3939699Y6030203D02*
X3871999D01*
Y5967502D01*
X3939699D01*
Y6030203D01*
D02*
G37*
G36*
X4502302Y5995399D02*
X4439602D01*
Y5927699D01*
X4502302D01*
Y5995399D01*
D02*
G37*
G36*
X3939699Y5942102D02*
X3871999D01*
Y5879403D01*
X3939699D01*
Y5942102D01*
D02*
G37*
G36*
X3846599D02*
X3778899D01*
Y5879403D01*
X3846599D01*
Y5942102D01*
D02*
G37*
G36*
X4502302Y5902299D02*
X4439602D01*
Y5834599D01*
X4502302D01*
Y5902299D01*
D02*
G37*
%LPD*%
G36*
X3197265Y4771516D02*
X3196265Y4770939D01*
X3179061Y4753735D01*
X3166897Y4732665D01*
X3160600Y4709165D01*
Y4684836D01*
X3166897Y4661335D01*
X3179061Y4640265D01*
X3196265Y4623062D01*
X3198306Y4621883D01*
X3194903Y4609183D01*
X3067597D01*
X3063454Y4610900D01*
X3046546D01*
X3043843Y4609780D01*
X3033283Y4616836D01*
Y4730607D01*
X3086893Y4784216D01*
X3193863D01*
X3197265Y4771516D01*
D02*
G37*
G36*
X3194242Y4514916D02*
X3179061Y4499735D01*
X3166897Y4478665D01*
X3160600Y4455165D01*
Y4430836D01*
X3166897Y4407335D01*
X3179061Y4386265D01*
X3196265Y4369062D01*
X3198306Y4367883D01*
X3194903Y4355183D01*
X3089400D01*
X3073792Y4352079D01*
X3060561Y4343238D01*
X3060561Y4343237D01*
X3045983Y4328660D01*
X3033283Y4333921D01*
Y4519964D01*
X3043843Y4527020D01*
X3046546Y4525900D01*
X3063454D01*
X3067597Y4527616D01*
X3191382D01*
X3194242Y4514916D01*
D02*
G37*
G36*
X3668657Y4476634D02*
X3663797Y4464900D01*
X3640407D01*
X3632507Y4470179D01*
X3616899Y4473284D01*
X3616898Y4473283D01*
X3585000D01*
Y4492500D01*
X3441294D01*
X3440179Y4498108D01*
X3431338Y4511339D01*
X3431337Y4511339D01*
X3345439Y4597238D01*
X3332207Y4606079D01*
X3316600Y4609184D01*
X3316599Y4609183D01*
X3311096D01*
X3307693Y4621883D01*
X3309735Y4623062D01*
X3326938Y4640265D01*
X3339103Y4661335D01*
X3345399Y4684836D01*
Y4709165D01*
X3339103Y4732665D01*
X3326938Y4753735D01*
X3309735Y4770939D01*
X3308734Y4771516D01*
X3312137Y4784216D01*
X3361074D01*
X3668657Y4476634D01*
D02*
G37*
G36*
X3746912Y3169831D02*
Y3147708D01*
X3734212Y3143856D01*
X3732746Y3146051D01*
X3716207Y3157102D01*
X3696698Y3160982D01*
X3596698D01*
X3578288Y3157320D01*
X3575135Y3157718D01*
X3565588Y3162821D01*
Y3324998D01*
X3565588Y3324999D01*
X3576022Y3337644D01*
X3578704Y3338038D01*
X3746912Y3169831D01*
D02*
G37*
G36*
X3983426Y3636470D02*
X3999046Y3630000D01*
X4015954D01*
X4026712Y3634456D01*
X4039412Y3627715D01*
Y3492502D01*
X4039412Y3492500D01*
X4041741Y3480795D01*
X4048371Y3470871D01*
X4097312Y3421931D01*
X4092666Y3410717D01*
Y3334798D01*
Y3259398D01*
X4160366D01*
Y3342283D01*
X4172100Y3347143D01*
X4296114Y3223129D01*
Y3156383D01*
X4280650Y3146051D01*
X4269599Y3129512D01*
X4265718Y3110003D01*
X4269599Y3090494D01*
X4280650Y3073955D01*
X4297189Y3062904D01*
X4316698Y3059023D01*
X4416698D01*
X4436207Y3062904D01*
X4440712Y3065914D01*
X4451912Y3059927D01*
Y3034882D01*
X4439212Y3028094D01*
X4436207Y3030102D01*
X4416698Y3033982D01*
X4316698D01*
X4297189Y3030102D01*
X4280650Y3019051D01*
X4269599Y3002512D01*
X4265718Y2983003D01*
X4265813Y2982529D01*
X4254108Y2976272D01*
X4221542Y3008838D01*
X4208311Y3017679D01*
X4192704Y3020784D01*
X4192703Y3020783D01*
X3960434D01*
Y3264798D01*
X3984966D01*
Y3404798D01*
X3960084D01*
Y3643218D01*
X3966628Y3646211D01*
X3972784Y3647112D01*
X3983426Y3636470D01*
D02*
G37*
%LPC*%
G36*
X4067266Y3410198D02*
X3999567D01*
Y3347498D01*
X4067266D01*
Y3410198D01*
D02*
G37*
G36*
Y3322098D02*
X3999567D01*
Y3259398D01*
X4067266D01*
Y3322098D01*
D02*
G37*
%LPD*%
D10*
X3525000Y5635000D02*
X4012500D01*
X4062500Y5685000D01*
X3640000Y5750000D02*
X4510001D01*
X3565000Y5675000D02*
X3640000Y5750000D01*
X3777500Y5027500D02*
Y5085000D01*
X4260000Y3440000D02*
Y3662500D01*
Y3440000D02*
X4482500Y3217500D01*
X4618500Y4705247D02*
Y6671500D01*
X4565000Y6725000D02*
X4618500Y6671500D01*
X4658500Y4688679D02*
Y6871500D01*
X4525000Y7005000D02*
X4658500Y6871500D01*
X4575000Y4661747D02*
X4618500Y4705247D01*
X3782000Y6725000D02*
X4565000D01*
X4575000Y4657500D02*
Y4661747D01*
X4649999Y4680178D02*
X4658500Y4688679D01*
X4649999Y4586198D02*
Y4680178D01*
X3253000Y7237000D02*
X3523001Y6966999D01*
Y6691314D02*
Y6966999D01*
X3253000Y5929000D02*
Y5967000D01*
X4510001Y5750000D02*
X4515002Y5744999D01*
X3253000Y4151000D02*
Y4189000D01*
Y3935000D02*
X3375000Y3813000D01*
Y3485000D02*
Y3813000D01*
X3253000Y5459000D02*
X3349000D01*
X3635000Y4885000D02*
X3777500Y5027500D01*
X3253000Y4151000D02*
X3425000Y3978999D01*
X4515002Y5744999D02*
Y5747502D01*
X4517500Y5750000D01*
X3874522Y5413826D02*
Y5415002D01*
X4326701Y3128480D02*
Y3235799D01*
X4070000Y3492500D02*
X4326701Y3235799D01*
X4291250Y2598750D02*
X4292500Y2597500D01*
X3682500Y2600000D02*
X3683750Y2598750D01*
X3885000Y2115000D02*
X3886601Y2113399D01*
Y2112500D02*
Y2113399D01*
X3819998Y2180002D02*
X3885000Y2115000D01*
X3663998Y2180002D02*
X3819998D01*
X4457278Y2987278D02*
X4482500Y3012500D01*
Y3217500D01*
X4505002Y4141000D02*
X4567500Y4078502D01*
X4505000Y2095000D02*
X4567500Y2157500D01*
Y4078502D01*
X4503999Y4355998D02*
X4652500Y4207497D01*
X4509120Y1765000D02*
X4652500Y1908380D01*
Y4207497D01*
X4505002Y4141000D02*
Y4145000D01*
X4342499Y4512500D02*
X4382499Y4552500D01*
X4317500Y4512500D02*
X4342499D01*
X3425000Y3535000D02*
Y3978999D01*
Y3535000D02*
X3777500Y3182500D01*
Y2936805D02*
Y3182500D01*
X3535000Y2790700D02*
Y3325000D01*
X3375000Y3485000D02*
X3535000Y3325000D01*
X3696698Y2856003D02*
X3777500Y2936805D01*
X3805000Y4615000D02*
X3862500D01*
X4007500Y3672500D02*
Y4470000D01*
X3862500Y4615000D02*
X4007500Y4470000D01*
X4055000Y4375000D02*
Y4585000D01*
Y4375000D02*
X4138078Y4291922D01*
X4105000Y4387002D02*
X4347002Y4145000D01*
X4105000Y4387002D02*
Y4515000D01*
X4503999Y4355998D02*
Y4359998D01*
X4188296Y4442719D02*
X4271017Y4359998D01*
X4346000D01*
X4124998Y5415002D02*
X4389495D01*
X4425198Y5379300D01*
X4079998Y5327498D02*
Y5370002D01*
X4124998Y5415002D01*
X4025000Y5272500D02*
X4079998Y5327498D01*
X4025000Y4755000D02*
Y5272500D01*
X3874998Y5375002D02*
X3979600Y5270400D01*
Y4804646D02*
Y5270400D01*
X3874998Y5375002D02*
Y5415002D01*
X3829998Y5369302D02*
X3874522Y5413826D01*
X3605199Y5369302D02*
X3829998D01*
X3411301Y5770699D02*
X3504801D01*
X3253000Y5929000D02*
X3411301Y5770699D01*
X3694299Y5954803D02*
X3776299Y6036803D01*
Y6179100D01*
X3694299Y5855701D02*
X3725000Y5825000D01*
X3694299Y5855701D02*
Y5954803D01*
X3696299Y6179100D02*
X3776299D01*
X3856299D01*
X3535000Y2790700D02*
X3596698Y2729003D01*
X4070000Y3492500D02*
Y4280000D01*
X4138078Y3512081D02*
Y4291922D01*
X3634501Y6872500D02*
X3782000Y6725000D01*
X3888501Y6872500D02*
X4021001Y7005000D01*
X4525000D01*
X3696299Y6289102D02*
Y6518016D01*
X3444798Y2790702D02*
X3445000Y2790500D01*
Y2785000D02*
Y2790500D01*
X3646698Y2856003D02*
X3696698D01*
X4366701Y2983003D02*
X4370977Y2987278D01*
X4457278D01*
X3596698Y2729003D02*
X3646698D01*
X4326701Y3128480D02*
X4345179Y3110003D01*
X4366701D01*
X4135998Y3510002D02*
X4138078Y3512081D01*
X4045000Y2095000D02*
X4505000D01*
X3646698Y2983003D02*
Y3110003D01*
X3985801Y4615801D02*
X4075000Y4705000D01*
X3959894Y4611017D02*
X3964677Y4615801D01*
X3985801D01*
X4140217Y4550217D02*
X4170217D01*
X4175000Y4555000D01*
X4105000Y4515000D02*
X4140217Y4550217D01*
X3523001Y6691314D02*
X3696299Y6518016D01*
X3349000Y5459000D02*
X3525000Y5635000D01*
X3357000Y5713000D02*
X3395000Y5675000D01*
X3565000D01*
X3253000Y5713000D02*
X3357000D01*
X4075000Y5152124D02*
X4196178Y5273301D01*
X4075000Y4705000D02*
Y5152124D01*
X3674298Y2502300D02*
X3894300D01*
X3894300Y2502300D01*
X4045000Y1765000D02*
X4509120D01*
X3990000Y1820000D02*
X4045000Y1765000D01*
X3990000Y1820000D02*
Y1865000D01*
X3945000Y4770046D02*
X3979600Y4804646D01*
X3955000Y4685000D02*
X4025000Y4755000D01*
X3945000Y4765000D02*
Y4770046D01*
D15*
X3525000Y4432500D02*
D03*
X4195000Y2175000D02*
D03*
X4295000D02*
D03*
X3422500Y4432500D02*
D03*
D18*
X3505998Y2180002D02*
D03*
X3663998D02*
D03*
X3572500Y3580000D02*
D03*
X3730500D02*
D03*
X4345998Y4359998D02*
D03*
X4503999D02*
D03*
X4347002Y4145000D02*
D03*
X4505002D02*
D03*
D19*
X3504425Y6297245D02*
D03*
Y6455246D02*
D03*
X4537500Y6297000D02*
D03*
Y6455000D02*
D03*
D20*
X4515002Y5914999D02*
D03*
Y5744999D02*
D03*
X3504801Y5940699D02*
D03*
Y5770699D02*
D03*
X3445000Y2955000D02*
D03*
Y2785000D02*
D03*
X3875900Y4241101D02*
D03*
Y4411101D02*
D03*
X4425198Y5379300D02*
D03*
Y5549300D02*
D03*
X3605199Y5369302D02*
D03*
Y5539302D02*
D03*
D22*
X4723553Y4570000D02*
X4975000D01*
X4588359Y4522500D02*
X4622402Y4488457D01*
X4639904D02*
X4640000Y4488360D01*
X4622402Y4488457D02*
X4639904D01*
X4232500Y4872499D02*
X4582499Y4522500D01*
X4641053Y4487500D02*
X4723553Y4570000D01*
X4582499Y4522500D02*
X4588359D01*
X3316600Y4568400D02*
X3402500Y4482500D01*
X3055000Y4568400D02*
X3316600D01*
X3402500Y4452500D02*
X3422500Y4432500D01*
X3402500Y4452500D02*
Y4482500D01*
X3615000Y4125000D02*
X3757267D01*
X3422500Y4317500D02*
Y4432500D01*
Y4317500D02*
X3615000Y4125000D01*
X3089400Y4314400D02*
X3320600D01*
X3475000Y3914098D02*
Y4160000D01*
X3320600Y4314400D02*
X3475000Y4160000D01*
X3395000Y2299001D02*
Y2482500D01*
X3253000Y2157000D02*
X3395000Y2299001D01*
X3065000Y2587500D02*
X3115000Y2537500D01*
X3340000D02*
X3395000Y2482500D01*
X3115000Y2537500D02*
X3340000D01*
X3504712Y6604712D02*
X3505000Y6605000D01*
X3504425Y6455246D02*
X3504712Y6455533D01*
Y6604712D01*
X4506500Y6482000D02*
X4536000Y6452500D01*
X3919301Y3334798D02*
Y3822948D01*
X2992500Y2472500D02*
X3054000Y2411000D01*
X2992500Y2472500D02*
Y4747500D01*
X3070000Y4825000D01*
X3065000Y4290000D02*
X3089400Y4314400D01*
X3065000Y2587500D02*
Y4290000D01*
X3525000Y4432500D02*
X3616899D01*
X4067500Y2175000D02*
X4195000D01*
X4295000D02*
X4404044Y2175957D01*
X4405000Y2175000D01*
X3683750Y2598750D02*
X4291250D01*
X4506500Y6482000D02*
Y6485027D01*
X4386526Y6605000D02*
X4506500Y6485027D01*
X3856147Y6605000D02*
X4386526D01*
X3780698Y3995198D02*
X3785701D01*
X3815701Y3965198D01*
Y3960198D02*
X3884507Y3891392D01*
X3884508D02*
X3919043Y3856856D01*
Y3825957D02*
Y3856856D01*
X3815701Y3960198D02*
Y3965198D01*
X3884507Y3891392D02*
X3884508D01*
X3919043Y3825957D02*
X3920000Y3825000D01*
X3652999Y4394901D02*
Y4396401D01*
X3616899Y4432500D02*
X3652999Y4396401D01*
X3606598Y3782500D02*
X3610000D01*
X3054000Y2411000D02*
X3214999D01*
X3475000Y3914098D02*
X3606598Y3782500D01*
X3780698Y3995198D02*
Y4101568D01*
X3757267Y4125000D02*
X3780698Y4101568D01*
X3070000Y4825000D02*
X3377968D01*
X3767849Y4435119D01*
Y4241101D02*
X3875900D01*
X3659798D02*
X3767849D01*
Y4435119D01*
X3875900Y4241101D02*
X3882699Y4234302D01*
X3652999Y4247901D02*
X3659798Y4241101D01*
X4232500Y4872499D02*
Y5062500D01*
X4233853D02*
X4236353Y5065000D01*
X4232500Y5062500D02*
X4233853D01*
X4236353Y5065000D02*
X4355000D01*
X3920000Y2980000D02*
X4192704D01*
X4316701Y2856003D02*
X4366701D01*
X4192704Y2980000D02*
X4316701Y2856003D01*
X3919651Y2980349D02*
X3920000Y2980000D01*
X3919301Y3334798D02*
X3919651Y3334448D01*
Y2980349D02*
Y3334448D01*
X3856147Y6605000D02*
X3856299Y6604848D01*
Y6289102D02*
Y6604848D01*
D23*
X4079966Y3334798D02*
X4089298D01*
D25*
X4777000Y1395000D02*
D03*
X3253000Y1395000D02*
D03*
D26*
X4777000Y1649000D02*
D03*
Y1903000D02*
D03*
Y2157000D02*
D03*
Y2411000D02*
D03*
Y2665000D02*
D03*
Y2919000D02*
D03*
Y3173000D02*
D03*
Y3427000D02*
D03*
Y3681000D02*
D03*
Y3935000D02*
D03*
Y4189000D02*
D03*
Y4443000D02*
D03*
Y4697000D02*
D03*
Y4951000D02*
D03*
Y5205000D02*
D03*
Y5459000D02*
D03*
Y5713000D02*
D03*
Y5967000D02*
D03*
Y6221000D02*
D03*
Y6475000D02*
D03*
Y6729000D02*
D03*
Y6983000D02*
D03*
Y7237000D02*
D03*
X3253000Y1649000D02*
D03*
Y1903000D02*
D03*
Y2157000D02*
D03*
Y2411000D02*
D03*
Y2665000D02*
D03*
Y2919000D02*
D03*
Y3173000D02*
D03*
Y3427000D02*
D03*
Y3681000D02*
D03*
Y3935000D02*
D03*
Y4189000D02*
D03*
Y4443000D02*
D03*
Y4697000D02*
D03*
Y4951000D02*
D03*
Y5205000D02*
D03*
Y5459000D02*
D03*
Y5713000D02*
D03*
Y5967000D02*
D03*
Y6221000D02*
D03*
Y6475000D02*
D03*
Y6729000D02*
D03*
Y6983000D02*
D03*
Y7237000D02*
D03*
D27*
X4447500Y1920000D02*
D03*
X3580700Y1921600D02*
D03*
D28*
X4445700Y1503600D02*
D03*
X3580700D02*
D03*
D29*
X4302200Y1873600D02*
D03*
X3724200D02*
D03*
D30*
X3634501Y6872500D02*
D03*
X3888501D02*
D03*
X4142501D02*
D03*
D31*
X4396501D02*
D03*
D32*
X4062500Y5685000D02*
D03*
X3777500Y5085000D02*
D03*
X4515002Y5914999D02*
D03*
X4975000Y4570000D02*
D03*
X4260000Y3662500D02*
D03*
X4649999Y4586198D02*
D03*
X4575000Y4657500D02*
D03*
X4640000Y4487500D02*
D03*
X3505000Y6605000D02*
D03*
X3635000Y4885000D02*
D03*
X4517500Y5750000D02*
D03*
X3055000Y4568400D02*
D03*
X3504801Y5770699D02*
D03*
X4067500Y2175000D02*
D03*
X4405000D02*
D03*
X4292500Y2597500D02*
D03*
X3682500Y2600000D02*
D03*
X4535000Y6292500D02*
D03*
X3886601Y2112500D02*
D03*
X4317500Y4512500D02*
D03*
X3572500Y3580000D02*
D03*
X3920000Y3825000D02*
D03*
X3504300Y2492300D02*
D03*
X3610000Y3782500D02*
D03*
X3610701Y3995198D02*
D03*
X3882699Y4234302D02*
D03*
X4007500Y3672500D02*
D03*
X4196178Y5273301D02*
D03*
X4079966Y3334798D02*
D03*
X4232500Y5062500D02*
D03*
X4070000Y4280000D02*
D03*
X3660000Y2980000D02*
D03*
X3920000D02*
D03*
X3856147Y6605000D02*
D03*
X3445000Y2785000D02*
D03*
X4135998Y3510002D02*
D03*
X4045000Y2095000D02*
D03*
X3945000Y4765000D02*
D03*
X3805000Y4615000D02*
D03*
X4055000Y4585000D02*
D03*
X4188296Y4442719D02*
D03*
X4175000Y4555000D02*
D03*
X3725000Y5825000D02*
D03*
X3504425Y6297248D02*
D03*
X3959894Y4611017D02*
D03*
X3894300Y2502300D02*
D03*
X3990000Y1865000D02*
D03*
X3955000Y4685000D02*
D03*
D33*
X3652999Y4394901D02*
D03*
Y4247901D02*
D03*
D34*
X3504300Y2492300D02*
D03*
X3674300D02*
D03*
X3909966Y3334798D02*
D03*
X4079966D02*
D03*
X3610000Y3782500D02*
D03*
X3780000D02*
D03*
X3780701Y3995198D02*
D03*
X3610701D02*
D03*
X4552499Y4552500D02*
D03*
X4382499D02*
D03*
X4355000Y5065000D02*
D03*
X4525000D02*
D03*
X3689299Y5954803D02*
D03*
X3859299D02*
D03*
D35*
X3646698Y3110003D02*
D03*
Y2983003D02*
D03*
Y2856003D02*
D03*
Y2729003D02*
D03*
X4366698D02*
D03*
Y2856003D02*
D03*
Y2983003D02*
D03*
Y3110003D02*
D03*
D36*
X3874998Y5415002D02*
D03*
X4124998D02*
D03*
D37*
X3696299Y6179102D02*
D03*
Y6289102D02*
D03*
X3856299Y6179102D02*
D03*
Y6289102D02*
D03*
%TF.MD5,2cc4dde39977337178795335e14d516f*%
M02*
