%TF.GenerationSoftware,Altium Limited,Altium Designer,22.10.1 (41)*%
G04 Layer_Color=128*
%FSLAX45Y45*%
%MOMM*%
%TF.SameCoordinates,F1D13F34-3715-448E-B12D-83C564530F5A*%
%TF.FilePolarity,Positive*%
%TF.FileFunction,Paste,Bot*%
%TF.Part,Single*%
G01*
G75*
%TA.AperFunction,SMDPad,CuDef*%
%ADD15R,0.80000X0.80000*%
G04:AMPARAMS|DCode=18|XSize=0.94mm|YSize=1.02mm|CornerRadius=0.094mm|HoleSize=0mm|Usage=FLASHONLY|Rotation=0.000|XOffset=0mm|YOffset=0mm|HoleType=Round|Shape=RoundedRectangle|*
%AMROUNDEDRECTD18*
21,1,0.94000,0.83200,0,0,0.0*
21,1,0.75200,1.02000,0,0,0.0*
1,1,0.18800,0.37600,-0.41600*
1,1,0.18800,-0.37600,-0.41600*
1,1,0.18800,-0.37600,0.41600*
1,1,0.18800,0.37600,0.41600*
%
%ADD18ROUNDEDRECTD18*%
G04:AMPARAMS|DCode=19|XSize=0.94mm|YSize=1.02mm|CornerRadius=0.094mm|HoleSize=0mm|Usage=FLASHONLY|Rotation=90.000|XOffset=0mm|YOffset=0mm|HoleType=Round|Shape=RoundedRectangle|*
%AMROUNDEDRECTD19*
21,1,0.94000,0.83200,0,0,90.0*
21,1,0.75200,1.02000,0,0,90.0*
1,1,0.18800,0.41600,0.37600*
1,1,0.18800,0.41600,-0.37600*
1,1,0.18800,-0.41600,-0.37600*
1,1,0.18800,-0.41600,0.37600*
%
%ADD19ROUNDEDRECTD19*%
%ADD20R,1.00000X1.10000*%
%ADD33R,0.97000X1.00000*%
%ADD34R,1.10000X1.00000*%
%ADD35O,1.60000X0.60000*%
%ADD36R,1.10000X1.90000*%
%ADD37R,0.50000X0.70000*%
D15*
X3525000Y4432500D02*
D03*
X4195000Y2175000D02*
D03*
X4295000D02*
D03*
X3422500Y4432500D02*
D03*
D18*
X3505998Y2180002D02*
D03*
X3663998D02*
D03*
X3572500Y3580000D02*
D03*
X3730500D02*
D03*
X4345998Y4359998D02*
D03*
X4503999D02*
D03*
X4347002Y4145000D02*
D03*
X4505002D02*
D03*
D19*
X3504425Y6297245D02*
D03*
Y6455246D02*
D03*
X4537500Y6297000D02*
D03*
Y6455000D02*
D03*
D20*
X4515002Y5914999D02*
D03*
Y5744999D02*
D03*
X3504801Y5940699D02*
D03*
Y5770699D02*
D03*
X3445000Y2955000D02*
D03*
Y2785000D02*
D03*
X3875900Y4241101D02*
D03*
Y4411101D02*
D03*
X4425198Y5379300D02*
D03*
Y5549300D02*
D03*
X3605199Y5369302D02*
D03*
Y5539302D02*
D03*
D33*
X3652999Y4394901D02*
D03*
Y4247901D02*
D03*
D34*
X3504300Y2492300D02*
D03*
X3674300D02*
D03*
X3909966Y3334798D02*
D03*
X4079966D02*
D03*
X3610000Y3782500D02*
D03*
X3780000D02*
D03*
X3780701Y3995198D02*
D03*
X3610701D02*
D03*
X4552499Y4552500D02*
D03*
X4382499D02*
D03*
X4355000Y5065000D02*
D03*
X4525000D02*
D03*
X3689299Y5954803D02*
D03*
X3859299D02*
D03*
D35*
X3646698Y3110003D02*
D03*
Y2983003D02*
D03*
Y2856003D02*
D03*
Y2729003D02*
D03*
X4366698D02*
D03*
Y2856003D02*
D03*
Y2983003D02*
D03*
Y3110003D02*
D03*
D36*
X3874998Y5415002D02*
D03*
X4124998D02*
D03*
D37*
X3696299Y6179102D02*
D03*
Y6289102D02*
D03*
X3856299Y6179102D02*
D03*
Y6289102D02*
D03*
%TF.MD5,3cb306391b58dc9ef4e54916d7accc3b*%
M02*
