%TF.GenerationSoftware,Altium Limited,Altium Designer,22.10.1 (41)*%
G04 Layer_Color=0*
%FSLAX45Y45*%
%MOMM*%
%TF.SameCoordinates,F1D13F34-3715-448E-B12D-83C564530F5A*%
%TF.FilePolarity,Positive*%
%TF.FileFunction,Plated,1,2,PTH,Drill*%
%TF.Part,Single*%
G01*
G75*
%TA.AperFunction,ComponentDrill*%
%ADD72C,0.94000*%
%ADD73O,0.65000X1.72032*%
%ADD74O,0.65000X1.40000*%
%ADD75C,1.02000*%
%TA.AperFunction,ViaDrill,NotFilled*%
%ADD76C,0.25000*%
D72*
X4777000Y1395000D02*
D03*
Y1649000D02*
D03*
Y1903000D02*
D03*
Y2157000D02*
D03*
Y2411000D02*
D03*
Y2665000D02*
D03*
Y2919000D02*
D03*
Y3173000D02*
D03*
Y3427000D02*
D03*
Y3681000D02*
D03*
Y3935000D02*
D03*
Y4189000D02*
D03*
Y4443000D02*
D03*
Y4697000D02*
D03*
Y4951000D02*
D03*
Y5205000D02*
D03*
Y5459000D02*
D03*
Y5713000D02*
D03*
Y5967000D02*
D03*
Y6221000D02*
D03*
Y6475000D02*
D03*
Y6729000D02*
D03*
Y6983000D02*
D03*
Y7237000D02*
D03*
X3253000Y1395000D02*
D03*
Y1649000D02*
D03*
Y1903000D02*
D03*
Y2157000D02*
D03*
Y2411000D02*
D03*
Y2665000D02*
D03*
Y2919000D02*
D03*
Y3173000D02*
D03*
Y3427000D02*
D03*
Y3681000D02*
D03*
Y3935000D02*
D03*
Y4189000D02*
D03*
Y4443000D02*
D03*
Y4697000D02*
D03*
Y4951000D02*
D03*
Y5205000D02*
D03*
Y5459000D02*
D03*
Y5713000D02*
D03*
Y5967000D02*
D03*
Y6221000D02*
D03*
Y6475000D02*
D03*
Y6729000D02*
D03*
Y6983000D02*
D03*
Y7237000D02*
D03*
D73*
X4447500Y1920000D02*
D03*
X3580700Y1921600D02*
D03*
D74*
X4445700Y1503600D02*
D03*
X3580700D02*
D03*
D75*
X3634501Y6872500D02*
D03*
X3888501D02*
D03*
X4142501D02*
D03*
X4396501D02*
D03*
D76*
X4062500Y5685000D02*
D03*
X3777500Y5085000D02*
D03*
X4515002Y5914999D02*
D03*
X4975000Y4570000D02*
D03*
X4260000Y3662500D02*
D03*
X4649999Y4586198D02*
D03*
X4575000Y4657500D02*
D03*
X4640000Y4487500D02*
D03*
X3505000Y6605000D02*
D03*
X3635000Y4885000D02*
D03*
X4517500Y5750000D02*
D03*
X3055000Y4568400D02*
D03*
X3504801Y5770699D02*
D03*
X4067500Y2175000D02*
D03*
X4405000D02*
D03*
X4292500Y2597500D02*
D03*
X3682500Y2600000D02*
D03*
X4535000Y6292500D02*
D03*
X3886601Y2112500D02*
D03*
X4317500Y4512500D02*
D03*
X3572500Y3580000D02*
D03*
X3920000Y3825000D02*
D03*
X3504300Y2492300D02*
D03*
X3610000Y3782500D02*
D03*
X3610701Y3995198D02*
D03*
X3882699Y4234302D02*
D03*
X4007500Y3672500D02*
D03*
X4196178Y5273301D02*
D03*
X4079966Y3334798D02*
D03*
X4232500Y5062500D02*
D03*
X4070000Y4280000D02*
D03*
X3660000Y2980000D02*
D03*
X3920000D02*
D03*
X3856147Y6605000D02*
D03*
X3445000Y2785000D02*
D03*
X4135998Y3510002D02*
D03*
X4045000Y2095000D02*
D03*
X3945000Y4765000D02*
D03*
X3805000Y4615000D02*
D03*
X4055000Y4585000D02*
D03*
X4188296Y4442719D02*
D03*
X4175000Y4555000D02*
D03*
X3725000Y5825000D02*
D03*
X3504425Y6297248D02*
D03*
X3959894Y4611017D02*
D03*
X3894300Y2502300D02*
D03*
X3990000Y1865000D02*
D03*
X3955000Y4685000D02*
D03*
%TF.MD5,57f68d73b8727f1dffb88949a964b3a6*%
M02*
