%TF.GenerationSoftware,Altium Limited,Altium Designer,22.10.1 (41)*%
G04 Layer_Color=32768*
%FSLAX45Y45*%
%MOMM*%
%TF.SameCoordinates,F1D13F34-3715-448E-B12D-83C564530F5A*%
%TF.FilePolarity,Positive*%
%TF.FileFunction,Other,Mechanical_15*%
%TF.Part,Single*%
G01*
G75*
%TA.AperFunction,NonConductor*%
%ADD68C,0.05000*%
%ADD69C,0.05080*%
D68*
X3634998Y5189999D02*
Y5319999D01*
Y5609999D01*
Y5739999D01*
X4384998D01*
Y5609999D02*
Y5739999D01*
Y5319999D02*
Y5609999D01*
Y5189999D02*
Y5319999D01*
X3634998Y5189999D02*
X4384998D01*
X4224500Y2231000D02*
Y2581000D01*
X3824500D02*
X4224500D01*
X3824500Y2231000D02*
Y2581000D01*
Y2231000D02*
X4224500D01*
X4635200Y1258200D02*
X4918800D01*
X4635200D02*
Y7373800D01*
X4918800D01*
Y1258200D02*
Y7373800D01*
X3111200Y1258200D02*
X3394800D01*
X3111200D02*
Y7373800D01*
X3394800D01*
Y1258200D02*
Y7373800D01*
X3505700Y2062600D02*
X4520700D01*
Y1220600D02*
Y2062600D01*
X3505700Y1220600D02*
X4520700D01*
X3505700D02*
Y2062600D01*
X3482501Y7900500D02*
X4548501D01*
X3482501Y6593500D02*
Y7900500D01*
Y6593500D02*
X4548501D01*
Y7900500D01*
X3433998Y2104002D02*
X3735998D01*
Y2256002D01*
X3433998D02*
X3735998D01*
X3433998Y2104002D02*
Y2256002D01*
X4471698Y2624503D02*
Y3237503D01*
X3541698Y2624503D02*
X4471698D01*
X3541698D02*
Y3237503D01*
X4471698D01*
X3500500Y3504000D02*
X3802500D01*
Y3656000D01*
X3500500D02*
X3802500D01*
X3500500Y3504000D02*
Y3656000D01*
X3579499Y4469901D02*
X3726499D01*
Y4172900D02*
Y4469901D01*
X3579499Y4172900D02*
X3726499D01*
X3579499D02*
Y4469901D01*
X4273999Y4283998D02*
X4575998D01*
Y4435998D01*
X4273999D02*
X4575998D01*
X4273999Y4283998D02*
Y4435998D01*
X4275002Y4069000D02*
X4577002D01*
Y4221000D01*
X4275002D02*
X4577002D01*
X4275002Y4069000D02*
Y4221000D01*
X3794998Y5295002D02*
Y5535002D01*
X4204998D01*
X3794998Y5295002D02*
X4204998D01*
Y5535002D01*
X3580425Y6225246D02*
Y6527246D01*
X3428424D02*
X3580425D01*
X3428424Y6225246D02*
Y6527246D01*
Y6225246D02*
X3580425D01*
X4613500Y6225000D02*
Y6527000D01*
X4461500D02*
X4613500D01*
X4461500Y6225000D02*
Y6527000D01*
Y6225000D02*
X4613500D01*
X3439424Y6067249D02*
X3569425D01*
Y6362249D01*
X3439424D02*
X3569425D01*
X3439424Y6067249D02*
Y6362249D01*
X4471923Y6052250D02*
X4601923D01*
Y6347250D01*
X4471923D02*
X4601923D01*
X4471923Y6052250D02*
Y6347250D01*
X3283081Y4444247D02*
X4013523Y3713806D01*
Y5174689D02*
X4743964Y4444247D01*
X3283081D02*
X4013523Y5174689D01*
Y3713806D02*
X4743964Y4444247D01*
X3634002Y3586002D02*
X3936002D01*
Y3434002D02*
Y3586002D01*
X3634002Y3434002D02*
X3936002D01*
X3634002D02*
Y3586002D01*
X4059998Y3438002D02*
Y3740002D01*
X4211998D01*
Y3438002D02*
Y3740002D01*
X4059998Y3438002D02*
X4211998D01*
D69*
X4436702Y5662699D02*
Y5997299D01*
Y5662699D02*
X4593302D01*
Y5997299D01*
X4436702D02*
X4593302D01*
X3426501Y5688399D02*
Y6022999D01*
Y5688399D02*
X3583101D01*
Y6022999D01*
X3426501D02*
X3583101D01*
X3756600Y2414000D02*
Y2570600D01*
X3422000Y2414000D02*
X3756600D01*
X3422000D02*
Y2570600D01*
X3756600D01*
X3366700Y2702700D02*
X3523300D01*
X3366700D02*
Y3037300D01*
X3523300D01*
Y2702700D02*
Y3037300D01*
X4162266Y3256498D02*
Y3413098D01*
X3827666Y3256498D02*
X4162266D01*
X3827666D02*
Y3413098D01*
X4162266D01*
X3862300Y3704200D02*
Y3860800D01*
X3527700Y3704200D02*
X3862300D01*
X3527700D02*
Y3860800D01*
X3862300D01*
X3528401Y3916898D02*
Y4073498D01*
X3863001D01*
Y3916898D02*
Y4073498D01*
X3528401Y3916898D02*
X3863001D01*
X3797600Y4493401D02*
X3954200D01*
Y4158801D02*
Y4493401D01*
X3797600Y4158801D02*
X3954200D01*
X3797600D02*
Y4493401D01*
X4300199Y4474200D02*
Y4630800D01*
X4634799D01*
Y4474200D02*
Y4630800D01*
X4300199Y4474200D02*
X4634799D01*
X4607300Y4986700D02*
Y5143300D01*
X4272700Y4986700D02*
X4607300D01*
X4272700D02*
Y5143300D01*
X4607300D01*
X4346898Y5631600D02*
X4503498D01*
Y5297000D02*
Y5631600D01*
X4346898Y5297000D02*
X4503498D01*
X4346898D02*
Y5631600D01*
X3526899Y5621602D02*
X3683499D01*
Y5287002D02*
Y5621602D01*
X3526899Y5287002D02*
X3683499D01*
X3526899D02*
Y5621602D01*
X3941599Y5876503D02*
Y6033103D01*
X3606999Y5876503D02*
X3941599D01*
X3606999D02*
Y6033103D01*
X3941599D01*
X4339400Y2238400D02*
X4496000D01*
Y2573000D01*
X4339400D02*
X4496000D01*
X4339400Y2238400D02*
Y2573000D01*
X3606900Y2238400D02*
X3763500D01*
Y2573000D01*
X3606900D02*
X3763500D01*
X3606900Y2238400D02*
Y2573000D01*
%TF.MD5,8e6d6be792316162f275023e79bcdca0*%
M02*
