%TF.GenerationSoftware,Altium Limited,Altium Designer,22.10.1 (41)*%
G04 Layer_Color=128*
%FSLAX45Y45*%
%MOMM*%
%TF.SameCoordinates,F1D13F34-3715-448E-B12D-83C564530F5A*%
%TF.FilePolarity,Positive*%
%TF.FileFunction,Drillmap*%
%TF.Part,Single*%
G01*
G75*
%TA.AperFunction,NonConductor*%
%ADD63C,0.12700*%
D63*
X4730000Y1395000D02*
X4824000D01*
X4777000Y1348000D02*
Y1442000D01*
X4730000Y1649000D02*
X4824000D01*
X4777000Y1602000D02*
Y1696000D01*
X4730000Y1903000D02*
X4824000D01*
X4777000Y1856000D02*
Y1950000D01*
X4730000Y2157000D02*
X4824000D01*
X4777000Y2110000D02*
Y2204000D01*
X4730000Y2411000D02*
X4824000D01*
X4777000Y2364000D02*
Y2458000D01*
X4730000Y2665000D02*
X4824000D01*
X4777000Y2618000D02*
Y2712000D01*
X4730000Y2919000D02*
X4824000D01*
X4777000Y2872000D02*
Y2966000D01*
X4730000Y3173000D02*
X4824000D01*
X4777000Y3126000D02*
Y3220000D01*
X4730000Y3427000D02*
X4824000D01*
X4777000Y3380000D02*
Y3474000D01*
X4730000Y3681000D02*
X4824000D01*
X4777000Y3634000D02*
Y3728000D01*
X4730000Y3935000D02*
X4824000D01*
X4777000Y3888000D02*
Y3982000D01*
X4730000Y4189000D02*
X4824000D01*
X4777000Y4142000D02*
Y4236000D01*
X4730000Y4443000D02*
X4824000D01*
X4777000Y4396000D02*
Y4490000D01*
X4730000Y4697000D02*
X4824000D01*
X4777000Y4650000D02*
Y4744000D01*
X4730000Y4951000D02*
X4824000D01*
X4777000Y4904000D02*
Y4998000D01*
X4730000Y5205000D02*
X4824000D01*
X4777000Y5158000D02*
Y5252000D01*
X4730000Y5459000D02*
X4824000D01*
X4777000Y5412000D02*
Y5506000D01*
X4730000Y5713000D02*
X4824000D01*
X4777000Y5666000D02*
Y5760000D01*
X4730000Y5967000D02*
X4824000D01*
X4777000Y5920000D02*
Y6014000D01*
X4730000Y6221000D02*
X4824000D01*
X4777000Y6174000D02*
Y6268000D01*
X4730000Y6475000D02*
X4824000D01*
X4777000Y6428000D02*
Y6522000D01*
X4730000Y6729000D02*
X4824000D01*
X4777000Y6682000D02*
Y6776000D01*
X4730000Y6983000D02*
X4824000D01*
X4777000Y6936000D02*
Y7030000D01*
X4730000Y7237000D02*
X4824000D01*
X4777000Y7190000D02*
Y7284000D01*
X3206000Y1395000D02*
X3299999D01*
X3253000Y1348000D02*
Y1442000D01*
X3206000Y1649000D02*
X3299999D01*
X3253000Y1602000D02*
Y1696000D01*
X3206000Y1903000D02*
X3299999D01*
X3253000Y1856000D02*
Y1950000D01*
X3206000Y2157000D02*
X3299999D01*
X3253000Y2110000D02*
Y2204000D01*
X3206000Y2411000D02*
X3299999D01*
X3253000Y2364000D02*
Y2458000D01*
X3206000Y2665000D02*
X3299999D01*
X3253000Y2618000D02*
Y2712000D01*
X3206000Y2919000D02*
X3299999D01*
X3253000Y2872000D02*
Y2966000D01*
X3206000Y3173000D02*
X3299999D01*
X3253000Y3126000D02*
Y3220000D01*
X3206000Y3427000D02*
X3299999D01*
X3253000Y3380000D02*
Y3474000D01*
X3206000Y3681000D02*
X3299999D01*
X3253000Y3634000D02*
Y3728000D01*
X3206000Y3935000D02*
X3299999D01*
X3253000Y3888000D02*
Y3982000D01*
X3206000Y4189000D02*
X3299999D01*
X3253000Y4142000D02*
Y4236000D01*
X3206000Y4443000D02*
X3299999D01*
X3253000Y4396000D02*
Y4490000D01*
X3206000Y4697000D02*
X3299999D01*
X3253000Y4650000D02*
Y4744000D01*
X3206000Y4951000D02*
X3299999D01*
X3253000Y4904000D02*
Y4998000D01*
X3206000Y5205000D02*
X3299999D01*
X3253000Y5158000D02*
Y5252000D01*
X3206000Y5459000D02*
X3299999D01*
X3253000Y5412000D02*
Y5506000D01*
X3206000Y5713000D02*
X3299999D01*
X3253000Y5666000D02*
Y5760000D01*
X3206000Y5967000D02*
X3299999D01*
X3253000Y5920000D02*
Y6014000D01*
X3206000Y6221000D02*
X3299999D01*
X3253000Y6174000D02*
Y6268000D01*
X3206000Y6475000D02*
X3299999D01*
X3253000Y6428000D02*
Y6522000D01*
X3206000Y6729000D02*
X3299999D01*
X3253000Y6682000D02*
Y6776000D01*
X3206000Y6983000D02*
X3299999D01*
X3253000Y6936000D02*
Y7030000D01*
X3206000Y7237000D02*
X3299999D01*
X3253000Y7190000D02*
Y7284000D01*
X4415000Y1920000D02*
X4480000D01*
X4447500Y1887500D02*
Y1952500D01*
X4413200Y1503600D02*
X4478200D01*
X4445700Y1471100D02*
Y1536100D01*
X3548200Y1503600D02*
X3613200D01*
X3580700Y1471100D02*
Y1536100D01*
X3548200Y1921600D02*
X3613200D01*
X3580700Y1889100D02*
Y1954100D01*
X4269700Y1873600D02*
X4334700D01*
X4302200Y1841100D02*
Y1906100D01*
X3691700Y1873600D02*
X3756700D01*
X3724200Y1841100D02*
Y1906100D01*
X3583501Y6872500D02*
X3685501D01*
X3634501Y6821500D02*
Y6923499D01*
X3837501Y6872500D02*
X3939501D01*
X3888501Y6821500D02*
Y6923499D01*
X4091501Y6872500D02*
X4193501D01*
X4142501Y6821500D02*
Y6923499D01*
X4345501Y6872500D02*
X4447501D01*
X4396501Y6821500D02*
Y6923499D01*
X4050000Y5685000D02*
X4075000D01*
X4062500Y5672500D02*
Y5697500D01*
X3765000Y5085000D02*
X3790000D01*
X3777500Y5072500D02*
Y5097500D01*
X4502502Y5914999D02*
X4527502D01*
X4515002Y5902499D02*
Y5927499D01*
X4962500Y4570000D02*
X4987500D01*
X4975000Y4557500D02*
Y4582500D01*
X4247500Y3662500D02*
X4272500D01*
X4260000Y3650000D02*
Y3675000D01*
X4637499Y4586198D02*
X4662499D01*
X4649999Y4573698D02*
Y4598698D01*
X4562500Y4657500D02*
X4587500D01*
X4575000Y4645000D02*
Y4670000D01*
X4627500Y4487500D02*
X4652500D01*
X4640000Y4475000D02*
Y4500000D01*
X3492500Y6605000D02*
X3517500D01*
X3505000Y6592500D02*
Y6617500D01*
X3622500Y4885000D02*
X3647500D01*
X3635000Y4872500D02*
Y4897500D01*
X4505000Y5750000D02*
X4530000D01*
X4517500Y5737500D02*
Y5762500D01*
X3042500Y4568400D02*
X3067500D01*
X3055000Y4555900D02*
Y4580900D01*
X3492301Y5770699D02*
X3517301D01*
X3504801Y5758199D02*
Y5783198D01*
X4055000Y2175000D02*
X4080000D01*
X4067500Y2162500D02*
Y2187500D01*
X4392500Y2175000D02*
X4417500D01*
X4405000Y2162500D02*
Y2187500D01*
X4280000Y2597500D02*
X4305000D01*
X4292500Y2585000D02*
Y2610000D01*
X3670000Y2600000D02*
X3695000D01*
X3682500Y2587500D02*
Y2612500D01*
X4522500Y6292500D02*
X4547500D01*
X4535000Y6280000D02*
Y6305000D01*
X3874101Y2112500D02*
X3899100D01*
X3886601Y2100000D02*
Y2125000D01*
X4305000Y4512500D02*
X4330000D01*
X4317500Y4500000D02*
Y4525000D01*
X3560000Y3580000D02*
X3585000D01*
X3572500Y3567500D02*
Y3592500D01*
X3907500Y3825000D02*
X3932500D01*
X3920000Y3812500D02*
Y3837500D01*
X3491800Y2492300D02*
X3516800D01*
X3504300Y2479800D02*
Y2504800D01*
X3597500Y3782500D02*
X3622500D01*
X3610000Y3770000D02*
Y3795000D01*
X3598201Y3995198D02*
X3623201D01*
X3610701Y3982698D02*
Y4007698D01*
X3870200Y4234302D02*
X3895199D01*
X3882699Y4221802D02*
Y4246802D01*
X3995000Y3672500D02*
X4020000D01*
X4007500Y3660000D02*
Y3685000D01*
X4183678Y5273301D02*
X4208678D01*
X4196178Y5260802D02*
Y5285801D01*
X4067467Y3334798D02*
X4092466D01*
X4079966Y3322298D02*
Y3347298D01*
X4220000Y5062500D02*
X4245000D01*
X4232500Y5050000D02*
Y5075000D01*
X4057500Y4280000D02*
X4082500D01*
X4070000Y4267500D02*
Y4292500D01*
X3647500Y2980000D02*
X3672500D01*
X3660000Y2967500D02*
Y2992500D01*
X3907500Y2980000D02*
X3932500D01*
X3920000Y2967500D02*
Y2992500D01*
X3843647Y6605000D02*
X3868647D01*
X3856147Y6592500D02*
Y6617500D01*
X3432500Y2785000D02*
X3457500D01*
X3445000Y2772500D02*
Y2797500D01*
X4123498Y3510002D02*
X4148498D01*
X4135998Y3497502D02*
Y3522502D01*
X4032500Y2095000D02*
X4057500D01*
X4045000Y2082500D02*
Y2107500D01*
X3932500Y4765000D02*
X3957500D01*
X3945000Y4752500D02*
Y4777500D01*
X3792500Y4615000D02*
X3817500D01*
X3805000Y4602500D02*
Y4627500D01*
X4042500Y4585000D02*
X4067500D01*
X4055000Y4572500D02*
Y4597500D01*
X4175797Y4442719D02*
X4200796D01*
X4188296Y4430219D02*
Y4455218D01*
X4162500Y4555000D02*
X4187500D01*
X4175000Y4542500D02*
Y4567500D01*
X3712500Y5825000D02*
X3737500D01*
X3725000Y5812500D02*
Y5837500D01*
X3491925Y6297248D02*
X3516924D01*
X3504425Y6284748D02*
Y6309747D01*
X3947394Y4611017D02*
X3972393D01*
X3959894Y4598517D02*
Y4623517D01*
X3881800Y2502300D02*
X3906800D01*
X3894300Y2489800D02*
Y2514800D01*
X3977500Y1865000D02*
X4002500D01*
X3990000Y1852500D02*
Y1877500D01*
X3942500Y4685000D02*
X3967500D01*
X3955000Y4672500D02*
Y4697500D01*
%TF.MD5,97b6bfd5a1d41dd553e91cb4ae53d3c6*%
M02*
