%TF.GenerationSoftware,Altium Limited,Altium Designer,22.10.1 (41)*%
G04 Layer_Color=16711935*
%FSLAX45Y45*%
%MOMM*%
%TF.SameCoordinates,F1D13F34-3715-448E-B12D-83C564530F5A*%
%TF.FilePolarity,Positive*%
%TF.FileFunction,Other,Mechanical_13*%
%TF.Part,Single*%
G01*
G75*
%TA.AperFunction,NonConductor*%
%ADD63C,0.12700*%
%ADD64C,0.10160*%
%ADD65C,0.15240*%
%ADD66C,0.25400*%
G36*
X3493010Y2786139D02*
X3397987D01*
Y2836190D01*
X3493010D01*
Y2786139D01*
D02*
G37*
G36*
X3556212Y2445213D02*
X3506270D01*
Y2540310D01*
X3556212D01*
Y2445213D01*
D02*
G37*
G36*
X4464787Y2438788D02*
X4369690D01*
Y2488730D01*
X4464787D01*
Y2438788D01*
D02*
G37*
G36*
X3673161Y2488730D02*
X3732287D01*
Y2438788D01*
X3637190D01*
Y2445287D01*
X3623110D01*
Y2540310D01*
X3673161D01*
Y2488730D01*
D02*
G37*
G36*
X4464713Y2321839D02*
X4369690D01*
Y2371890D01*
X4464713D01*
Y2321839D01*
D02*
G37*
G36*
X3732213D02*
X3637190D01*
Y2371890D01*
X3732213D01*
Y2321839D01*
D02*
G37*
G36*
X3922987Y4243071D02*
X3827890D01*
Y4293013D01*
X3922987D01*
Y4243071D01*
D02*
G37*
G36*
X3778731Y3947188D02*
X3728789D01*
Y4042285D01*
X3778731D01*
Y3947188D01*
D02*
G37*
G36*
X3661891D02*
X3611840D01*
Y4042211D01*
X3661891D01*
Y3947188D01*
D02*
G37*
G36*
X3778861Y3735487D02*
X3728810D01*
Y3830510D01*
X3778861D01*
Y3735487D01*
D02*
G37*
G36*
X3661912Y3735413D02*
X3611970D01*
Y3830510D01*
X3661912D01*
Y3735413D01*
D02*
G37*
G36*
X4078827Y3287785D02*
X4028776D01*
Y3382808D01*
X4078827D01*
Y3287785D01*
D02*
G37*
G36*
X3961878Y3287711D02*
X3911936D01*
Y3382808D01*
X3961878D01*
Y3287711D01*
D02*
G37*
G36*
X3493010Y2903088D02*
X3397913D01*
Y2953030D01*
X3493010D01*
Y2903088D01*
D02*
G37*
G36*
X3858159Y5907790D02*
X3808109D01*
Y6002813D01*
X3858159D01*
Y5907790D01*
D02*
G37*
G36*
X3741211Y5907716D02*
X3691269D01*
Y6002813D01*
X3741211D01*
Y5907716D01*
D02*
G37*
G36*
X3551814Y5889509D02*
X3456791D01*
Y5939559D01*
X3551814D01*
Y5889509D01*
D02*
G37*
G36*
X4562015Y5863809D02*
X4466992D01*
Y5913859D01*
X4562015D01*
Y5863809D01*
D02*
G37*
G36*
X3551887Y5772669D02*
X3456791D01*
Y5822611D01*
X3551887D01*
Y5772669D01*
D02*
G37*
G36*
X4562089Y5746969D02*
X4466992D01*
Y5796911D01*
X4562089D01*
Y5746969D01*
D02*
G37*
G36*
X4472211Y5498110D02*
X4377188D01*
Y5548160D01*
X4472211D01*
Y5498110D01*
D02*
G37*
G36*
X3652212Y5488112D02*
X3557189D01*
Y5538163D01*
X3652212D01*
Y5488112D01*
D02*
G37*
G36*
X4472284Y5381270D02*
X4377188D01*
Y5431212D01*
X4472284D01*
Y5381270D01*
D02*
G37*
G36*
X3652286Y5371272D02*
X3557189D01*
Y5421214D01*
X3652286D01*
Y5371272D01*
D02*
G37*
G36*
X4523861Y5017987D02*
X4473810D01*
Y5113010D01*
X4523861D01*
Y5017987D01*
D02*
G37*
G36*
X4406912Y5017913D02*
X4356970D01*
Y5113010D01*
X4406912D01*
Y5017913D01*
D02*
G37*
G36*
X4550529Y4504490D02*
X4500587D01*
Y4599587D01*
X4550529D01*
Y4504490D01*
D02*
G37*
G36*
X4433689D02*
X4383638D01*
Y4599513D01*
X4433689D01*
Y4504490D01*
D02*
G37*
G36*
X3922913Y4359911D02*
X3827890D01*
Y4409962D01*
X3922913D01*
Y4359911D01*
D02*
G37*
D63*
X3659998Y5214999D02*
X4359998D01*
X3659998Y5714999D02*
X4359998D01*
X3659998Y5214999D02*
Y5714999D01*
X4359998Y5214999D02*
Y5714999D01*
X3934500Y2561000D02*
X4114500D01*
Y2251000D02*
Y2561000D01*
X3934500Y2251000D02*
X4114500D01*
X3934500D02*
Y2561000D01*
X4660200Y1283200D02*
X4893800D01*
X4660200D02*
Y7348800D01*
X4893800D01*
Y1283200D02*
Y7348800D01*
X3136199Y1283200D02*
X3369800D01*
X3136199D02*
Y7348800D01*
X3369800D01*
Y1283200D02*
Y7348800D01*
X3566200Y1245600D02*
X4460200D01*
X3566200Y1294600D02*
X4460200D01*
X3566200Y1980600D02*
X4460200D01*
Y1245600D02*
Y1980600D01*
X3566200Y1245600D02*
Y1980600D01*
X3507501Y7126500D02*
Y7875500D01*
X4523501D01*
Y7126500D02*
Y7875500D01*
X3507501Y7126500D02*
X4523501D01*
X3507501Y6618500D02*
Y7126500D01*
Y6618500D02*
X4523501D01*
Y7126500D01*
X3494998Y2130002D02*
X3674998D01*
X3494998Y2230002D02*
X3674998D01*
Y2130002D02*
Y2230002D01*
X3494998Y2130002D02*
Y2230002D01*
X3561500Y3530000D02*
X3741500D01*
X3561500Y3630000D02*
X3741500D01*
Y3530000D02*
Y3630000D01*
X3561500Y3530000D02*
Y3630000D01*
X3692998Y4241400D02*
Y4401401D01*
X3612999Y4241400D02*
X3692998D01*
X3612999D02*
Y4401401D01*
X3692998D01*
X4334998Y4309998D02*
X4514999D01*
X4334998Y4409998D02*
X4514999D01*
Y4309998D02*
Y4409998D01*
X4334998Y4309998D02*
Y4409998D01*
X4336002Y4095000D02*
X4516002D01*
X4336002Y4195000D02*
X4516002D01*
Y4095000D02*
Y4195000D01*
X4336002Y4095000D02*
Y4195000D01*
X3839998Y5340002D02*
X4159998D01*
X3839998Y5490002D02*
X4159998D01*
X3839998Y5340002D02*
Y5490002D01*
X4159998Y5340002D02*
Y5490002D01*
X3554424Y6286245D02*
Y6466246D01*
X3454425Y6286245D02*
Y6466246D01*
X3554424D01*
X3454425Y6286245D02*
X3554424D01*
X4587500Y6286000D02*
Y6466000D01*
X4487500Y6286000D02*
Y6466000D01*
X4587500D01*
X4487500Y6286000D02*
X4587500D01*
X3464425Y6134749D02*
Y6294749D01*
X3544424D01*
Y6134749D02*
Y6294749D01*
X3464425Y6134749D02*
X3544424D01*
X4496923Y6119750D02*
Y6279750D01*
X4576923D01*
Y6119750D02*
Y6279750D01*
X4496923Y6119750D02*
X4576923D01*
X3511477Y4444247D02*
X4013523Y3942201D01*
Y4946293D02*
X4515568Y4444247D01*
X4013523Y3942201D02*
X4515568Y4444247D01*
X3511477D02*
X4013523Y4946293D01*
X3695002Y3560002D02*
X3875002D01*
X3695002Y3460002D02*
X3875002D01*
Y3560002D01*
X3695002Y3460002D02*
Y3560002D01*
X4085998Y3499002D02*
Y3679002D01*
X4185998Y3499002D02*
Y3679002D01*
X4085998D02*
X4185998D01*
X4085998Y3499002D02*
X4185998D01*
D64*
X4471802Y5794399D02*
Y5865599D01*
X4556902Y5794399D02*
Y5865599D01*
X3461601Y5820099D02*
Y5891299D01*
X3546701Y5820099D02*
Y5891299D01*
X3553700Y2450400D02*
X3624900D01*
X3553700Y2535500D02*
X3624900D01*
X3403100Y2834400D02*
Y2905600D01*
X3488200Y2834400D02*
Y2905600D01*
X3959366Y3292898D02*
X4030566D01*
X3959366Y3377998D02*
X4030566D01*
X3659400Y3740600D02*
X3730600D01*
X3659400Y3825700D02*
X3730600D01*
X3660101Y4037098D02*
X3731301D01*
X3660101Y3951998D02*
X3731301D01*
X3917800Y4290501D02*
Y4361701D01*
X3832700Y4290501D02*
Y4361701D01*
X4431899Y4594400D02*
X4503099D01*
X4431899Y4509300D02*
X4503099D01*
X4404400Y5023100D02*
X4475600D01*
X4404400Y5108200D02*
X4475600D01*
X4467098Y5428700D02*
Y5499900D01*
X4381998Y5428700D02*
Y5499900D01*
X3647099Y5418702D02*
Y5489902D01*
X3561999Y5418702D02*
Y5489902D01*
X3738699Y5912903D02*
X3809899D01*
X3738699Y5998003D02*
X3809899D01*
X4459600Y2370100D02*
Y2441300D01*
X4374500Y2370100D02*
Y2441300D01*
X3727100Y2370100D02*
Y2441300D01*
X3642000Y2370100D02*
Y2441300D01*
D65*
X4352100Y5984700D02*
Y6404700D01*
X4032100Y5984700D02*
X4352100D01*
X4032100D02*
Y6404700D01*
X4352100D01*
X4392099Y2764701D02*
Y3184701D01*
X4072099Y2764701D02*
X4392099D01*
X4072099D02*
Y3184701D01*
X4392099D01*
X3962102Y2764701D02*
Y3184701D01*
X3642102Y2764701D02*
X3962102D01*
X3642102D02*
Y3184701D01*
X3962102D01*
D66*
X3806200Y1320600D02*
Y1390577D01*
X3841189D01*
X3852852Y1378914D01*
Y1355589D01*
X3841189Y1343926D01*
X3806200D01*
X3922829Y1378914D02*
X3911166Y1390577D01*
X3887840D01*
X3876177Y1378914D01*
Y1332263D01*
X3887840Y1320600D01*
X3911166D01*
X3922829Y1332263D01*
X3946155Y1390577D02*
Y1320600D01*
X3981144D01*
X3992807Y1332263D01*
Y1343926D01*
X3981144Y1355589D01*
X3946155D01*
X3981144D01*
X3992807Y1367252D01*
Y1378914D01*
X3981144Y1390577D01*
X3946155D01*
X4132762D02*
X4086110D01*
Y1320600D01*
X4132762D01*
X4086110Y1355589D02*
X4109436D01*
X4202739Y1390577D02*
Y1320600D01*
X4167750D01*
X4156087Y1332263D01*
Y1355589D01*
X4167750Y1367252D01*
X4202739D01*
X4249391Y1297274D02*
X4261054D01*
X4272717Y1308937D01*
Y1367252D01*
X4237728D01*
X4226065Y1355589D01*
Y1332263D01*
X4237728Y1320600D01*
X4272717D01*
X4331031D02*
X4307705D01*
X4296042Y1332263D01*
Y1355589D01*
X4307705Y1367252D01*
X4331031D01*
X4342694Y1355589D01*
Y1343926D01*
X4296042D01*
%TF.MD5,085b652446848800af88a001c610ed2b*%
M02*
